<?xml version="1.0" encoding="iso-8859-1"?>
<!-- Generator: Adobe Illustrator 19.0.0, SVG Export Plug-In . SVG Version: 6.00 Build 0)  -->
<svg version="1.1" id="Capa_1" xmlns="http://www.w3.org/2000/svg" xmlns:xlink="http://www.w3.org/1999/xlink" x="0px" y="0px"
	 viewBox="0 0 512 512" style="enable-background:new 0 0 512 512;" xml:space="preserve">
<circle style="fill:#B9A096;" cx="256" cy="256" r="256"/>
<path style="fill:#A58C82;" d="M349.769,459.43l-54.064-181.392c-1.018-3.414-5.656-3.894-7.351-0.76l-51.343,94.943l16.787-73.47
	c0.794-3.474-3.009-6.172-6.026-4.277l-35.062,22.02l44.093-54.192c2.249-2.763,0.033-6.867-3.511-6.503l-77.816,7.996
	l54.777-31.335c3.093-1.769,2.503-6.395-0.935-7.331L46.694,175.415c-2.172-0.591-4.458,0.713-5.005,2.897
	c-11.995,47.837-6.684,100.082,18.7,146.576c1.077,1.974,3.617,2.673,5.568,1.557l5.909-3.38
	c7.704,21.634,19.028,42.144,34.092,60.472l-18.467,11.598c-1.907,1.197-2.495,3.762-1.26,5.644
	c27.064,41.229,69.093,72.714,120.489,85.537c2.182,0.544,4.416-0.85,4.918-3.042l5.939-25.992
	c39.856,15.967,85.013,19.491,129.407,7.216C349.151,463.898,350.411,461.585,349.769,459.43z"/>
<circle style="fill:#FF8782;" cx="331.72" cy="342.94" r="19.02"/>
<circle style="fill:#ADDF6E;" cx="344.83" cy="387.31" r="22.779"/>
<g>
	<path style="fill:#87CD6E;" d="M307.514,301.625c-2.259,0-4.517-0.858-6.233-2.582c-3.457-3.444-3.457-9.03-0.017-12.483
		l9.914-9.931c3.448-3.457,9.052-3.457,12.483-0.009c3.457,3.444,3.457,9.03,0.017,12.483l-9.914,9.931
		C312.04,300.763,309.773,301.625,307.514,301.625z"/>
	<path style="fill:#87CD6E;" d="M348.948,441.126c-4.397,0-8.198-3.276-8.75-7.746c-0.595-4.841,2.836-9.246,7.681-9.845
		l13.043-1.608c4.819-0.599,9.241,2.849,9.836,7.681c0.603,4.841-2.836,9.246-7.681,9.845l-13.043,1.608
		C349.672,441.105,349.302,441.126,348.948,441.126z"/>
</g>
<path style="fill:#FBE6A5;" d="M213.246,437.525c43.844,22.582,95.925,29.319,146.98,15.201c2.167-0.599,3.427-2.913,2.785-5.067
	l-54.064-181.392c-1.018-3.415-5.656-3.894-7.351-0.76l-90.03,166.484C210.495,433.972,211.244,436.494,213.246,437.525z"/>
<g>
	<path style="fill:#FFDC8C;" d="M272.805,384.356c3.263-13.941-4.745-27.762-18.026-32.274L229,399.752
		c3.059,2.396,6.624,4.233,10.656,5.177C254.491,408.401,269.332,399.19,272.805,384.356z"/>
	<path style="fill:#FFDC8C;" d="M301.596,265.507l-30.948,57.229c6.534,14.545,19.483,26.011,36.208,29.926
		c9.456,2.213,18.894,1.693,27.554-0.965l-25.462-85.43C307.93,262.852,303.291,262.373,301.596,265.507z"/>
</g>
<g>
	<circle style="fill:#FFCD6E;" cx="280.99" cy="385.7" r="23.17"/>
	<circle style="fill:#FFCD6E;" cx="300.02" cy="316.5" r="8.3"/>
</g>
<path style="fill:#FFDC8C;" d="M312.835,394.089c-3.984,17.018,6.583,34.043,23.6,38.027c7.443,1.742,14.821,0.573,21.175-2.574
	l-17.749-59.55C327.048,371.546,315.948,380.791,312.835,394.089z"/>
<path style="fill:#ADDF6E;" d="M274.244,390.109c-1.078,0-2.164-0.198-3.224-0.616l-15.672-6.151
	c-4.543-1.78-6.776-6.901-4.991-11.44c1.776-4.543,6.897-6.776,11.44-4.991l15.672,6.151c4.543,1.78,6.776,6.901,4.991,11.44
	C281.098,387.98,277.77,390.109,274.244,390.109z"/>
<circle style="fill:#87CD6E;" cx="256.55" cy="359.72" r="20.629"/>
<circle style="fill:#FF8782;" cx="246.25" cy="392.46" r="20.629"/>
<path style="fill:#FBE6A5;" d="M99.474,389.007c27.064,41.229,69.093,72.714,120.489,85.537c2.182,0.544,4.416-0.85,4.917-3.042
	l42.16-184.522c0.794-3.474-3.009-6.173-6.026-4.278l-160.281,100.66C98.827,384.561,98.238,387.125,99.474,389.007z"/>
<g>
	<path style="fill:#FFDC8C;" d="M261.014,282.703l-55.097,34.602c-1.466,15.878,4.168,32.23,16.803,43.866
		c7.144,6.579,15.617,10.769,24.464,12.714l19.857-86.904C267.834,283.507,264.032,280.808,261.014,282.703z"/>
	<path style="fill:#FFDC8C;" d="M207.547,400.18c-11.84,12.857-11.015,32.877,1.841,44.717c5.623,5.178,12.622,7.789,19.702,8.175
		l13.841-60.578C231.01,387.545,216.799,390.133,207.547,400.18z"/>
</g>
<path style="fill:#87CD6E;" d="M226.664,334.591c-0.129,0-0.25-0.004-0.371-0.009l-18.681-0.776
	c-4.879-0.203-8.664-4.315-8.457-9.185c0.198-4.746,4.103-8.461,8.81-8.461c0.129,0,0.25,0.004,0.371,0.009l18.681,0.776
	c4.879,0.203,8.664,4.315,8.457,9.185C235.276,330.875,231.371,334.591,226.664,334.591z"/>
<circle style="fill:#ADDF6E;" cx="179.31" cy="375.91" r="23.17"/>
<circle style="fill:#FF8782;" cx="198.07" cy="340.6" r="23.17"/>
<path style="fill:#FBE6A5;" d="M74.629,267.879c6.026,48.948,29.786,95.781,70.202,130.023c1.715,1.453,4.337,1.192,5.756-0.552
	l119.458-146.819c2.249-2.764,0.033-6.867-3.511-6.503L78.256,263.375C76.017,263.605,74.354,265.645,74.629,267.879z"/>
<g>
	<path style="fill:#FFDC8C;" d="M152.105,287.159c13.358-5.153,20.27-19.554,16.521-33.07l-53.91,5.539
		c-0.257,3.877,0.232,7.858,1.722,11.722C121.922,285.565,137.891,292.642,152.105,287.159z"/>
	<path style="fill:#FFDC8C;" d="M266.533,244.029l-64.721,6.65c-8.341,13.59-10.524,30.747-4.342,46.773
		c3.495,9.06,9.24,16.568,16.313,22.227l56.261-69.147C272.294,247.767,270.078,243.664,266.533,244.029z"/>
</g>
<g>
	<circle style="fill:#FFCD6E;" cx="155.6" cy="294.68" r="23.17"/>
	<circle style="fill:#FFCD6E;" cx="223.51" cy="271.44" r="8.3"/>
</g>
<path style="fill:#FFDC8C;" d="M166.602,325.72c-16.307,6.291-24.426,24.609-18.136,40.916c2.751,7.132,7.872,12.57,14.051,16.05
	l39.218-48.2C193.235,324.772,179.345,320.804,166.602,325.72z"/>
<circle style="fill:#ADDF6E;" cx="139.59" cy="184.46" r="23.17"/>
<circle style="fill:#87CD6E;" cx="162.81" cy="271.21" r="23.17"/>
<g>
	<circle style="fill:#FF8782;" cx="134.12" cy="282.79" r="19.774"/>
	<path style="fill:#FF8782;" d="M167.506,216.276c-2.526,0-5.034-1.078-6.776-3.164c-3.129-3.741-2.638-9.306,1.103-12.435
		l21.845-18.272c3.759-3.138,9.319-2.616,12.431,1.108c3.129,3.741,2.638,9.306-1.103,12.435l-21.845,18.272
		C171.506,215.603,169.497,216.276,167.506,216.276z"/>
</g>
<path style="fill:#87CD6E;" d="M97.236,195.31c-4.388,0-8.19-3.263-8.75-7.724l-3.233-25.698c-0.612-4.841,2.819-9.254,7.655-9.862
	c5-0.599,9.259,2.828,9.862,7.655l3.233,25.698c0.612,4.841-2.819,9.254-7.655,9.862C97.968,195.289,97.598,195.31,97.236,195.31z"
	/>
<path style="fill:#ADDF6E;" d="M113.92,315.149c-0.483,0-0.966-0.039-1.457-0.121c-4.81-0.797-8.06-5.345-7.259-10.155l4.483-26.966
	c0.802-4.81,5.345-8.056,10.155-7.259s8.06,5.345,7.259,10.155l-4.483,26.966C121.902,312.089,118.161,315.149,113.92,315.149z"/>
<path style="fill:#FBE6A5;" d="M54.931,166.541c-11.995,47.837-6.684,100.083,18.7,146.576c1.077,1.973,3.617,2.673,5.569,1.556
	l164.295-93.985c3.093-1.769,2.503-6.395-0.935-7.331L59.936,163.645C57.764,163.053,55.479,164.358,54.931,166.541z"/>
<g>
	<path style="fill:#FFDC8C;" d="M120.276,212.414c14.318,0,25.95-10.948,27.316-24.907l-52.29-14.235
		c-1.635,3.525-2.612,7.415-2.612,11.556C92.69,200.063,105.04,212.414,120.276,212.414z"/>
	<path style="fill:#FFDC8C;" d="M242.559,213.359l-62.777-17.089c-12.673,9.677-20.885,24.899-20.885,42.075
		c0,9.711,2.658,18.783,7.22,26.608l77.378-44.263C246.587,218.92,245.997,214.295,242.559,213.359z"/>
</g>
<g>
	<circle style="fill:#FFCD6E;" cx="120.83" cy="220.69" r="23.17"/>
	<circle style="fill:#FFCD6E;" cx="192.55" cy="223.45" r="8.3"/>
</g>
<path style="fill:#FFDC8C;" d="M119.922,253.609c-17.478,0-31.647,14.169-31.647,31.647c0,7.644,2.821,14.561,7.333,20.031
	l53.938-30.855C145.112,262.309,133.581,253.609,119.922,253.609z"/>
<circle style="fill:#A58C82;" cx="251.59" cy="128" r="70.62"/>
<circle style="fill:#FFFFFF;" cx="264.83" cy="114.76" r="70.62"/>
<circle style="fill:#FF8782;" cx="264.83" cy="114.76" r="52.966"/>
<path style="fill:#FF6464;" d="M264.828,61.793c-20.309,0-37.927,11.442-46.814,28.22c7.388-3.914,15.802-6.151,24.745-6.151
	c29.252,0,52.966,23.713,52.966,52.966c0,8.943-2.238,17.357-6.151,24.745c16.778-8.887,28.22-26.505,28.22-46.814
	C317.793,85.506,294.08,61.793,264.828,61.793z"/>
<circle style="fill:#A58C82;" cx="375.17" cy="207.45" r="70.62"/>
<circle style="fill:#FFFFFF;" cx="388.41" cy="194.21" r="70.62"/>
<circle style="fill:#ADDF6E;" cx="388.41" cy="194.21" r="52.966"/>
<path style="fill:#87CD6E;" d="M388.414,141.241c-20.309,0-37.927,11.442-46.814,28.22c7.388-3.914,15.802-6.151,24.745-6.151
	c29.252,0,52.966,23.713,52.966,52.966c0,8.943-2.238,17.357-6.151,24.745c16.778-8.887,28.22-26.505,28.22-46.814
	C441.379,164.955,417.666,141.241,388.414,141.241z"/>
<g>
</g>
<g>
</g>
<g>
</g>
<g>
</g>
<g>
</g>
<g>
</g>
<g>
</g>
<g>
</g>
<g>
</g>
<g>
</g>
<g>
</g>
<g>
</g>
<g>
</g>
<g>
</g>
<g>
</g>
</svg>
