<?xml version="1.0" encoding="iso-8859-1"?>
<!-- Generator: Adobe Illustrator 23.0.1, SVG Export Plug-In . SVG Version: 6.00 Build 0)  -->
<svg version="1.1" id="Layer_1" xmlns="http://www.w3.org/2000/svg" xmlns:xlink="http://www.w3.org/1999/xlink" x="100px" y="100px"
	 viewBox="0 0 512 512" style="enable-background:new 0 0 512 512;" xml:space="preserve">
<g>
	<g>
		<path style="fill:#13120D;" d="M256.903,395.611c-19.933,0-39.271-3.904-57.475-11.604c-17.583-7.437-33.374-18.083-46.934-31.644
			c-13.56-13.56-24.207-29.351-31.644-46.934c-7.7-18.205-11.604-37.542-11.604-57.475s3.904-39.271,11.604-57.475
			c7.437-17.583,18.084-33.374,31.644-46.934c13.56-13.56,29.351-24.207,46.934-31.644c18.205-7.7,37.542-11.604,57.475-11.604
			s39.271,3.904,57.475,11.604c17.583,7.437,33.374,18.084,46.934,31.644c13.56,13.56,24.207,29.351,31.644,46.934
			c7.7,18.205,11.604,37.542,11.604,57.475s-3.904,39.271-11.604,57.475c-7.437,17.583-18.083,33.374-31.644,46.934
			c-13.56,13.56-29.351,24.207-46.934,31.644C296.174,391.707,276.837,395.611,256.903,395.611z M256.903,102.068
			c-19.695,0-38.8,3.857-56.785,11.464c-17.372,7.348-32.973,17.867-46.372,31.265c-13.398,13.398-23.917,29-31.265,46.372
			c-7.607,17.985-11.464,37.09-11.464,56.785c0,19.695,3.857,38.8,11.464,56.785c7.348,17.372,17.867,32.974,31.265,46.372
			c13.398,13.398,29,23.917,46.372,31.265c17.985,7.607,37.09,11.464,56.785,11.464c19.695,0,38.8-3.857,56.785-11.464
			c17.372-7.348,32.974-17.867,46.372-31.265c13.398-13.398,23.917-29,31.265-46.372c7.607-17.985,11.464-37.09,11.464-56.785
			c0-19.695-3.857-38.8-11.464-56.785c-7.348-17.372-17.867-32.973-31.265-46.372c-13.398-13.398-29-23.917-46.372-31.265
			C295.703,105.925,276.598,102.068,256.903,102.068z"/>
	</g>
	<g>
		<path style="fill:#13120D;" d="M255.974,372.564c-17.218,0-33.921-3.348-49.646-9.95c-15.188-6.377-28.829-15.506-40.543-27.134
			c-11.714-11.628-20.911-25.169-27.336-40.247c-6.652-15.611-10.025-32.194-10.025-49.288c0-17.094,3.373-33.677,10.025-49.288
			c6.425-15.078,15.622-28.619,27.336-40.247c11.714-11.628,25.354-20.757,40.543-27.134c15.725-6.602,32.428-9.95,49.646-9.95
			c17.218,0,33.921,3.348,49.646,9.95c15.188,6.377,28.829,15.506,40.543,27.134c11.714,11.628,20.911,25.169,27.336,40.247
			c6.652,15.611,10.025,32.194,10.025,49.288c0,17.094-3.373,33.677-10.025,49.288c-6.425,15.078-15.622,28.619-27.336,40.247
			c-11.714,11.628-25.354,20.757-40.543,27.134C289.896,369.216,273.192,372.564,255.974,372.564z M255.974,121.099
			c-16.981,0-33.454,3.301-48.96,9.812c-14.978,6.288-28.429,15.291-39.98,26.757c-11.551,11.466-20.62,24.818-26.954,39.684
			c-6.558,15.391-9.883,31.74-9.883,48.593c0,16.854,3.325,33.203,9.883,48.593c6.335,14.866,15.403,28.218,26.954,39.684
			c11.551,11.466,25.003,20.469,39.98,26.757c15.507,6.51,31.979,9.812,48.96,9.812s33.454-3.301,48.96-9.812
			c14.978-6.289,28.429-15.291,39.98-26.757c11.551-11.466,20.62-24.818,26.954-39.684c6.558-15.391,9.883-31.74,9.883-48.593
			c0-16.854-3.325-33.203-9.883-48.593c-6.334-14.866-15.403-28.218-26.954-39.684c-11.551-11.466-25.003-20.469-39.98-26.757
			C289.428,124.4,272.956,121.099,255.974,121.099z"/>
	</g>
	<g>
		<path style="fill:#C8B02D;" d="M256.903,368.291c-16.496,0-32.498-3.231-47.564-9.603c-14.551-6.155-27.619-14.965-38.84-26.187
			c-11.222-11.222-20.032-24.29-26.187-38.841c-6.372-15.065-9.603-31.068-9.603-47.564c0-16.496,3.231-32.498,9.603-47.564
			c6.154-14.551,14.965-27.619,26.187-38.841c11.222-11.222,24.29-20.032,38.84-26.187c15.065-6.372,31.068-9.603,47.564-9.603
			c16.496,0,32.498,3.231,47.564,9.603c14.551,6.155,27.619,14.965,38.841,26.187c11.222,11.222,20.032,24.29,26.187,38.841
			c6.372,15.065,9.603,31.068,9.603,47.564c0,16.496-3.231,32.498-9.603,47.564c-6.155,14.551-14.965,27.619-26.187,38.841
			c-11.222,11.222-24.29,20.032-38.841,26.187C289.402,365.06,273.399,368.291,256.903,368.291z"/>
		<path style="fill:#221F1F;" d="M256.903,124.899c66.935,0,121.197,54.262,121.197,121.197s-54.262,121.197-121.197,121.197
			s-121.197-54.262-121.197-121.197S189.968,124.899,256.903,124.899 M256.903,122.906c-16.63,0-32.763,3.257-47.952,9.682
			c-7.3,3.088-14.341,6.909-20.927,11.358c-6.523,4.407-12.656,9.467-18.231,15.042s-10.635,11.708-15.042,18.231
			c-4.449,6.586-8.271,13.627-11.359,20.927c-6.424,15.189-9.682,31.322-9.682,47.952s3.257,32.763,9.682,47.952
			c3.088,7.3,6.909,14.341,11.359,20.927c4.407,6.523,9.467,12.656,15.042,18.231s11.708,10.635,18.231,15.042
			c6.586,4.449,13.627,8.271,20.927,11.358c15.189,6.424,31.322,9.682,47.952,9.682s32.763-3.257,47.952-9.682
			c7.3-3.088,14.341-6.909,20.927-11.358c6.523-4.407,12.656-9.467,18.231-15.042s10.635-11.708,15.042-18.231
			c4.449-6.586,8.271-13.627,11.358-20.927c6.424-15.189,9.682-31.322,9.682-47.952s-3.257-32.763-9.682-47.952
			c-3.088-7.3-6.909-14.341-11.358-20.927c-4.407-6.523-9.467-12.656-15.042-18.231s-11.708-10.635-18.231-15.042
			c-6.586-4.449-13.627-8.271-20.927-11.358C289.667,126.163,273.533,122.906,256.903,122.906L256.903,122.906z"/>
	</g>
	<circle style="fill:#D0BE70;" cx="256.903" cy="234.408" r="109.508"/>
	<circle style="fill:#D4C794;" cx="256.903" cy="233.278" r="108.379"/>
	<g>
		<path style="fill:#FFFFFF;" d="M256.903,316.359c-12.998,0-25.607-2.546-37.478-7.567c-11.466-4.85-21.762-11.792-30.605-20.634
			c-8.842-8.842-15.784-19.139-20.634-30.605c-5.021-11.871-7.567-24.481-7.567-37.478s2.546-25.607,7.567-37.478
			c4.85-11.466,11.792-21.762,20.634-30.605c8.842-8.842,19.139-15.784,30.605-20.634c11.871-5.021,24.481-7.567,37.478-7.567
			c12.998,0,25.607,2.546,37.478,7.567c11.465,4.85,21.762,11.792,30.604,20.634c8.842,8.842,15.785,19.139,20.634,30.605
			c5.021,11.871,7.567,24.481,7.567,37.478s-2.546,25.607-7.567,37.478c-4.85,11.465-11.792,21.762-20.634,30.605
			c-8.842,8.842-19.139,15.784-30.604,20.634C282.51,313.814,269.901,316.359,256.903,316.359z"/>
		<path style="fill:#221F1F;" d="M256.903,124.899c52.564,0,95.176,42.612,95.176,95.176s-42.612,95.176-95.176,95.176
			s-95.176-42.612-95.176-95.176S204.339,124.899,256.903,124.899 M256.903,122.684c-13.147,0-25.902,2.575-37.91,7.654
			c-11.598,4.905-22.013,11.927-30.956,20.871c-8.944,8.944-15.966,19.359-20.871,30.956c-5.079,12.008-7.654,24.763-7.654,37.91
			c0,13.147,2.575,25.902,7.654,37.91c4.905,11.598,11.927,22.013,20.871,30.956c8.944,8.944,19.359,15.966,30.956,20.871
			c12.008,5.079,24.763,7.654,37.91,7.654c13.147,0,25.902-2.575,37.91-7.654c11.598-4.905,22.013-11.927,30.956-20.871
			c8.944-8.944,15.966-19.359,20.871-30.956c5.079-12.008,7.654-24.763,7.654-37.91c0-13.147-2.575-25.902-7.654-37.91
			c-4.905-11.598-11.927-22.013-20.871-30.956c-8.944-8.944-19.359-15.966-30.956-20.871
			C282.805,125.259,270.05,122.684,256.903,122.684L256.903,122.684z"/>
	</g>
	<g>
		<path style="fill:#BE2026;" d="M120.67,256.69c-2.911,0-5.279-2.368-5.279-5.279v-12.59c0-2.911,2.368-5.279,5.279-5.279
			s5.279,2.368,5.279,5.279v12.59C125.949,254.322,123.581,256.69,120.67,256.69z"/>
		<path style="fill:#221F1F;" d="M120.67,234.318c2.487,0,4.504,2.016,4.504,4.504v12.59c0,2.487-2.016,4.504-4.504,4.504h0
			c-2.487,0-4.504-2.016-4.504-4.504v-12.59C116.166,236.334,118.183,234.318,120.67,234.318L120.67,234.318 M120.67,232.767
			c-3.338,0-6.054,2.716-6.054,6.054v12.59c0,3.338,2.716,6.054,6.054,6.054s6.054-2.716,6.054-6.054v-12.59
			C126.724,235.483,124.008,232.767,120.67,232.767L120.67,232.767z"/>
	</g>
	<g>
		<path style="fill:#BE2026;" d="M127.208,294.918c-2.326,0-4.408-1.56-5.063-3.793l-3.546-12.08
			c-0.82-2.793,0.785-5.732,3.578-6.552c0.486-0.143,0.987-0.215,1.489-0.215c2.326,0,4.408,1.56,5.064,3.793l3.546,12.08
			c0.397,1.353,0.244,2.78-0.432,4.017c-0.676,1.238-1.793,2.138-3.146,2.535C128.212,294.845,127.711,294.918,127.208,294.918z"/>
		<path style="fill:#221F1F;" d="M123.666,273.052c1.948,0,3.743,1.273,4.319,3.236l3.546,12.08c0.701,2.387-0.666,4.889-3.053,5.59
			h0c-0.423,0.124-0.851,0.184-1.271,0.184c-1.948,0-3.743-1.273-4.319-3.236l-3.546-12.08c-0.701-2.387,0.666-4.889,3.053-5.59h0
			C122.819,273.111,123.246,273.052,123.666,273.052 M123.667,271.501L123.667,271.501c-0.577,0-1.151,0.083-1.708,0.246
			c-1.552,0.456-2.833,1.488-3.608,2.907c-0.775,1.419-0.951,3.056-0.496,4.607l3.546,12.08c0.752,2.561,3.14,4.35,5.807,4.35
			c0.576,0,1.151-0.083,1.707-0.246c3.203-0.94,5.044-4.311,4.104-7.515l-3.546-12.08
			C128.722,273.29,126.334,271.501,123.667,271.501L123.667,271.501z"/>
	</g>
	<g>
		<path style="fill:#BE2026;" d="M144.258,329.753c-1.808,0-3.47-0.907-4.446-2.426l-6.805-10.592
			c-0.762-1.186-1.017-2.598-0.717-3.976c0.3-1.378,1.118-2.556,2.305-3.319c0.854-0.548,1.839-0.838,2.849-0.838
			c1.808,0,3.47,0.907,4.446,2.426l6.805,10.592c1.573,2.449,0.861,5.721-1.588,7.295
			C146.253,329.463,145.268,329.753,144.258,329.753z"/>
		<path style="fill:#221F1F;" d="M137.444,309.377c1.482,0,2.933,0.731,3.793,2.07l6.805,10.592
			c1.344,2.093,0.738,4.879-1.355,6.223h0c-0.753,0.484-1.597,0.715-2.43,0.715c-1.482,0-2.933-0.731-3.793-2.07l-6.805-10.592
			c-1.344-2.093-0.738-4.879,1.355-6.223h0C135.767,309.608,136.61,309.377,137.444,309.377 M137.444,307.826L137.444,307.826
			c-1.16,0-2.29,0.332-3.268,0.961c-2.809,1.805-3.626,5.558-1.821,8.366l6.805,10.592c1.119,1.742,3.025,2.782,5.098,2.782
			c1.159,0,2.29-0.332,3.268-0.961c1.361-0.874,2.299-2.226,2.643-3.806c0.344-1.58,0.052-3.2-0.822-4.56l-6.805-10.592
			C141.422,308.866,139.517,307.826,137.444,307.826L137.444,307.826z"/>
	</g>
	<g>
		<path style="fill:#BE2026;" d="M170.416,358.377c-1.269,0-2.496-0.458-3.456-1.29l-9.513-8.247
			c-1.066-0.924-1.708-2.207-1.808-3.613c-0.1-1.406,0.353-2.768,1.277-3.833c1.003-1.157,2.458-1.821,3.991-1.821
			c1.269,0,2.496,0.458,3.456,1.29l9.513,8.247c1.066,0.924,1.708,2.207,1.808,3.613c0.1,1.406-0.353,2.768-1.277,3.833
			C173.404,357.713,171.949,358.377,170.416,358.377z"/>
		<path style="fill:#221F1F;" d="M160.907,340.348c1.046,0,2.096,0.362,2.948,1.101l9.513,8.246
			c1.879,1.629,2.082,4.474,0.453,6.353l0,0c-0.891,1.027-2.144,1.554-3.405,1.554c-1.046,0-2.096-0.362-2.948-1.101l-9.513-8.246
			c-1.879-1.629-2.082-4.474-0.453-6.353h0C158.393,340.874,159.646,340.348,160.907,340.348 M160.907,338.797L160.907,338.797
			c-1.758,0-3.426,0.761-4.577,2.089c-1.059,1.222-1.579,2.783-1.464,4.396c0.115,1.613,0.851,3.085,2.073,4.144l9.513,8.246
			c1.101,0.954,2.508,1.48,3.964,1.48c1.758,0,3.426-0.761,4.577-2.089c1.059-1.222,1.579-2.783,1.464-4.396
			c-0.115-1.613-0.851-3.085-2.073-4.144l-9.513-8.246C163.77,339.322,162.362,338.797,160.907,338.797L160.907,338.797z"/>
	</g>
	<g>
		<path style="fill:#BE2026;" d="M203.584,378.474c-0.759,0-1.496-0.161-2.191-0.479l-11.451-5.233
			c-1.283-0.586-2.26-1.637-2.753-2.958s-0.441-2.755,0.145-4.038c0.857-1.875,2.742-3.086,4.804-3.086
			c0.759,0,1.496,0.161,2.191,0.479l11.451,5.233c1.283,0.586,2.26,1.637,2.753,2.958c0.492,1.321,0.441,2.755-0.145,4.038
			C207.532,377.262,205.646,378.474,203.584,378.474z"/>
		<path style="fill:#221F1F;" d="M192.139,363.456c0.626,0,1.262,0.131,1.869,0.409l11.451,5.233
			c2.262,1.034,3.258,3.706,2.224,5.968l0,0c-0.757,1.655-2.391,2.633-4.099,2.633c-0.626,0-1.262-0.131-1.869-0.409l-11.451-5.233
			c-2.262-1.034-3.258-3.706-2.224-5.968l0,0C188.796,364.433,190.43,363.456,192.139,363.456 M192.139,361.905L192.139,361.905
			c-2.365,0-4.527,1.389-5.51,3.539c-1.388,3.036-0.046,6.635,2.99,8.023l11.451,5.233c0.797,0.364,1.643,0.549,2.514,0.549
			c2.364,0,4.527-1.389,5.509-3.539c0.672-1.471,0.731-3.115,0.167-4.631c-0.565-1.515-1.686-2.72-3.157-3.392l-11.451-5.233
			C193.855,362.09,193.01,361.905,192.139,361.905L192.139,361.905z"/>
	</g>
	<g>
		<path style="fill:#BE2026;" d="M241.078,388.413c-0.252,0-0.507-0.018-0.759-0.055l-12.461-1.796
			c-2.881-0.415-4.887-3.097-4.472-5.978c0.372-2.581,2.616-4.527,5.219-4.527c0.252,0,0.507,0.018,0.759,0.055l12.461,1.796
			c2.881,0.415,4.887,3.097,4.472,5.978C245.926,386.467,243.682,388.413,241.078,388.413z"/>
		<path style="fill:#221F1F;" d="M228.606,376.833c0.214,0,0.43,0.015,0.648,0.047l12.461,1.796c2.462,0.355,4.17,2.638,3.815,5.1
			l0,0c-0.323,2.244-2.249,3.862-4.452,3.862c-0.214,0-0.43-0.015-0.648-0.047l-12.461-1.796c-2.462-0.355-4.17-2.638-3.815-5.1l0,0
			C224.477,378.451,226.403,376.833,228.606,376.833 M228.606,375.283L228.606,375.283c-2.987,0-5.561,2.232-5.987,5.191
			c-0.231,1.601,0.176,3.195,1.145,4.49c0.969,1.295,2.384,2.135,3.984,2.366l12.461,1.796c0.288,0.041,0.58,0.062,0.869,0.062
			c2.987,0,5.56-2.232,5.987-5.191c0.231-1.601-0.176-3.195-1.145-4.49c-0.969-1.295-2.384-2.135-3.984-2.366l-12.461-1.796
			C229.187,375.304,228.895,375.283,228.606,375.283L228.606,375.283z"/>
	</g>
	<g>
		<path style="fill:#BE2026;" d="M267.372,389.178c-2.606,0-4.85-1.948-5.22-4.53c-0.2-1.396,0.155-2.786,1.001-3.915
			c0.845-1.128,2.08-1.86,3.475-2.06l12.462-1.787c0.25-0.036,0.504-0.054,0.755-0.054c2.605,0,4.85,1.948,5.22,4.53
			c0.2,1.396-0.155,2.786-1.001,3.915c-0.845,1.129-2.08,1.86-3.476,2.061l-12.462,1.787
			C267.877,389.16,267.623,389.178,267.372,389.178z"/>
		<path style="fill:#221F1F;" d="M279.846,377.607c2.204,0,4.13,1.62,4.452,3.865c0.353,2.462-1.357,4.744-3.819,5.097
			l-12.462,1.787c-0.217,0.031-0.432,0.046-0.645,0.046c-2.204,0-4.13-1.62-4.452-3.865v0c-0.353-2.462,1.357-4.744,3.819-5.097
			l12.462-1.787C279.418,377.623,279.633,377.607,279.846,377.607 M279.846,376.057L279.846,376.057
			c-0.288,0-0.579,0.021-0.865,0.062l-12.462,1.787c-1.601,0.23-3.016,1.069-3.986,2.363s-1.377,2.889-1.148,4.489
			c0.425,2.962,2.999,5.196,5.987,5.196c0.288,0,0.579-0.021,0.865-0.062l12.462-1.787c3.305-0.474,5.608-3.548,5.134-6.852
			C285.409,378.29,282.835,376.057,279.846,376.057L279.846,376.057z"/>
	</g>
	<g>
		<path style="fill:#BE2026;" d="M305.299,380.717c-2.063,0-3.95-1.213-4.806-3.089c-0.585-1.283-0.636-2.717-0.142-4.038
			c0.493-1.321,1.471-2.371,2.755-2.956l11.455-5.225c0.694-0.317,1.43-0.477,2.188-0.477c2.063,0,3.95,1.213,4.806,3.089
			c1.208,2.648,0.036,5.786-2.612,6.994l-11.454,5.225C306.793,380.556,306.057,380.717,305.299,380.717z"/>
		<path style="fill:#221F1F;" d="M316.748,365.707c1.71,0,3.344,0.979,4.1,2.636v0c1.032,2.263,0.035,4.934-2.228,5.967
			l-11.454,5.225c-0.606,0.276-1.241,0.407-1.866,0.407c-1.71,0-3.344-0.979-4.1-2.636c-1.032-2.263-0.035-4.934,2.228-5.967
			l11.455-5.225C315.488,365.838,316.123,365.707,316.748,365.707 M316.749,364.156v1.551V364.156L316.749,364.156L316.749,364.156
			c-0.87,0-1.715,0.184-2.51,0.547l-11.455,5.225c-1.471,0.671-2.593,1.875-3.159,3.39c-0.566,1.515-0.508,3.16,0.163,4.631
			c0.982,2.152,3.145,3.543,5.511,3.543c0.87,0,1.714-0.184,2.51-0.547l11.454-5.225c1.471-0.671,2.593-1.875,3.159-3.39
			c0.566-1.515,0.508-3.16-0.163-4.631C321.278,365.547,319.115,364.156,316.749,364.156L316.749,364.156z"/>
	</g>
	<g>
		<path style="fill:#BE2026;" d="M339.298,361.916c-1.534,0-2.99-0.665-3.993-1.824c-1.905-2.201-1.664-5.542,0.536-7.447
			l9.519-8.24c0.959-0.83,2.186-1.288,3.453-1.288c1.534,0,2.99,0.665,3.993,1.824c1.905,2.201,1.664,5.542-0.536,7.447l-9.519,8.24
			C341.792,361.458,340.566,361.916,339.298,361.916z"/>
		<path style="fill:#221F1F;" d="M348.813,343.893c1.262,0,2.516,0.527,3.407,1.556h0c1.628,1.881,1.423,4.725-0.458,6.353
			l-9.519,8.24c-0.852,0.737-1.901,1.099-2.946,1.099c-1.262,0-2.516-0.527-3.407-1.556c-1.628-1.881-1.423-4.725,0.458-6.353
			l9.519-8.24C346.719,344.254,347.769,343.893,348.813,343.893 M348.813,342.342L348.813,342.342c-1.454,0-2.86,0.525-3.961,1.477
			l-9.519,8.24c-2.524,2.185-2.8,6.016-0.615,8.54c1.151,1.329,2.82,2.092,4.58,2.092c1.454,0,2.86-0.524,3.96-1.477l9.519-8.24
			c2.524-2.185,2.8-6.016,0.615-8.54C352.242,343.105,350.573,342.342,348.813,342.342L348.813,342.342z"/>
	</g>
	<g>
		<path style="fill:#BE2026;" d="M366.619,334.301c-1.012,0-1.998-0.291-2.852-0.84c-2.448-1.575-3.158-4.848-1.583-7.296
			l6.813-10.588c0.976-1.517,2.638-2.423,4.444-2.423c1.012,0,1.998,0.29,2.852,0.84c2.448,1.575,3.158,4.848,1.583,7.296
			l-6.813,10.587C370.087,333.395,368.425,334.301,366.619,334.301z"/>
		<path style="fill:#221F1F;" d="M373.44,313.93c0.835,0,1.679,0.232,2.433,0.717l0,0c2.092,1.346,2.696,4.133,1.35,6.224
			l-6.813,10.587c-0.861,1.338-2.311,2.067-3.792,2.067c-0.835,0-1.679-0.232-2.433-0.717c-2.092-1.346-2.696-4.133-1.35-6.224
			l6.813-10.587C370.51,314.659,371.96,313.93,373.44,313.93 M373.441,312.379L373.441,312.379c-2.071,0-3.976,1.039-5.096,2.779
			l-6.813,10.587c-1.806,2.807-0.992,6.561,1.815,8.368c0.98,0.63,2.111,0.964,3.272,0.964c2.071,0,3.976-1.039,5.096-2.779
			l6.813-10.587c1.806-2.807,0.992-6.561-1.815-8.368C375.733,312.712,374.601,312.379,373.441,312.379L373.441,312.379z"/>
	</g>
	<g>
		<path style="fill:#BE2026;" d="M385.068,300.107c-0.503,0-1.005-0.073-1.492-0.216c-2.792-0.822-4.396-3.762-3.574-6.555
			l3.555-12.078c0.657-2.231,2.738-3.79,5.062-3.79c0.503,0,1.005,0.073,1.492,0.216c2.792,0.822,4.396,3.762,3.574,6.555
			l-3.555,12.078C389.474,298.548,387.392,300.107,385.068,300.107z"/>
		<path style="fill:#221F1F;" d="M388.619,278.244c0.421,0,0.849,0.059,1.274,0.184l0,0c2.386,0.702,3.751,3.206,3.049,5.592
			l-3.555,12.078c-0.577,1.962-2.372,3.233-4.319,3.233c-0.421,0-0.849-0.059-1.274-0.184l0,0c-2.386-0.702-3.751-3.206-3.049-5.592
			l3.555-12.078C384.878,279.516,386.673,278.244,388.619,278.244 M388.619,276.693v1.551V276.693L388.619,276.693
			c-2.666,0-5.053,1.787-5.807,4.346l-3.555,12.078c-0.457,1.551-0.282,3.188,0.492,4.608c0.774,1.42,2.055,2.453,3.606,2.91
			c0.558,0.164,1.134,0.247,1.711,0.247c2.665,0,5.053-1.787,5.806-4.346l3.555-12.078c0.943-3.203-0.896-6.575-4.099-7.517
			C389.772,276.777,389.197,276.693,388.619,276.693L388.619,276.693z"/>
	</g>
	<g>
		<path style="fill:#BE2026;" d="M393.126,262.101c-1.41-0.001-2.735-0.551-3.732-1.549c-0.996-0.998-1.545-2.324-1.544-3.734
			l0.009-12.59c0.002-2.909,2.37-5.275,5.279-5.275c1.414,0.001,2.739,0.551,3.736,1.549c0.996,0.998,1.545,2.324,1.544,3.734
			l-0.009,12.59c-0.002,2.909-2.37,5.275-5.279,5.275H393.126z"/>
		<path style="fill:#221F1F;" d="M393.139,239.728c0.001,0,0.002,0,0.003,0l0,0c2.487,0.002,4.502,2.02,4.501,4.507l-0.009,12.59
			c-0.002,2.486-2.018,4.501-4.504,4.501c-0.001,0-0.002,0-0.003,0c-2.487-0.002-4.502-2.02-4.501-4.507l0.009-12.59
			C388.637,241.742,390.653,239.728,393.139,239.728 M393.143,238.177L393.143,238.177h-0.001h-0.003
			c-3.336,0-6.052,2.714-6.054,6.05l-0.009,12.59c-0.002,3.338,2.712,6.056,6.05,6.059c3.34,0,6.056-2.714,6.059-6.05l0.009-12.59
			C399.196,240.897,396.482,238.18,393.143,238.177L393.143,238.177z"/>
	</g>
	<g>
		<path style="fill:#BE2026;" d="M390.161,223.364c-2.327,0-4.41-1.561-5.064-3.797l-3.538-12.083
			c-0.396-1.353-0.242-2.78,0.435-4.017c0.677-1.237,1.795-2.137,3.148-2.533c0.485-0.142,0.985-0.214,1.485-0.214
			c2.327,0,4.41,1.561,5.065,3.797l3.538,12.083c0.396,1.353,0.242,2.78-0.435,4.017c-0.677,1.237-1.795,2.137-3.148,2.533
			C391.162,223.292,390.662,223.364,390.161,223.364z"/>
		<path style="fill:#221F1F;" d="M386.627,201.496c1.949,0,3.745,1.275,4.32,3.239l3.538,12.083c0.699,2.387-0.67,4.889-3.057,5.588
			l0,0c-0.422,0.124-0.849,0.183-1.268,0.183c-1.949,0-3.745-1.275-4.32-3.239l-3.538-12.083c-0.699-2.387,0.67-4.889,3.057-5.588
			l0,0C385.782,201.555,386.208,201.496,386.627,201.496 M386.627,199.946L386.627,199.946c-0.575,0-1.148,0.083-1.704,0.245
			c-1.552,0.454-2.834,1.486-3.61,2.905c-0.776,1.419-0.953,3.055-0.499,4.607l3.538,12.083c0.751,2.564,3.139,4.354,5.808,4.354
			c0.575,0,1.148-0.082,1.703-0.245c3.204-0.938,5.047-4.308,4.109-7.512l-3.538-12.083
			C391.685,201.736,389.297,199.946,386.627,199.946L386.627,199.946z"/>
	</g>
	<g>
		<path style="fill:#BE2026;" d="M376.409,187.03c-1.809,0-3.472-0.908-4.448-2.429l-6.798-10.597
			c-1.572-2.45-0.857-5.722,1.593-7.294c0.853-0.547,1.837-0.836,2.846-0.836c1.809,0,3.472,0.908,4.448,2.429l6.798,10.597
			c1.572,2.45,0.857,5.722-1.593,7.294C378.402,186.741,377.418,187.03,376.409,187.03z"/>
		<path style="fill:#221F1F;" d="M369.602,166.649c1.483,0,2.935,0.732,3.795,2.072l6.798,10.597
			c1.343,2.094,0.735,4.88-1.359,6.223v0c-0.753,0.483-1.595,0.713-2.427,0.713c-1.483,0-2.935-0.732-3.795-2.072l-6.798-10.597
			c-1.343-2.094-0.735-4.88,1.359-6.223h0C367.928,166.88,368.77,166.649,369.602,166.649 M369.603,165.099v1.551V165.099
			L369.603,165.099c-1.158,0-2.287,0.332-3.265,0.959c-1.361,0.873-2.301,2.224-2.646,3.804s-0.054,3.2,0.819,4.561l6.798,10.597
			c1.119,1.744,3.026,2.786,5.1,2.786c1.158,0,2.287-0.332,3.265-0.959c2.81-1.803,3.629-5.555,1.827-8.365l-6.798-10.597
			C373.584,166.14,371.677,165.099,369.603,165.099L369.603,165.099z"/>
	</g>
	<g>
		<path style="fill:#BE2026;" d="M352.967,156.043c-1.27,0-2.498-0.459-3.458-1.292l-9.507-8.253
			c-1.065-0.924-1.706-2.208-1.806-3.615c-0.099-1.406,0.355-2.768,1.279-3.832c1.003-1.156,2.457-1.818,3.989-1.818
			c1.27,0,2.498,0.459,3.459,1.292l9.507,8.253c1.065,0.924,1.706,2.208,1.806,3.615c0.099,1.406-0.355,2.768-1.279,3.832
			C355.952,155.38,354.499,156.043,352.967,156.043z"/>
		<path style="fill:#221F1F;" d="M343.464,138.007c1.047,0,2.098,0.363,2.95,1.103l9.508,8.253c1.878,1.631,2.079,4.475,0.449,6.353
			l0,0c-0.891,1.026-2.143,1.551-3.403,1.551c-1.047,0-2.098-0.363-2.95-1.103l-9.507-8.253c-1.878-1.631-2.079-4.475-0.449-6.353
			l0,0C340.951,138.532,342.204,138.007,343.464,138.007 M343.464,136.456v1.551V136.456L343.464,136.456
			c-1.757,0-3.424,0.76-4.574,2.086c-2.188,2.521-1.918,6.352,0.603,8.541l9.508,8.253c1.101,0.956,2.51,1.482,3.967,1.482
			c1.756,0,3.423-0.76,4.574-2.086c1.06-1.221,1.581-2.782,1.467-4.395s-0.849-3.085-2.07-4.146l-9.508-8.253
			C346.329,136.983,344.921,136.456,343.464,136.456L343.464,136.456z"/>
	</g>
	<g>
		<path style="fill:#BE2026;" d="M321.752,132.913c-0.76,0-1.499-0.162-2.195-0.48l-11.447-5.241
			c-2.647-1.212-3.814-4.351-2.602-6.997c0.858-1.873,2.743-3.083,4.803-3.083c0.76,0,1.499,0.162,2.195,0.48l11.447,5.241
			c1.282,0.587,2.259,1.638,2.75,2.96c0.491,1.322,0.439,2.756-0.148,4.038C325.697,131.703,323.812,132.913,321.752,132.913z"/>
		<path style="fill:#221F1F;" d="M310.31,117.887c0.627,0,1.264,0.132,1.872,0.41l11.447,5.241c2.262,1.035,3.256,3.708,2.22,5.97
			l0,0c-0.757,1.654-2.39,2.63-4.098,2.63c-0.627,0-1.264-0.132-1.872-0.41l-11.447-5.241c-2.262-1.035-3.256-3.708-2.22-5.97v0
			C306.97,118.863,308.603,117.887,310.31,117.887 M310.31,116.336L310.31,116.336c-2.363,0-4.525,1.388-5.508,3.535
			c-0.673,1.47-0.733,3.115-0.17,4.631c0.564,1.516,1.684,2.721,3.154,3.394l11.447,5.241c0.798,0.365,1.645,0.551,2.518,0.551
			c2.363,0,4.524-1.388,5.508-3.535c0.673-1.47,0.733-3.115,0.17-4.631c-0.564-1.516-1.684-2.721-3.154-3.394l-11.447-5.241
			C312.03,116.521,311.183,116.336,310.31,116.336L310.31,116.336z"/>
	</g>
	<g>
		<path style="fill:#BE2026;" d="M285.294,119.51c-0.253,0-0.51-0.018-0.762-0.055l-12.46-1.804
			c-1.395-0.202-2.629-0.935-3.473-2.065c-0.844-1.13-1.197-2.52-0.995-3.916c0.373-2.579,2.617-4.523,5.219-4.523
			c0.253,0,0.51,0.018,0.762,0.055l12.46,1.804c1.395,0.202,2.629,0.935,3.473,2.065c0.844,1.13,1.197,2.52,0.995,3.916
			C290.139,117.565,287.896,119.51,285.294,119.51z"/>
		<path style="fill:#221F1F;" d="M272.823,107.921c0.215,0,0.432,0.015,0.651,0.047l12.46,1.804
			c2.462,0.356,4.168,2.641,3.812,5.103l0,0c-0.325,2.243-2.25,3.859-4.452,3.859c-0.215,0-0.432-0.015-0.651-0.047l-12.46-1.804
			c-2.462-0.356-4.168-2.641-3.812-5.103v0C268.696,109.538,270.621,107.922,272.823,107.921 M272.823,106.371L272.823,106.371
			c-2.985,0-5.558,2.23-5.986,5.187c-0.478,3.304,1.82,6.381,5.124,6.86l12.46,1.804c0.289,0.042,0.583,0.063,0.873,0.063
			c2.984,0,5.558-2.23,5.986-5.187c0.232-1.6-0.174-3.195-1.141-4.491c-0.968-1.296-2.382-2.137-3.983-2.369l-12.46-1.804
			C273.407,106.392,273.113,106.371,272.823,106.371L272.823,106.371z"/>
	</g>
	<g>
		<path style="fill:#BE2026;" d="M234.054,118.7c-2.607,0-4.852-1.949-5.221-4.534c-0.411-2.882,1.599-5.56,4.481-5.972
			l12.464-1.778c0.249-0.035,0.502-0.054,0.751-0.054c2.607,0,4.852,1.949,5.221,4.534c0.199,1.396-0.157,2.786-1.003,3.914
			c-0.846,1.128-2.081,1.859-3.477,2.058l-12.464,1.778C234.557,118.682,234.304,118.7,234.054,118.7z"/>
		<path style="fill:#221F1F;" d="M246.529,107.138c2.206,0,4.132,1.621,4.453,3.868v0c0.351,2.462-1.36,4.743-3.822,5.095
			l-12.464,1.778c-0.216,0.031-0.43,0.046-0.642,0.046c-2.205,0-4.132-1.621-4.453-3.868v0c-0.351-2.462,1.36-4.743,3.822-5.095
			l12.464-1.778C246.103,107.153,246.317,107.138,246.529,107.138 M246.529,105.587L246.529,105.587
			c-0.286,0-0.576,0.021-0.861,0.061l-12.464,1.778c-1.601,0.228-3.017,1.067-3.988,2.36c-0.971,1.294-1.379,2.888-1.151,4.489
			c0.423,2.964,2.997,5.2,5.988,5.2c0.286,0,0.576-0.021,0.861-0.061l12.464-1.778c1.601-0.228,3.017-1.067,3.988-2.36
			c0.971-1.294,1.379-2.888,1.151-4.489C252.094,107.822,249.52,105.587,246.529,105.587L246.529,105.587z"/>
	</g>
	<g>
		<path style="fill:#BE2026;" d="M197.144,130.575c-2.065,0-3.952-1.214-4.807-3.093c-1.206-2.649-0.032-5.786,2.617-6.992
			l11.458-5.217c0.693-0.316,1.428-0.476,2.185-0.476c2.065,0,3.952,1.214,4.807,3.093c0.584,1.283,0.634,2.717,0.14,4.038
			c-0.494,1.321-1.473,2.37-2.757,2.954l-11.458,5.217C198.635,130.415,197.9,130.575,197.144,130.575z"/>
		<path style="fill:#221F1F;" d="M208.596,115.573c1.711,0,3.346,0.98,4.102,2.639v0c1.031,2.264,0.031,4.934-2.233,5.965
			l-11.458,5.217c-0.605,0.275-1.239,0.406-1.864,0.406c-1.711,0-3.346-0.98-4.102-2.639l0,0c-1.031-2.264-0.031-4.934,2.233-5.965
			l11.458-5.217C207.338,115.703,207.972,115.573,208.596,115.573 M208.597,114.022L208.597,114.022
			c-0.869,0-1.712,0.184-2.506,0.545l-11.458,5.217c-3.038,1.383-4.385,4.981-3.001,8.019c0.981,2.155,3.145,3.547,5.513,3.547
			c0.868,0,1.711-0.183,2.506-0.545l11.458-5.217c1.472-0.67,2.595-1.873,3.161-3.388s0.51-3.159-0.16-4.631
			C213.128,115.414,210.965,114.022,208.597,114.022L208.597,114.022z"/>
	</g>
	<g>
		<path style="fill:#BE2026;" d="M165.064,152.366c-1.536,0-2.992-0.666-3.996-1.827c-1.904-2.202-1.661-5.543,0.542-7.446
			l9.525-8.233c0.959-0.829,2.184-1.285,3.45-1.285c1.536,0,2.992,0.666,3.996,1.827c0.922,1.067,1.374,2.429,1.271,3.835
			c-0.102,1.406-0.746,2.689-1.813,3.611l-9.525,8.233C167.555,151.91,166.33,152.366,165.064,152.366z"/>
		<path style="fill:#221F1F;" d="M174.585,134.35c1.263,0,2.518,0.528,3.409,1.559l0,0c1.627,1.882,1.42,4.726-0.462,6.352
			l-9.525,8.233c-0.851,0.736-1.9,1.097-2.943,1.097c-1.263,0-2.518-0.528-3.409-1.559l0,0c-1.627-1.882-1.42-4.726,0.462-6.352
			l9.525-8.233C172.493,134.711,173.541,134.35,174.585,134.35 M174.585,132.799L174.585,132.799c-1.453,0-2.858,0.524-3.958,1.474
			l-9.525,8.233c-2.526,2.183-2.804,6.014-0.621,8.54c1.151,1.332,2.821,2.095,4.582,2.095c1.452,0,2.858-0.524,3.957-1.474
			l9.525-8.233c1.223-1.058,1.962-2.528,2.079-4.141c0.117-1.613-0.4-3.175-1.458-4.398
			C178.016,133.563,176.346,132.799,174.585,132.799L174.585,132.799z"/>
	</g>
	<g>
		<path style="fill:#BE2026;" d="M140.415,182.312c-1.013,0-2.001-0.291-2.855-0.842c-1.185-0.764-2.002-1.944-2.3-3.322
			c-0.298-1.378-0.041-2.79,0.722-3.975l6.82-10.583c0.977-1.515,2.637-2.42,4.442-2.42c1.013,0,2.001,0.291,2.855,0.842
			c2.447,1.577,3.154,4.85,1.578,7.297l-6.82,10.583C143.881,181.408,142.22,182.312,140.415,182.312z"/>
		<path style="fill:#221F1F;" d="M147.244,161.946c0.836,0,1.681,0.232,2.435,0.719h0c2.091,1.347,2.693,4.135,1.346,6.225
			l-6.82,10.583c-0.861,1.336-2.31,2.065-3.79,2.065c-0.836,0-1.681-0.232-2.435-0.719l0,0c-2.091-1.347-2.693-4.135-1.346-6.225
			l6.82-10.583C144.315,162.674,145.764,161.946,147.244,161.946 M147.244,160.395L147.244,160.395c-2.07,0-3.974,1.038-5.094,2.775
			l-6.82,10.583c-1.808,2.806-0.997,6.56,1.809,8.369c0.98,0.632,2.113,0.966,3.275,0.966c2.069,0,3.973-1.037,5.093-2.775
			l6.82-10.583c1.808-2.806,0.997-6.56-1.809-8.369C149.539,160.729,148.406,160.395,147.244,160.395L147.244,160.395z"/>
	</g>
	<g>
		<path style="fill:#BE2026;" d="M125.212,217.987c-0.505,0-1.008-0.073-1.496-0.217c-1.352-0.399-2.468-1.301-3.143-2.539
			c-0.674-1.238-0.826-2.665-0.426-4.018l3.563-12.075c0.658-2.229,2.739-3.786,5.061-3.786c0.505,0,1.008,0.073,1.496,0.217
			c1.352,0.399,2.468,1.301,3.143,2.539c0.674,1.238,0.826,2.665,0.426,4.018l-3.563,12.075
			C129.616,216.43,127.534,217.987,125.212,217.987z"/>
		<path style="fill:#221F1F;" d="M128.771,196.127c0.422,0,0.851,0.06,1.277,0.185h0c2.386,0.704,3.749,3.209,3.045,5.594
			l-3.563,12.075c-0.578,1.96-2.373,3.23-4.318,3.23c-0.422,0-0.851-0.06-1.277-0.185v0c-2.386-0.704-3.749-3.209-3.045-5.594
			l3.563-12.075C125.032,197.397,126.826,196.127,128.771,196.127 M128.772,194.576v1.551V194.576L128.772,194.576
			c-2.664,0-5.051,1.786-5.805,4.342l-3.563,12.075c-0.458,1.551-0.284,3.188,0.489,4.608c0.773,1.42,2.053,2.455,3.604,2.912
			c0.559,0.165,1.136,0.249,1.715,0.249c2.663,0,5.051-1.786,5.805-4.342l3.563-12.075c0.945-3.202-0.891-6.576-4.093-7.52
			C129.928,194.66,129.35,194.576,128.772,194.576L128.772,194.576z"/>
	</g>
	<g>
		<g>
			<path style="fill:#FFFFFF;" d="M210.373,121.275l-0.916-2.495c7.569-2.78,15.437-4.9,23.387-6.302l0.462,2.618
				C225.51,116.471,217.795,118.55,210.373,121.275z"/>
		</g>
		<g>
			<path style="fill:#221F1F;" d="M210.144,120.652l-0.458-1.248c7.532-2.766,15.362-4.876,23.273-6.271l0.231,1.309
				C225.356,115.823,217.603,117.912,210.144,120.652z"/>
		</g>
		<g>
			<path style="fill:#FFFFFF;" d="M176.53,139.489l-1.582-2.136c6.479-4.799,13.432-9.05,20.665-12.634l1.18,2.382
				C189.7,130.615,182.883,134.783,176.53,139.489z"/>
		</g>
		<g>
			<path style="fill:#221F1F;" d="M176.134,138.955l-0.791-1.068c6.448-4.776,13.367-9.006,20.564-12.573l0.59,1.191
				C189.37,130.037,182.519,134.226,176.134,138.955z"/>
		</g>
		<g>
			<path style="fill:#FFFFFF;" d="M149.187,166.498l-2.12-1.604c4.865-6.43,10.339-12.467,16.269-17.943l1.803,1.953
				C159.325,154.274,153.957,160.193,149.187,166.498z"/>
		</g>
		<g>
			<path style="fill:#221F1F;" d="M148.657,166.097l-1.06-0.802c4.842-6.399,10.289-12.406,16.19-17.856l0.902,0.977
				C158.845,153.812,153.451,159.761,148.657,166.097z"/>
		</g>
		<g>
			<path style="fill:#FFFFFF;" d="M130.558,200.115l-2.486-0.942c2.857-7.54,6.409-14.875,10.557-21.799l2.281,1.366
				C136.843,185.53,133.36,192.722,130.558,200.115z"/>
		</g>
		<g>
			<path style="fill:#221F1F;" d="M129.937,199.88l-1.243-0.471c2.843-7.504,6.378-14.802,10.505-21.693l1.14,0.683
				C136.252,185.222,132.752,192.449,129.937,199.88z"/>
		</g>
		<g>
			<path style="fill:#FFFFFF;" d="M122.153,237.618l-2.65-0.204c0.618-8.039,1.96-16.077,3.989-23.89l2.573,0.668
				C124.075,221.854,122.759,229.735,122.153,237.618z"/>
		</g>
		<g>
			<path style="fill:#221F1F;" d="M121.491,237.567l-1.325-0.102c0.614-8,1.95-15.999,3.969-23.774l1.287,0.334
				C123.422,221.725,122.099,229.645,121.491,237.567z"/>
		</g>
		<g>
			<path style="fill:#FFFFFF;" d="M122.051,276.521c-1.672-7.888-2.648-15.978-2.902-24.046l2.657-0.083
				c0.249,7.911,1.206,15.845,2.845,23.579L122.051,276.521z"/>
		</g>
		<g>
			<path style="fill:#221F1F;" d="M122.702,276.384c-1.664-7.849-2.635-15.9-2.888-23.929l1.328-0.042
				c0.25,7.951,1.212,15.923,2.859,23.696L122.702,276.384z"/>
		</g>
		<g>
			<path style="fill:#FFFFFF;" d="M135.512,313.327c-3.826-7.097-7.041-14.585-9.558-22.255l2.526-0.829
				c2.467,7.521,5.62,14.863,9.372,21.823L135.512,313.327z"/>
		</g>
		<g>
			<path style="fill:#221F1F;" d="M136.097,313.012c-3.807-7.063-7.007-14.514-9.511-22.147l1.263-0.414
				c2.479,7.559,5.648,14.937,9.418,21.931L136.097,313.012z"/>
		</g>
		<g>
			<path style="fill:#FFFFFF;" d="M158.795,344.851c-5.67-5.733-10.865-12.011-15.439-18.662l2.19-1.507
				c4.486,6.522,9.579,12.679,15.139,18.299L158.795,344.851z"/>
		</g>
		<g>
			<path style="fill:#221F1F;" d="M159.268,344.383c-5.643-5.704-10.812-11.953-15.364-18.571l1.095-0.753
				c4.508,6.554,9.627,12.741,15.214,18.39L159.268,344.383z"/>
		</g>
		<g>
			<path style="fill:#FFFFFF;" d="M190.015,368.54c-7.055-3.903-13.807-8.464-20.071-13.558l1.677-2.063
				c6.142,4.995,12.763,9.467,19.68,13.294L190.015,368.54z"/>
		</g>
		<g>
			<path style="fill:#221F1F;" d="M190.337,367.959c-7.02-3.884-13.74-8.423-19.973-13.492l0.839-1.031
				c6.172,5.019,12.827,9.514,19.778,13.36L190.337,367.959z"/>
		</g>
		<g>
			<path style="fill:#FFFFFF;" d="M226.643,382.477c-7.87-1.758-15.634-4.233-23.077-7.356l1.028-2.451
				c7.298,3.062,14.912,5.489,22.628,7.213L226.643,382.477z"/>
		</g>
		<g>
			<path style="fill:#221F1F;" d="M226.788,381.828c-7.832-1.749-15.558-4.212-22.965-7.32l0.514-1.226
				c7.334,3.077,14.985,5.516,22.74,7.248L226.788,381.828z"/>
		</g>
		<g>
			<path style="fill:#FFFFFF;" d="M256.759,385.825c-5.099,0-10.204-0.284-15.26-0.851l0.296-2.642
				c7.865,0.883,15.854,1.067,23.744,0.547l0.175,2.653C262.739,385.728,259.75,385.825,256.759,385.825z"/>
		</g>
		<g>
			<path style="fill:#221F1F;" d="M256.759,385.161c-5.074,0-10.155-0.283-15.186-0.847l0.148-1.321
				c7.904,0.887,15.933,1.072,23.861,0.55l0.087,1.326C262.71,385.064,259.735,385.161,256.759,385.161z"/>
		</g>
		<g>
			<path style="fill:#FFFFFF;" d="M280.672,383.744l-0.46-2.618c7.797-1.369,15.514-3.443,22.936-6.164l0.915,2.496
				C296.493,380.232,288.623,382.347,280.672,383.744z"/>
		</g>
		<g>
			<path style="fill:#221F1F;" d="M280.557,383.089l-0.23-1.309c7.835-1.376,15.59-3.46,23.05-6.194l0.457,1.248
				C296.301,379.595,288.469,381.7,280.557,383.089z"/>
		</g>
		<g>
			<path style="fill:#FFFFFF;" d="M317.911,371.529l-1.179-2.383c7.095-3.51,13.915-7.673,20.272-12.374l1.581,2.137
				C332.102,363.704,325.147,367.95,317.911,371.529z"/>
		</g>
		<g>
			<path style="fill:#221F1F;" d="M317.617,370.934l-0.589-1.192c7.13-3.527,13.984-7.711,20.372-12.435l0.79,1.069
				C331.739,363.147,324.817,367.372,317.617,370.934z"/>
		</g>
		<g>
			<path style="fill:#FFFFFF;" d="M350.203,349.32l-1.802-1.954c5.819-5.366,11.191-11.282,15.965-17.583l2.119,1.605
				C361.616,337.814,356.138,343.847,350.203,349.32z"/>
		</g>
		<g>
			<path style="fill:#221F1F;" d="M349.753,348.831l-0.901-0.977c5.848-5.393,11.246-11.338,16.044-17.67l1.06,0.803
				C361.11,337.381,355.659,343.385,349.753,348.831z"/>
		</g>
		<g>
			<path style="fill:#FFFFFF;" d="M374.932,318.914l-2.28-1.368c4.072-6.788,7.56-13.977,10.366-21.368l2.485,0.944
				C382.641,304.66,379.084,311.992,374.932,318.914z"/>
		</g>
		<g>
			<path style="fill:#221F1F;" d="M374.362,318.572l-1.14-0.684c4.092-6.822,7.597-14.046,10.417-21.474l1.243,0.472
				C382.034,304.387,378.494,311.684,374.362,318.572z"/>
		</g>
		<g>
			<path style="fill:#FFFFFF;" d="M390.094,282.774l-2.573-0.67c1.995-7.66,3.317-15.541,3.928-23.423l2.65,0.205
				C393.477,266.925,392.129,274.962,390.094,282.774z"/>
		</g>
		<g>
			<path style="fill:#221F1F;" d="M389.451,282.607l-1.286-0.335c2.005-7.698,3.333-15.618,3.947-23.539l1.325,0.103
				C392.817,266.835,391.476,274.832,389.451,282.607z"/>
		</g>
		<g>
			<path style="fill:#FFFFFF;" d="M391.806,243.908c-0.243-7.913-1.195-15.846-2.829-23.581l2.601-0.549
				c1.666,7.888,2.637,15.979,2.885,24.048L391.806,243.908z"/>
		</g>
		<g>
			<path style="fill:#221F1F;" d="M392.471,243.888c-0.244-7.952-1.201-15.925-2.843-23.698l1.301-0.275
				c1.658,7.85,2.624,15.901,2.871,23.932L392.471,243.888z"/>
		</g>
		<g>
			<path style="fill:#FFFFFF;" d="M385.159,206.052c-2.462-7.523-5.61-14.867-9.357-21.829l2.341-1.26
				c3.821,7.1,7.032,14.59,9.542,22.262L385.159,206.052z"/>
		</g>
		<g>
			<path style="fill:#221F1F;" d="M385.79,205.845c-2.474-7.56-5.638-14.941-9.403-21.937l1.17-0.63
				c3.803,7.066,6.997,14.52,9.496,22.154L385.79,205.845z"/>
		</g>
		<g>
			<path style="fill:#FFFFFF;" d="M368.117,171.601c-4.481-6.525-9.57-12.685-15.126-18.31l1.891-1.868
				c5.666,5.736,10.856,12.019,15.426,18.673L368.117,171.601z"/>
		</g>
		<g>
			<path style="fill:#221F1F;" d="M368.665,171.225c-4.503-6.557-9.617-12.748-15.201-18.401l0.946-0.934
				c5.639,5.709,10.803,11.961,15.351,18.582L368.665,171.225z"/>
		</g>
		<g>
			<path style="fill:#FFFFFF;" d="M342.062,143.345c-6.137-4.998-12.755-9.476-19.671-13.308l1.288-2.325
				c7.053,3.908,13.802,8.475,20.061,13.572L342.062,143.345z"/>
		</g>
		<g>
			<path style="fill:#221F1F;" d="M342.482,142.829c-6.168-5.023-12.819-9.523-19.769-13.374l0.644-1.163
				c7.019,3.889,13.735,8.433,19.964,13.506L342.482,142.829z"/>
		</g>
		<g>
			<path style="fill:#FFFFFF;" d="M309.103,123.572c-7.296-3.067-14.908-5.499-22.623-7.228l0.581-2.594
				c7.868,1.764,15.631,4.244,23.072,7.372L309.103,123.572z"/>
		</g>
		<g>
			<path style="fill:#221F1F;" d="M309.36,122.959c-7.332-3.082-14.982-5.526-22.735-7.264l0.291-1.297
				c7.83,1.755,15.555,4.223,22.96,7.336L309.36,122.959z"/>
		</g>
		<g>
			<path style="fill:#FFFFFF;" d="M271.908,113.883c-7.866-0.888-15.854-1.077-23.743-0.563l-0.173-2.653
				c8.045-0.524,16.192-0.331,24.214,0.574L271.908,113.883z"/>
		</g>
		<g>
			<path style="fill:#221F1F;" d="M271.983,113.223c-7.905-0.892-15.932-1.083-23.861-0.566l-0.086-1.326
				c8.006-0.521,16.113-0.329,24.096,0.572L271.983,113.223z"/>
		</g>
	</g>
	<g>
		<path style="fill:#221F1F;" d="M79.069,283.608c-0.035-0.18-3.558-18.041-5.499-23.849c-1.943-5.814-6.633-28.443-6.681-28.671
			l0.107-0.029c0.033,0.099,3.377,10.062,6.582,22.201c3.204,12.138,5.576,22.41,5.599,22.512l0.001,7.825L79.069,283.608z
			 M67.197,232.018c0.917,4.382,4.767,22.584,6.479,27.706c1.749,5.234,4.779,20.237,5.392,23.31v-7.249
			c-0.022-0.09-2.393-10.36-5.597-22.496C70.83,243.286,68.095,234.761,67.197,232.018z"/>
	</g>
	<path style="fill:#13120D;" d="M261.874,452.418c0,0,7.367,15.912,55.986,28.582c0,0-10.53-18.858-33.037-35.212
		c0,0,18.893,6.188,31.269,15.323s21.805,11.787,24.089,5.451c0,0,0.262-4.125-1.232-6.63s-1.052-6.798,1.232-9.44
		c2.284-2.642,0.663-11.699-1.694-16.158l-10.608,3.645c0,0-31.168-0.072-40.222-3.645c0,0,58.849,5.795,88.427-25.054l-7.1-0.915
		c0,0,25.194-6.137,48.619-35.187c0,0-9.577,4.692-17.238,4.322c0,0,18.711-4.79,28.73-20.259
		c10.019-15.47,6.335-20.921,15.028-27.698l-3.536,1.031c0,0,20.921-21.416,21.216-78.407c0,0-6.58,9.138-13.996,16.086
		c0,0,11.787-18.22,12.523-37.177c0.737-18.957-8.398-35.163-8.251-45.034c0,0-8.398,12.081-10.903,19.595
		c0,0,2.947-13.555,2.799-25.93c-0.147-12.376-4.273-26.814-17.974-41.695c0,0-8.496-8.251-8.742-14.291
		c0,0-2.898,3.841-2.456,7.514c0,0-2.299-10.903-12.936-22.836c-10.637-11.934-26.991-24.31-36.125-29.024
		c0,0,3.389,6.483,3.536,9.724c0,0-0.737-0.147-4.567-5.746s-18.82-13.407-54.18-21.51c0,0-19.448,10.157-17.827,4.42
		c0,0-1.871-26.225-32.663-20.774l-3.351,43.168l8.278-4.788l5.304,1.768l-9.577,4.052c0,0,14.954,6.262,24.825,9.871
		s18.273,7.367,39.929,8.472c0,0-3.906,1.473-7.295,1.473c0,0,27.919,18.507,57.017,29.585c0,0-8.76-0.414-12.189,0.47
		c0,0,6.295,1.031,11.82,9.724c5.525,8.693,19.079,28.509,31.897,38.969c0,0-7.882-4.42-11.124-5.451c0,0,4.936,5.157,7.146,14.807
		c2.21,9.65,8.766,31.279,14.07,39.765c0,0-5.009-6.173-6.851-7.647c0,0,2.717,4.494,1.69,14.807
		c-1.027,10.313-3.973,37.275-1.395,48.546c0,0-2.873-6.483-3.536-8.177c0,0-0.387,7.514-2.035,10.829
		c-1.648,3.315-10.807,17.532-11.863,34.77c0,0-0.761-6.777-1.719-8.545c0,0-1.473,8.398-8.03,13.997
		c-6.556,5.599-15.26,17.662-18.858,25.709c0,0-0.221-2.578-0.221-5.23c0,0-1.694,5.451-8.324,8.693
		c-6.63,3.241-24.383,14.586-28.877,24.899c0,0,0.074-5.641-0.516-6.872c0,0-15.416,4.588-30.102,28.53
		c0,0,7.708-13.334-7.836-19.227l-1.488-1.169c0,0-18.918,6.694-31.736,5.958v2.382v11.59h1.807c0,0,8.654-2.406,12.779,1.424
		c0,0,0.663,2.284-2.947,5.599c0,0-7.809-0.821-8.103-1.074c-0.295-0.252-3.536-0.768-3.536-0.768v35.11L261.874,452.418z"/>
	<path style="fill:#13120D;" d="M242.317,412.638c0,0,4.42-3.241,8.742-1.228c4.322,2.014,10.608-0.295,10.608-0.295
		s4.785-0.491,8.016,1.522c0,0,0.158-3.29,0-3.634s-11.208-2.357-11.208-2.357h-7.317l-5.402,0.491l-2.161,2.143l-1.277,1.442
		V412.638z"/>
	<path style="fill:#020303;" d="M300.955,52.118l4.936,8.693l-17.901-9.282c3.536-3.315,6.409-8.619,6.409-8.619
		c-23.647-8.177-44.273-3.462-44.273-3.462c-30.792-5.451-56.575,1.326-56.575,1.326c1.621,5.737,7.809,12.376,7.809,12.376
		c-35.36,8.103-50.24,24.604-54.071,30.203c-3.831,5.599-4.567,5.746-4.567,5.746c0.147-3.241,3.536-9.724,3.536-9.724
		c-9.135,4.715-25.488,17.09-36.125,29.024c-10.637,11.934-12.936,22.836-12.936,22.836c0.442-3.673-2.456-7.514-2.456-7.514
		c-0.246,6.041-8.742,14.291-8.742,14.291c-13.702,14.88-17.827,29.319-17.974,41.695c-0.147,12.376,2.799,25.93,2.799,25.93
		c-2.505-7.514-10.903-19.595-10.903-19.595c0.147,9.871-8.987,26.078-8.251,45.034c0.737,18.957,12.523,37.177,12.523,37.177
		c-7.417-6.948-13.997-16.086-13.997-16.086c0.295,56.991,21.216,78.407,21.216,78.407l-3.536-1.031
		c8.693,6.777,5.009,12.229,15.028,27.698s28.73,20.259,28.73,20.259c-7.661,0.37-17.238-4.322-17.238-4.322
		c23.426,29.05,48.619,35.187,48.619,35.187l-7.1,0.915c29.578,30.849,88.427,25.054,88.427,25.054
		c-9.053,3.573-40.222,3.645-40.222,3.645l-10.608-3.645c-2.357,4.458-3.978,13.516-1.694,16.158s2.726,6.935,1.232,9.44
		c-1.494,2.505-1.232,6.63-1.232,6.63c2.284,6.335,11.713,3.683,24.089-5.451c12.376-9.135,31.269-15.322,31.269-15.322
		C204.67,462.142,194.14,481,194.14,481c48.619-12.671,55.986-28.582,55.986-28.582l6.777-0.912v-35.11c0,0-3.241,0.516-3.536,0.768
		c-0.295,0.252-8.103,1.074-8.103,1.074c-3.61-3.315-2.947-5.599-2.947-5.599c4.125-3.831,13.657-2.91,13.657-2.91l0.929,1.486
		v-11.59v-2.382c-12.818,0.737-31.736-5.958-31.736-5.958l-1.488,1.169c-15.543,5.893-7.836,19.227-7.836,19.227
		c-14.686-23.941-30.102-28.53-30.102-28.53c-0.589,1.231-0.516,6.872-0.516,6.872c-4.494-10.313-22.247-21.658-28.877-24.899
		c-6.63-3.241-8.324-8.693-8.324-8.693c0,2.652-0.221,5.23-0.221,5.23c-3.598-8.047-12.302-20.111-18.858-25.709
		c-6.556-5.599-8.03-13.996-8.03-13.996c-0.958,1.768-1.719,8.545-1.719,8.545c-1.056-17.238-10.215-31.455-11.863-34.77
		s-2.035-10.829-2.035-10.829c-0.663,1.694-3.536,8.177-3.536,8.177c2.578-11.271-0.368-38.233-1.395-48.546
		c-1.027-10.313,1.69-14.807,1.69-14.807c-1.842,1.473-6.851,7.647-6.851,7.647c5.304-8.486,11.86-30.115,14.07-39.765
		c2.21-9.65,7.146-14.807,7.146-14.807c-3.241,1.031-11.124,5.451-11.124,5.451c12.818-10.461,26.372-30.277,31.897-38.969
		c5.525-8.693,11.82-9.724,11.82-9.724c-3.429-0.884-12.189-0.47-12.189-0.47c29.098-11.078,57.017-29.585,57.017-29.585
		c-3.389,0-7.295-1.473-7.295-1.473c21.656-1.105,30.057-4.862,39.929-8.472c9.871-3.61,24.825-9.871,24.825-9.871l-9.577-4.052
		l5.304-1.768l9.503,3.757l-1.225,1.031c0,0,9.697,2.431,22.073,8.398c12.376,5.967,33.15,10.166,33.15,10.166l-1.346-25.046
		l-0.706-4.578l4.41,1.336l41.695,9.135l14.695,1.031C369.279,89.098,355.548,60.287,300.955,52.118z"/>
	<g>
		<path style="fill:#5D9942;" d="M370.899,87.403c0,0,0,0,3.831,15.691c3.831,15.691,12.818,29.245,22.1,38.896
			s14.733,12.523,14.733,12.523c1.621-22.394-3.094-28.14-3.094-28.14C394.399,98.38,370.899,87.403,370.899,87.403z
			 M387.008,117.751c10.474,8.479,18.269,21.783,20.037,26.203s4.187,7.023,4.187,7.023l-0.221,0.479
			c-1.584-1.326-5.734-6.323-7.011-9.662c-1.277-3.34-6.777-11.885-10.411-15.519C389.954,122.64,387.008,117.751,387.008,117.751z"
			/>
		<path style="fill:#5D9942;" d="M350.273,110.756c6.679,0.295,25.046,2.848,25.046,2.848l13.653,27.207c0,0-5.255-5.82-8.864-8.545
			c-3.61-2.726-10.829-13.407-28.951-12.229c0,0,14.979,2.382,18.76,6.642c0,0,14.586,10.448,19.055,14.132
			c0,0-11.099-4.125-29.859-11.295c-18.76-7.17-34.181-18.367-34.181-18.367S343.594,110.461,350.273,110.756z"/>
		<path style="fill:#5D9942;" d="M369.917,140.811c0,0,18.564-0.982,41.548,23.868c0,0,1.768,8.938,2.161,11.885
			c0,0-14.34-8.742-20.332-15.617l-1.031-0.688c0,0,3.094,7.416,21.903,18.515l8.054,17.14c0,0-17.046-9.969-30.819-25.979
			C377.628,153.924,377.775,145.771,369.917,140.811z"/>
		<path style="fill:#5D9942;" d="M416.769,129.123c0,0,5.402,11.348,10.804,17.215c5.402,5.867,19.448,24.725,8.84,68.434
			l-0.491-0.863c0,0,0.786-2.083-0.098-4.637c-0.884-2.554-1.444-16.698-7.303-30.35c0,0,0.035,2.259,1.115,5.107
			c1.08,2.848,5.009,20.135,5.402,27.797c0,0-7.17-9.724-12.818-21.51s-8.496-17.974-8.496-37.422
			C413.724,152.892,413.626,137.766,416.769,129.123z"/>
		<path style="fill:#5D9942;" d="M450.066,193.556c0,0-0.098,6.974,2.652,13.653s8.251,23.913,0,44.959
			s-20.626,33.324-20.626,33.324s0.491-6.974,0-13.751c-0.491-6.777-3.634-15.912-4.322-17.778c0,0,2.259-11.492,5.402-19.644
			C436.315,226.165,446.726,198.074,450.066,193.556z"/>
		<path style="fill:#5D9942;" d="M400.071,186.877c0,0,24.359,12.867,34.377,35.752l-3.831,12.769c0,0-7.858-17.974-15.322-22.002
			c0,0,12.769,17.798,14.831,23.976l-2.357,12.955c0,0-6.188-6.875-13.456-22.591S404.295,193.065,400.071,186.877z"/>
		<path style="fill:#5D9942;" d="M412.84,237.373c0,0,9.527,10.107,14.242,24.349c4.715,14.242,2.75,25.538,0,30.056
			s-5.893,19.546-7.465,22.296c0,0-6.974-9.877-7.759-30.476s0.688-29.733,1.277-33.269
			C413.724,246.792,413.822,239.642,412.84,237.373z"/>
		<path style="fill:#5D9942;" d="M421.68,304.742l-1.375,3.143c0,0,0.165-6.384,0.475-14.635c0.31-8.251-1.261-18.171-1.458-21.216
			c-0.196-3.045,0-6.974,0-6.974s1.147-0.589,1.458,5.402c0.31,5.992,1.489,16.149,1.194,19.615
			C421.68,293.545,420.698,302.483,421.68,304.742z"/>
		<path style="fill:#5D9942;" d="M457.075,262.016c0,0-1.706,23.573-8.483,40.958c-6.777,17.385-12.769,27.207-21.51,31.333
			c0,0-6.461,4.322-7.847,5.402c0,0,2.052-3.241,5.489-7.661s11.492-15.519,14.831-33.002c0,0-1.964,4.027-4.027,9.92
			c-2.063,5.893-6.363,14.439-16.294,29.368c0,0,0.382-15.831,2.346-26.397c1.964-10.565,8.349-19.865,18.171-29.786
			C449.575,272.231,454.655,265.159,457.075,262.016z"/>
		<path style="fill:#5D9942;" d="M406.848,291.089c0,0,7.268,16.206,8.938,29.957c1.67,13.751,0,20.61,0,20.61l-20.234,14.947
			c0,0,4.027-6.384,5.893-9.626c1.866-3.241,4.224-7.367,6.09-20.234c0,0,0.982-6.286,0.098-10.411c0,0-0.393-1.179-1.179,5.697
			c-0.786,6.875-3.831,20.528-7.367,25.636c-3.536,5.107-4.911,10.215-4.911,10.215l-1.375,0.786c0,0,0.688-6.09,0.982-9.036
			c0.295-2.947,1.08-17.189,2.456-24.162c1.375-6.974,3.929-15.715,6.679-20.626C405.67,299.929,407.536,294.429,406.848,291.089z"
			/>
		<path style="fill:#5D9942;" d="M389.954,328.806c0,0,2.161,5.5-0.884,21.805s-11.688,25.636-11.688,25.636
			s-3.455,3.241-13.907,4.714c0,0,13.514-14.242,16.952-27.207c0,0-2.255,1.494-5.402,9.135
			c-3.147,7.64-10.019,15.574-13.555,16.971c0,0,0.491-1.452,0.786-3.023c0.295-1.572,3.143-15.519,7.956-22.493
			c4.813-6.974,6.09-9.626,10.706-13.947S389.267,331.065,389.954,328.806z"/>
		<path style="fill:#5D9942;" d="M361.47,362.889c0,0-0.368,12.769-7.219,22.787s-15.543,18.564-21.289,22.1
			c0,0-5.893,0-11.86,2.873c0,0,10.166-6.654,20.184-23.88c0,0-1.4,0.012-5.23,6.127s-13.334,15.102-17.164,17.459
			c0,0,0.442-1.547,3.315-6.704s2.652-11.56,17.606-23.791C354.767,367.628,355.209,370.894,361.47,362.889z"/>
		<path style="fill:#5D9942;" d="M439.556,331.9c0,0-3.389,1.989-6.335,9.429s-11.86,31.013-45.452,35.433
			c0,0,2.873-2.431,5.82-4.273c2.947-1.842,19.396-11.787,25.647-22.173c0,0-2.81,1.768-6.273,5.82
			c-3.462,4.052-23.147,17.311-30.543,20.626c0,0,2.034-2.873,5.496-7.072c3.462-4.199,6.335-9.454,7.956-11.025
			c1.621-1.572,8.03-9.316,22.763-17.009C433.368,333.963,439.556,331.9,439.556,331.9z"/>
		<path style="fill:#5D9942;" d="M387.769,376.763c0,0-3.462,0.773-5.672,0.737l0.323-0.737l5.891-0.447L387.769,376.763z"/>
		<path style="fill:#5D9942;" d="M410.988,376.316c0,0-25.429,29.987-68.671,29.618c0,0,31.161-9.061,47.072-22.394
			c0,0-9.135,4.787-13.702,7.587c-4.567,2.8-26.02,11.935-31.382,12.008c0,0,2.431-2.873,4.42-4.567
			c1.989-1.694,6.483-9.135,7.219-10.755c0.737-1.621,3.61-4.788,17.017-5.746C386.369,381.109,402.752,380.879,410.988,376.316z"/>
		<path style="fill:#5D9942;" d="M369.794,410.649c0,0-11.418-1.842-19.521-1.252s-24.015-0.295-34.107,4.788
			c0,0-1.768,1.694-4.42,4.125c-2.652,2.431-14.66,9.577-24.089,11.05l2.284,0.516l2.21-1.179c0,0,24.752-2.21,52.008-11.492
			c0,0-7.072,4.125-20.847,7.367c-13.776,3.241-29.098,5.304-29.098,5.304S336.571,434.37,369.794,410.649z"/>
		<path style="fill:#5D9942;" d="M323.017,388.034c0,0,0.442,14.439-11.492,26.888s-36.17,16.501-36.17,16.501l-0.442-2.063
			c0,0,6.704-1.842,9.429-2.578c2.726-0.737,9.091-0.81,23.146-17.054c0,0-8.855,11.013-19.168,14.549
			c-10.313,3.536-13.407,4.273-13.407,4.273s-0.663-0.295,4.788-2.505c5.451-2.21,16.206-7.581,23.057-20.107
			C309.609,393.411,323.017,388.034,323.017,388.034z"/>
		<path style="fill:#5D9942;" d="M274.887,432.675c0,0,14.538,6.777,40.763,7.219c0,0,9.282,0.442,11.787,0s9.871-2.652,9.871-2.652
			s2.505,6.256,1.326,11.379s-4.42,3.207-1.473,11.752s-3.978,10.755-12.081,3.831s-30.401-19.742-50.192-24.31l-0.785-3.683
			L274.887,432.675z"/>
		<path style="fill:#5D9942;" d="M274.103,442.694c0,0,22.984,10.903,38.306,34.476c0,0-35.949-8.84-48.177-24.899v-7.809
			L274.103,442.694z"/>
		<path style="fill:#5D9942;" d="M305.852,57.127c0,0,20.774,33.96,42.211,49.651l26.225,1.621l-8.545-19.595
			c0,0-22.247-28.73-59.08-32.855v0.81L305.852,57.127z M338.437,86.151c9.626,1.719,26.962,14.635,31.087,17.876
			c4.125,3.241,3.438,3.34,3.438,3.34c-0.816,0.139-1.719-0.688-1.719-0.688c-5.304-4.371-25.341-16.943-29.27-18.515
			C338.044,86.593,338.437,86.151,338.437,86.151z"/>
	</g>
	<g>
		<path style="fill:#5D9942;" d="M103.531,126.373c0,0-4.715,5.746-3.094,28.14c0,0,5.451-2.873,14.733-12.523
			c9.282-9.65,18.269-23.205,22.1-38.896c3.831-15.691,3.831-15.691,3.831-15.691S117.601,98.38,103.531,126.373z M118.412,126.274
			c-3.634,3.634-9.135,12.179-10.411,15.519c-1.277,3.34-5.427,8.337-7.011,9.662l-0.221-0.479c0,0,2.419-2.603,4.187-7.023
			c1.768-4.42,9.563-17.724,20.037-26.203C124.992,117.751,122.046,122.64,118.412,126.274z"/>
		<path style="fill:#5D9942;" d="M161.727,110.756c-6.679,0.295-25.046,2.848-25.046,2.848l-13.653,27.207
			c0,0,5.255-5.82,8.864-8.545c3.61-2.726,10.829-13.407,28.951-12.229c0,0-14.979,2.382-18.76,6.642
			c0,0-14.586,10.448-19.055,14.132c0,0,11.099-4.125,29.859-11.295c18.76-7.17,34.181-18.367,34.181-18.367
			S168.406,110.461,161.727,110.756z"/>
		<path style="fill:#5D9942;" d="M142.083,140.811c0,0-18.564-0.982-41.548,23.868c0,0-1.768,8.938-2.161,11.885
			c0,0,14.34-8.742,20.332-15.617l1.031-0.688c0,0-3.094,7.416-21.903,18.515l-8.054,17.14c0,0,17.046-9.969,30.819-25.979
			S134.225,145.771,142.083,140.811z"/>
		<path style="fill:#5D9942;" d="M95.231,129.123c0,0-5.402,11.348-10.804,17.215c-5.402,5.867-19.448,24.725-8.84,68.434
			l0.491-0.863c0,0-0.786-2.083,0.098-4.637c0.884-2.554,1.444-16.698,7.303-30.35c0,0-0.035,2.259-1.115,5.107
			c-1.08,2.848-5.009,20.135-5.402,27.797c0,0,7.17-9.724,12.818-21.51s8.496-17.974,8.496-37.422
			C98.276,152.892,98.374,137.766,95.231,129.123z"/>
		<path style="fill:#5D9942;" d="M61.934,193.556c0,0,0.098,6.974-2.652,13.653s-8.251,23.913,0,44.959s20.626,33.324,20.626,33.324
			s-0.491-6.974,0-13.751c0.491-6.777,3.634-15.912,4.322-17.778c0,0-2.259-11.492-5.402-19.644S65.274,198.074,61.934,193.556z"/>
		<path style="fill:#5D9942;" d="M111.929,186.877c0,0-24.359,12.867-34.377,35.752l3.831,12.769c0,0,7.858-17.974,15.322-22.002
			c0,0-12.769,17.798-14.831,23.976l2.357,12.955c0,0,6.188-6.875,13.456-22.591S107.705,193.065,111.929,186.877z"/>
		<path style="fill:#5D9942;" d="M99.16,237.373c0,0-9.527,10.107-14.242,24.349c-4.715,14.242-2.75,25.538,0,30.056
			s5.893,19.546,7.465,22.296c0,0,6.974-9.877,7.759-30.476s-0.688-29.733-1.277-33.269
			C98.276,246.792,98.178,239.642,99.16,237.373z"/>
		<path style="fill:#5D9942;" d="M90.32,304.742l1.375,3.143c0,0-0.165-6.384-0.475-14.635c-0.31-8.251,1.261-18.171,1.458-21.216
			c0.196-3.045,0-6.974,0-6.974s-1.147-0.589-1.458,5.402c-0.31,5.992-1.489,16.149-1.194,19.615S91.302,302.483,90.32,304.742z"/>
		<path style="fill:#5D9942;" d="M54.925,262.016c0,0,1.706,23.573,8.483,40.958s12.769,27.207,21.51,31.333
			c0,0,6.461,4.322,7.847,5.402c0,0-2.052-3.241-5.489-7.661c-3.438-4.42-11.492-15.519-14.831-33.002c0,0,1.964,4.027,4.027,9.92
			c2.063,5.893,6.363,14.439,16.294,29.368c0,0-0.382-15.831-2.346-26.397c-1.964-10.565-8.349-19.865-18.171-29.786
			C62.425,272.231,57.345,265.159,54.925,262.016z"/>
		<path style="fill:#5D9942;" d="M105.152,291.089c0,0-7.268,16.206-8.938,29.957c-1.67,13.751,0,20.61,0,20.61l20.234,14.947
			c0,0-4.027-6.384-5.893-9.626s-4.224-7.367-6.09-20.234c0,0-0.982-6.286-0.098-10.411c0,0,0.393-1.179,1.179,5.697
			c0.786,6.875,3.831,20.528,7.367,25.636c3.536,5.107,4.911,10.215,4.911,10.215l1.375,0.786c0,0-0.688-6.09-0.982-9.036
			s-1.08-17.189-2.456-24.162c-1.375-6.974-3.929-15.715-6.679-20.626C106.33,299.929,104.464,294.429,105.152,291.089z"/>
		<path style="fill:#5D9942;" d="M122.046,328.806c0,0-2.161,5.5,0.884,21.805c3.045,16.305,11.688,25.636,11.688,25.636
			s3.455,3.241,13.907,4.714c0,0-13.514-14.242-16.952-27.207c0,0,2.255,1.494,5.402,9.135c3.147,7.64,10.019,15.574,13.555,16.971
			c0,0-0.491-1.452-0.786-3.023s-3.143-15.519-7.956-22.493c-4.813-6.974-6.09-9.626-10.706-13.947S122.733,331.065,122.046,328.806
			z"/>
		<path style="fill:#5D9942;" d="M150.53,362.889c0,0,0.368,12.769,7.219,22.787s15.543,18.564,21.289,22.1c0,0,5.893,0,11.86,2.873
			c0,0-10.166-6.654-20.184-23.88c0,0,1.4,0.012,5.23,6.127s13.334,15.102,17.164,17.459c0,0-0.442-1.547-3.315-6.704
			c-2.873-5.157-2.652-11.56-17.606-23.791C157.233,367.628,156.791,370.894,150.53,362.889z"/>
		<path style="fill:#5D9942;" d="M72.444,331.9c0,0,3.389,1.989,6.335,9.429s11.86,31.013,45.452,35.433c0,0-2.873-2.431-5.82-4.273
			s-19.396-11.787-25.647-22.173c0,0,2.81,1.768,6.273,5.82c3.462,4.052,23.147,17.311,30.543,20.626c0,0-2.034-2.873-5.496-7.072
			c-3.462-4.199-6.335-9.454-7.956-11.025c-1.621-1.572-8.03-9.316-22.763-17.009C78.632,333.963,72.444,331.9,72.444,331.9z"/>
		<path style="fill:#5D9942;" d="M124.231,376.763c0,0,3.462,0.773,5.672,0.737l-0.323-0.737l-5.891-0.447L124.231,376.763z"/>
		<path style="fill:#5D9942;" d="M101.012,376.316c0,0,25.429,29.987,68.671,29.618c0,0-31.161-9.061-47.072-22.394
			c0,0,9.135,4.787,13.702,7.587c4.567,2.8,26.02,11.935,31.382,12.008c0,0-2.431-2.873-4.42-4.567
			c-1.989-1.694-6.483-9.135-7.219-10.755c-0.737-1.621-3.61-4.788-17.017-5.746C125.631,381.109,109.248,380.879,101.012,376.316z"
			/>
		<path style="fill:#5D9942;" d="M142.206,410.649c0,0,11.418-1.842,19.521-1.252s24.015-0.295,34.107,4.788
			c0,0,1.768,1.694,4.42,4.125c2.652,2.431,14.66,9.577,24.089,11.05l-2.284,0.516l-2.21-1.179c0,0-24.752-2.21-52.008-11.492
			c0,0,7.072,4.125,20.847,7.367c13.776,3.241,29.098,5.304,29.098,5.304S175.429,434.37,142.206,410.649z"/>
		<path style="fill:#5D9942;" d="M188.983,388.034c0,0-0.442,14.439,11.492,26.888s36.17,16.501,36.17,16.501l0.442-2.063
			c0,0-6.704-1.842-9.429-2.578s-9.091-0.81-23.146-17.054c0,0,8.855,11.013,19.168,14.549s13.407,4.273,13.407,4.273
			s0.663-0.295-4.788-2.505c-5.451-2.21-16.206-7.581-23.057-20.107C202.391,393.411,188.983,388.034,188.983,388.034z"/>
		<g>
			<path style="fill:#5D9942;" d="M267.231,421.23l-0.427-2.565l0.32-0.357c0.782-0.876,2.944-3.78,2.623-5.569
				c-0.094-0.523-0.403-0.907-0.972-1.209c-0.672-0.356-1.607-0.536-2.778-0.536c-1.932,0-4.152,0.473-6.111,0.891
				c-1.538,0.328-2.867,0.611-3.822,0.611h-0.126c-0.956,0-2.284-0.283-3.822-0.611c-1.959-0.418-4.178-0.891-6.111-0.891
				c-1.171,0-2.106,0.18-2.778,0.536c-0.57,0.302-0.879,0.687-0.973,1.21c-0.321,1.797,1.841,4.695,2.624,5.568l0.32,0.357
				l-0.427,2.565l-6.396,6.175l-0.597-0.236c-4.865-1.926-14.046-9.247-16.879-11.66c-1.903-1.621-5.569-5.977-5.824-10.859
				c-0.139-2.673,0.77-5.058,2.704-7.088c2.694-2.828,5.447-4.146,8.666-4.146c2.514,0,5.084,0.769,8.06,1.659
				c0.922,0.276,1.875,0.561,2.876,0.838c6.41,1.774,15.793,2.48,18.622,2.66c2.829-0.18,12.211-0.886,18.622-2.66
				c1.001-0.277,1.955-0.562,2.877-0.838c2.975-0.89,5.545-1.659,8.059-1.659c3.219,0,5.972,1.317,8.666,4.146
				c1.934,2.03,2.843,4.415,2.704,7.088c-0.255,4.882-3.921,9.238-5.824,10.859c-2.833,2.413-12.014,9.734-16.879,11.66
				l-0.597,0.236L267.231,421.23z"/>
			<path style="fill:#13120D;" d="M285.557,394.413c2.694,0,5.214,0.97,7.944,3.836c5.893,6.188-0.393,14.242-3.045,16.501
				c-2.652,2.259-11.885,9.626-16.599,11.492l-5.697-5.5l-0.295-1.768c0,0,5.5-6.139,1.375-8.324
				c-0.897-0.475-2.022-0.652-3.244-0.652c-3.56,0-7.945,1.502-9.933,1.502c-0.021,0-0.043,0-0.063-0.001
				c-0.021,0-0.042,0.001-0.063,0.001c-1.989,0-6.373-1.502-9.933-1.502c-1.222,0-2.347,0.177-3.244,0.652
				c-4.125,2.185,1.375,8.324,1.375,8.324l-0.295,1.768l-5.697,5.5c-4.715-1.866-13.947-9.233-16.599-11.492
				c-2.652-2.259-8.938-10.313-3.045-16.501c2.73-2.867,5.249-3.836,7.944-3.836c3.121,0,6.479,1.301,10.67,2.461
				c6.524,1.805,15.958,2.513,18.887,2.698c2.929-0.184,12.363-0.893,18.887-2.698C279.079,395.714,282.435,394.413,285.557,394.413
				 M285.557,392.419c-2.661,0-5.295,0.788-8.345,1.701c-0.917,0.274-1.865,0.558-2.856,0.832
				c-6.272,1.736-15.478,2.437-18.356,2.622c-2.877-0.184-12.083-0.886-18.356-2.622c-0.991-0.274-1.938-0.558-2.855-0.832
				c-3.051-0.913-5.686-1.701-8.346-1.701c-3.51,0-6.493,1.415-9.388,4.455c-2.13,2.236-3.132,4.87-2.977,7.828
				c0.272,5.221,4.157,9.849,6.173,11.566c2.865,2.441,12.167,9.852,17.158,11.828l1.194,0.473l0.924-0.892l5.697-5.5l0.474-0.457
				l0.108-0.649l0.295-1.768l0.157-0.945l-0.639-0.713c-1.127-1.266-2.585-3.616-2.384-4.729c0.021-0.115,0.052-0.288,0.458-0.503
				c0.527-0.279,1.304-0.42,2.311-0.42c1.827,0,3.992,0.462,5.902,0.869c1.594,0.34,2.97,0.633,4.031,0.633c0.021,0,0.043,0,0.063,0
				c0.021,0,0.042,0,0.063,0c1.061,0,2.437-0.293,4.03-0.633c1.91-0.407,4.076-0.869,5.903-0.869c1.007,0,1.784,0.141,2.311,0.42
				c0.406,0.215,0.437,0.389,0.458,0.504c0.201,1.124-1.256,3.468-2.385,4.728l-0.639,0.713l0.157,0.945l0.295,1.768l0.108,0.649
				l0.474,0.457l5.697,5.5l0.924,0.892l1.194-0.473c4.992-1.976,14.293-9.387,17.158-11.828c2.016-1.717,5.901-6.345,6.173-11.566
				c0.154-2.958-0.847-5.591-2.977-7.827C292.05,393.834,289.067,392.419,285.557,392.419L285.557,392.419z"/>
		</g>
		<path style="fill:#5D9942;" d="M237.113,432.675c0,0-14.538,6.777-40.763,7.219c0,0-9.282,0.442-11.787,0
			s-9.871-2.652-9.871-2.652s-2.505,6.256-1.326,11.379s4.42,3.207,1.473,11.752c-2.947,8.545,3.978,10.755,12.081,3.831
			s30.401-19.742,50.192-24.31l0.785-3.683L237.113,432.675z"/>
		<path style="fill:#5D9942;" d="M237.897,442.694c0,0-22.984,10.903-38.306,34.476c0,0,35.949-8.84,48.177-24.899v-7.809
			L237.897,442.694z"/>
		<path style="fill:#5D9942;" d="M189.278,83.794c0,0,23.131-6.925,52.745,6.335c0,0-22.836,7.809-28.877,9.724
			c-6.041,1.915-23.352,6.041-41.216,4.125l7.33-7.809c0,0,6.63-3.08,10.166-2.94c3.536,0.14,12.818-2.806,12.818-2.806
			s-7.661,1.621-10.019,1.473c-2.357-0.147-11.86,2.947-11.86,2.947S187.068,87.477,189.278,83.794z"/>
		<path style="fill:#5D9942;" d="M193.551,78.49l10.019-14.586c0,0,14.465-13.407,44.581-13.26c0,0-3.181,12.818-25.723,30.056
			c0,0-13.702-2.848-27.649-1.866c0,0,5.304-3.732,7.71-4.666c2.406-0.933,13.063-6.974,13.063-6.974s-5.451,1.915-8.103,3.683
			c-2.652,1.768-11.345,5.648-13.358,7.661L193.551,78.49z"/>
		<path style="fill:#5D9942;" d="M225.669,81.044c0,0,10.706-8.054,15.863-15.077l23.72-12.229c0,0-0.884-0.098-3.094,0.884
			c-2.21,0.982-18.466,8.447-18.466,8.447s6.679-12.327,9.478-15.764c0,0-12.916,0.538-23.426,3.338c0,0,31.529-17.777,61.536-6.727
			c0,0-3.438,3.487-4.371,5.304c-0.933,1.817-15.175,24.752-48.423,35.212C238.487,84.432,232.495,82.37,225.669,81.044z"/>
		<path style="fill:#5D9942;" d="M251.452,81.987c0,0,12.425-5.265,21.216-13.613c0,0,15.322,4.616,20.037,8.398
			c0,0-21.903,3.438-31.185,8.791C261.52,85.562,253.073,82.831,251.452,81.987z"/>
		<path style="fill:#5D9942;" d="M273.846,67.342c0,0,10.117-9.429,12.13-12.621c0,0,20.332,9.085,23.917,11.394l6.777,9.871
			c0,0-16.392,0.049-20.626,0.491C296.044,76.476,281.508,69.404,273.846,67.342z"/>
		<path style="fill:#5D9942;" d="M205.337,56.758v-0.81c-36.833,4.125-59.08,32.855-59.08,32.855l-8.545,19.595l26.225-1.621
			c21.437-15.691,42.211-49.651,42.211-49.651L205.337,56.758z M170.027,88.165c-3.929,1.572-23.966,14.144-29.27,18.515
			c0,0-0.903,0.826-1.719,0.688c0,0-0.688-0.098,3.438-3.34c4.125-3.241,21.461-16.157,31.087-17.876
			C173.563,86.151,173.956,86.593,170.027,88.165z"/>
	</g>
	<g>
		<circle style="fill:#5D9942;" cx="256.204" cy="434.334" r="18.168"/>
		<path style="fill:#13120D;" d="M256.204,417.163c9.483,0,17.171,7.688,17.171,17.171s-7.688,17.171-17.171,17.171
			c-9.483,0-17.171-7.688-17.171-17.171S246.72,417.163,256.204,417.163 M256.204,415.169c-10.567,0-19.165,8.597-19.165,19.165
			c0,10.568,8.597,19.165,19.165,19.165c10.567,0,19.165-8.597,19.165-19.165C275.368,423.767,266.771,415.169,256.204,415.169
			L256.204,415.169z"/>
	</g>
	<path style="fill:#5D9942;" d="M239.285,41.58c0,0-28.342-2.811-41.628,0.726c0,0,1.995,7.936,6.122,10.475
		c0,0,6.485-1.678,8.117-1.451l-0.771,1.632C211.125,52.962,226.452,44.572,239.285,41.58z"/>
	<path style="fill:#5D9942;" d="M321.238,81.987c0,0-27.011-8.064-59.424,6.178c0,0,9.147,3.732,17.244,5.893
		c8.097,2.161,31.67,12.867,60.547,9.233c0,0-6.188-4.125-11.197-4.322c-5.009-0.196-10.804-3.34-10.804-3.34
		s9.724,1.572,11.688,2.357s9.134,3.732,9.134,3.732S328.605,93.488,321.238,81.987z"/>
	<path style="fill:#5D9942;" d="M261.814,31"/>
	<g>
		<g>
			<path style="fill:#13120D;" d="M254.325,201.507c0,0.492-0.025,0.846,0.004,1.195c0.753,9.166,1.095,18.344,0.766,27.538
				c-0.117,3.28-0.94,6.426-2.491,9.305c-1.605,2.979-3.916,5.231-7.359,6.073c-0.322,0.079-0.684,0.489-0.799,0.824
				c-0.282,0.824-0.43,1.693-0.625,2.514c1.476,0,2.831-0.039,4.183,0.008c2.908,0.1,5.832,0.094,8.715,0.426
				c1.82,0.21,3.702,0.895,4.614,2.686c0.637,1.249,1.162,2.699,1.204,4.076c0.073,2.413-0.259,4.839-0.432,7.259
				c-0.031,0.431-0.115,0.858-0.207,1.53c1.472-0.533,2.773-0.979,4.045-1.495c0.17-0.069,0.215-0.494,0.28-0.763
				c0.378-1.567,0.732-3.14,1.127-4.702c0.063-0.25,0.29-0.459,0.442-0.687c0.117,0.008,0.234,0.015,0.351,0.023
				c0.157,1.518,0.313,3.036,0.474,4.59c3.816-1.635,11.197-7.744,11.034-13.392c-0.255-0.053-0.528-0.133-0.806-0.164
				c-3.499-0.39-5.44-2.661-6.687-5.664c-2.022-4.868-1.229-9.637,0.538-14.405c1.269-3.423,3.047-6.548,5.3-9.367
				c0.995-1.245,1.347-2.339,1.139-3.909c-0.862-6.505-1.565-13.03-2.375-19.542c-0.327-2.632-0.784-5.248-1.165-7.873
				c-0.04-0.276-0.058-0.621,0.07-0.845c0.979-1.719,1.996-3.417,3.186-5.434c2.328,7.498,4.567,14.711,6.807,21.924
				c-0.081,0.04-0.162,0.08-0.243,0.12c-0.782-0.846-1.565-1.692-2.347-2.538c-0.071,0.089-0.143,0.179-0.214,0.268
				c0.342,13.173,0.684,26.345,1.032,39.729c1.418-0.251,2.892-0.455,4.339-0.781c3.042-0.685,5.769-2.141,8.498-3.585
				c0.55-0.291,0.597-0.656,0.418-1.179c-1.036-3.021-2.008-6.065-3.105-9.063c-0.869-2.376-1.884-4.699-2.835-7.046
				c-0.055-0.137-0.09-0.289-0.175-0.406c-2.072-2.858-0.439-5.631,0.201-8.42c0.154-0.67,0.59-0.58,1.111-0.325
				c1.617,0.791,2.563,2.227,3.324,3.714c1.37,2.676,2.654,5.408,3.781,8.194c1.292,3.194,2.374,6.473,3.608,9.884
				c0.93-0.821,1.918-1.606,2.803-2.495c1.373-1.379,2.72-2.79,3.987-4.266c0.637-0.741,1.163-1.612,1.578-2.5
				c0.571-1.221-0.039-2.564-1.527-2.888c-2.437-0.531-4.942-0.745-7.404-1.172c-1.215-0.211-2.459-0.461-3.572-0.958
				c-0.615-0.274-1.356-1.066-1.402-1.673c-0.176-2.332-0.538-4.79-0.003-7.001c0.766-3.17,2.868-5.715,5.907-7.144
				c2.225-1.046,4.295-0.078,6.063,1.28c2.578,1.98,3.872,4.803,4.832,7.846c1.219,3.863,1.526,7.791,1.288,11.803
				c-0.127,2.134-1.022,3.981-2.051,5.764c-2.086,3.614-5.01,6.491-8.189,9.142c-0.284,0.237-0.409,0.91-0.316,1.314
				c0.775,3.37,1.628,6.722,2.436,10.085c0.24,1,0.371,2.027,0.622,3.025c0.395,1.573,1.733,2.249,3.024,2.832
				c3.64,1.643,7.165,0.716,10.555-0.82c0.566-0.256,0.914-1.278,1.102-2.013c0.253-0.99,0.322-2.042,0.351-3.071
				c0.183-6.464-0.051-12.914-0.701-19.35c-0.652-6.458-1.189-12.929-1.923-19.378c-0.654-5.751-1.502-11.481-2.282-17.218
				c-0.094-0.689-0.198-1.407-0.475-2.033c-0.616-1.395,0.078-2.275,1.035-3.104c0.695-0.602,1.384-1.21,2.084-1.805
				c0.601-0.511,1.211-0.581,1.716,0.108c1.299,1.773,2.802,3.444,3.809,5.372c2.075,3.971,4.06,8.01,5.752,12.156
				c2.23,5.465,3.63,11.198,4.576,17.029c1.111,6.844,1.464,13.73,0.797,20.633c-0.528,5.474-1.436,10.898-3.264,16.112
				c-1.513,4.314-3.494,8.388-6.144,12.156c-2.699,3.838-5.96,7.087-9.712,9.836c-2.786,2.041-5.832,3.665-9.046,4.973
				c-9.24,3.76-18.842,4.924-28.732,4.1c-0.34-0.028-0.674-0.124-1.296-0.244c0.442-0.316,0.612-0.517,0.823-0.576
				c4.359-1.22,8.776-2.264,13.073-3.674c4.99-1.638,9.917-3.49,14.782-5.471c1.693-0.689,3.198-1.937,4.646-3.106
				c2.714-2.192,5.401-4.43,7.957-6.803c2.666-2.475,4.565-5.537,6.15-8.808c2.517-5.194,3.765-10.727,4.842-16.36
				c1.057-5.528,0.618-10.946-0.359-16.378c-0.775-4.314-1.597-8.624-2.562-12.899c-0.629-2.786-1.552-5.505-2.344-8.255
				c-0.1,0.009-0.199,0.017-0.299,0.026c-0.033,0.11-0.105,0.224-0.094,0.329c0.369,3.445,0.911,6.881,1.091,10.336
				c0.466,8.952,0.862,17.911,1.103,26.872c0.104,3.871-0.365,7.74-1.528,11.475c-0.885,2.843-2.109,5.499-4.49,7.443
				c-1.844,1.505-4.025,1.911-6.328,1.865c-3.125-0.063-6.145-0.439-8.849-2.27c-2.459-1.664-3.884-3.943-4.574-6.763
				c-0.12-0.49-0.269-0.972-0.453-1.63c-0.859,1.379-1.605,2.604-2.378,3.812c-2.71,4.236-5.952,8.015-9.744,11.32
				c-2.877,2.507-6.027,4.583-9.593,5.977c-3.125,1.221-6.366,1.902-9.729,1.569c-1.583-0.157-2.519-1.323-3.044-2.739
				c-0.471-1.269-0.804-2.588-1.229-3.988c-1.002,0.474-2.076,0.994-3.159,1.491c-0.768,0.352-1.524,0.764-2.331,0.987
				c-1.026,0.283-1.6,0.918-2.042,1.839c-2.408,5.02-5.749,9.313-10.37,12.459c-5.327,3.626-11.25,5.356-17.699,4.511
				c-3.706-0.485-7.025-2.133-9.931-4.517c-4.309-3.535-7.102-7.987-7.982-13.538c-0.521-3.285-0.274-6.569,0.452-9.788
				c0.759-3.365,1.704-6.688,2.599-10.148c-0.385-0.362-0.917-0.862-1.428-1.342c-1.601,2.018-3.119,4.038-4.752,5.961
				c-2.169,2.553-4.652,4.766-7.417,6.684c-2.627,1.821-5.425,3.299-8.485,4.136c-2.187,0.598-4.473,0.996-6.735,1.117
				c-3.884,0.208-7.153-2.457-8.207-6.235c-0.591-2.118-0.644-4.201-0.179-6.341c0.454-2.087,0.787-4.2,1.204-6.295
				c0.776-3.899,2.622-7.322,4.773-10.605c0.096-0.147,0.118-0.344,0.174-0.517c0.129,0.084,0.259,0.168,0.388,0.252
				c-0.063,0.478-0.118,0.956-0.19,1.433c-0.679,4.52-1.379,9.037-2.027,13.561c-0.125,0.869-0.121,1.772-0.057,2.651
				c0.251,3.478,1.949,4.744,5.235,4.737c2.753-0.005,5.315-0.921,7.72-2.107c3.258-1.607,6.397-3.459,9.572-5.233
				c1.059-0.592,2.099-1.226,3.096-1.915c1.383-0.955,2.074-2.332,2.262-3.995c0.351-3.095-0.148-6.151-1.545-8.815
				c-1.213-2.312-0.482-3.888,0.815-5.564c0.395-0.51,1.009-0.851,1.522-1.27c0.184,0.564,0.37,1.127,0.552,1.691
				c0.877,2.712,2.167,5.226,3.78,7.561c0.915,1.325,1.994,2.536,3.008,3.792c0.154,0.19,0.355,0.343,0.589,0.565
				c1.225-1.774,2.416-3.477,3.584-5.195c0.949-1.397,1.917-2.786,2.792-4.229c1.077-1.775,0.411-3.567-1.688-3.913
				c-1.78-0.293-3.655-0.094-5.48,0.008c-0.859,0.048-1.702,0.382-2.478,0.568c0-1.889-0.124-3.761,0.069-5.601
				c0.065-0.621,0.864-1.242,1.447-1.717c2.395-1.953,5.098-3.286,8.1-4.101c4.114-1.117,8.255-1.161,12.388-0.416
				c2.922,0.527,5.781,1.332,8.443,2.799c2.13,1.174,1.86,2.665,1.129,4.178c-1.013,2.098-2.775,3.457-5.039,3.939
				c-1.879,0.4-3.544,1.073-4.985,2.358c-0.507,0.453-0.683,0.827-0.067,1.194c1.089,0.649,2.164,1.499,3.356,1.762
				c3.395,0.75,6.54,0.098,8.964-2.591c0.52-0.576,0.878-1.481,0.932-2.261c0.194-2.791,0.401-5.601,0.282-8.391
				c-0.229-5.382-0.57-10.764-1.062-16.129c-0.59-6.428-1.364-12.84-2.114-19.252c-0.167-1.426-0.157-2.601,1.177-3.581
				c1.13-0.83,2.036-1.966,3.211-3.135c2.171,7.047,4.283,13.904,6.395,20.761c-0.059,0.068-0.119,0.137-0.178,0.205
				C257.196,203.19,255.813,202.379,254.325,201.507z M253.142,273.984c-0.261-0.029-0.4-0.066-0.535-0.056
				c-3.365,0.253-6.511-0.448-9.442-2.13c-2.37-1.36-4.127-3.17-4.012-6.096c0.092-2.344,0.394-4.681,0.638-7.018
				c0.089-0.853,0.284-1.695,0.467-2.754c-6.977,2.228-13.698,1.777-20.418-0.575c-0.635,1.452-1.3,2.805-1.826,4.21
				c-0.956,2.558-1.782,5.136-1.292,7.957c0.602,3.462,1.846,6.616,3.954,9.453c3.604,4.85,8.528,7.077,14.416,6.916
				c5.145-0.14,9.91-1.733,13.889-5.187C250.55,277.343,252.064,275.92,253.142,273.984z M298.962,242.148
				c-0.222,0.074-0.335,0.088-0.421,0.144c-0.246,0.162-0.493,0.326-0.717,0.516c-3.811,3.236-8.226,5.056-13.18,5.581
				c-0.811,0.086-1.08,0.396-1.153,1.229c-0.124,1.414-0.208,2.913-0.746,4.192c-1.47,3.488-4.118,6.125-6.887,8.607
				c-1.77,1.587-3.651,3.051-5.481,4.569c1.241,1.853,2.872,2.482,5.099,2.085c2.983-0.533,5.706-1.729,8.247-3.302
				c5.405-3.348,10.08-7.507,13.993-12.559C300.432,249.705,299.728,246.004,298.962,242.148z M256.831,265.848
				c0.475-2.306,0.618-4.544,0.101-6.76c-0.696-2.981-2.304-4.559-5.357-4.654c-2.553-0.079-5.125,0.406-7.682,0.699
				c-0.212,0.024-0.548,0.506-0.529,0.751c0.137,1.686,0.162,3.416,0.596,5.032c0.515,1.915,1.623,3.567,3.645,4.274
				C250.602,266.238,253.69,266.064,256.831,265.848z M223.484,249.61c1.396,0.272,2.642,0.766,3.862,0.709
				c4.707-0.22,9.407-0.603,14.106-0.974c0.335-0.026,0.791-0.379,0.927-0.694c0.371-0.862,0.602-1.785,0.898-2.714
				c-1.287-0.233-2.574-0.358-3.796-0.707c-3.029-0.864-5.609-2.546-7.897-4.677c-0.613-0.571-0.998-0.463-1.561,0.088
				C227.419,243.184,225.54,246.242,223.484,249.61z M279.262,218.431c-1.786,3.367-3.392,6.735-4.103,10.468
				c-0.529,2.777-0.61,5.496,0.471,8.147c0.698,1.714,2.637,3.732,4.563,3.385C280.251,233.093,280.199,225.747,279.262,218.431z
				 M238.832,229.355c-0.179-0.163-0.297-0.303-0.444-0.397c-0.185-0.117-0.386-0.226-0.594-0.286
				c-3.494-1.017-6.992-0.72-10.485,0.004c-0.766,0.159-0.817,0.619-0.246,1.057c0.779,0.597,1.601,1.147,2.448,1.645
				C232.511,233.142,236.599,232.28,238.832,229.355z M309.03,211.78c-1.321-3.176-4.656-3.78-6.539-1.473
				c-0.634,0.777-0.508,1.374,0.478,1.437C304.929,211.868,306.902,211.78,309.03,211.78z"/>
			<path style="fill:#13120D;" d="M265.351,177.976c-1.188-1.205-2.803-1.997-3.048-3.953c-1.485,0.135-2.979,0.272-4.473,0.406
				c-0.588,0.053-1.177,0.098-1.765,0.151c-2.78,0.247-4.888-1.046-6.709-2.957c-1.327-1.392-1.571-1.449-2.883-0.09
				c-3.528,3.657-9.959,3.528-13.222,1.45c-1.426-0.908-2.193-2.35-2.801-3.866c-0.437-1.09-0.898-2.119-2.216-2.35
				c-1.459-0.256-2.558,0.426-3.301,1.555c-0.924,1.402-1.717,2.897-2.493,4.39c-1.016,1.956-1.951,3.937-3.818,5.295
				c-2.239,1.629-5.732,0.769-6.826-1.739c-1.215-2.785-0.728-5.644-0.335-8.484c0.176-1.271,0.515-2.522,0.805-3.776
				c0.335-1.448,0.368-1.458,2.102-1.07c0,1.401-0.106,2.876,0.03,4.329c0.136,1.457,0.431,2.913,0.805,4.329
				c0.349,1.321,1.104,1.644,2.204,0.855c0.95-0.681,1.846-1.559,2.479-2.537c1.273-1.965,2.254-4.119,3.534-6.079
				c1.304-1.998,3.543-2.457,5.761-1.608c2.662,1.019,4.67,2.866,6.601,4.849c0.436,0.448,0.853,0.919,1.321,1.332
				c1.612,1.424,3.912,1.275,5.7-0.348c0.136-0.124,0.284-0.247,0.38-0.399c0.313-0.492,0.604-0.998,0.904-1.499
				c-0.545-0.326-1.06-0.856-1.639-0.939c-1.711-0.246-3.445-0.351-5.174-0.439c-0.741-0.038-1.065-0.376-1.158-1.05
				c-0.015-0.11-0.029-0.219-0.047-0.329c-0.486-2.949-0.313-3.534,2.456-4.542c4.937-1.798,10.042-2.831,15.286-1.656
				c2.016,0.452,3.965,1.337,5.844,2.234c1.635,0.781,1.72,3.806,0.18,4.761c-1.303,0.808-2.732,1.411-4.087,2.138
				c-0.958,0.514-1.886,1.085-2.828,1.63c-0.006,0.138-0.011,0.276-0.017,0.414c1.402,0.419,2.781,0.976,4.214,1.218
				c1.37,0.231,2.798,0.1,4.196,0.195c0.809,0.055,1.049-0.222,1.131-1.035c0.168-1.672,0.257-3.416,0.817-4.973
				c1.275-3.544,6.38-4.322,8.727-1.398c0.888,1.106,1.008,2.497,0.778,3.888c-0.56,3.387-2.704,5.38-5.824,6.405
				c-0.97,0.319-1.316,0.793-1.315,1.786C265.626,175.638,265.449,176.807,265.351,177.976z M251.702,162.146
				c-1.921-0.873-4.633-1.115-6.169-0.627c0.995,1.075,1.992,2.151,3.039,3.281C249.661,163.877,250.626,163.058,251.702,162.146z
				 M265.774,168.669c1.842-0.282,2.81-1.161,2.966-2.763c0.035-0.36-0.179-0.878-0.456-1.09c-0.211-0.161-0.806-0.084-1.055,0.111
				C266.059,165.849,265.576,167.089,265.774,168.669z"/>
			<path style="fill:#13120D;" d="M184.728,197.688c0.855-0.45,0.482,2.116-0.033,1.53c0.165,1.716,0.163,3.267,0.492,4.744
				c0.533,2.396,1.071,4.831,1.998,7.088c1.021,2.487,2.926,3.763,5.06,2.818c1.121-0.497,2.166-1.448,2.916-2.443
				c1.966-2.608,3.699-5.391,5.629-8.027c1.143-1.56,2.337-3.141,3.771-4.418c2.374-2.113,4.352-1.632,6.044,1.115
				c1.093,1.774,2.186,3.558,3.434,5.222c1.098,1.463,3.919,1.944,5.69,1.285c1.936-0.72,3.251-2.219,4.745-3.512
				c1.078-0.933,2.22-1.794,3.361-2.65c0.742-0.557,1.112-0.223,1.475,0.562c0.657,1.419,1.258,2.948,2.263,4.099
				c1.234,1.413,3.015,1.935,4.923,1.321c1.776-0.572,2.367-2.188,2.565-3.712c0.278-2.137,0.07-4.333,0.151-6.5
				c0.023-0.607,0.213-1.277,0.534-1.788c0.714-1.137,1.558-2.192,2.516-3.509c0.1,0.589,0.179,0.925,0.21,1.265
				c0.385,4.128,0.508,8.268-0.192,12.363c-0.478,2.795-1.213,5.526-3.335,7.675c-2.731,2.767-9.743,2.423-10.917-2.778
				c-0.112-0.494-0.315-0.968-0.593-1.802c-0.654,0.633-1.235,1.047-1.623,1.598c-1.265,1.795-2.585,3.455-4.815,4.168
				c-4.917,1.572-9.917,0.298-12.518-4.334c-0.659-1.174-1.322-2.345-2.173-3.853c-0.809,0.984-1.478,1.717-2.056,2.515
				c-2.258,3.119-4.357,6.365-6.779,9.35c-1.316,1.621-3.048,2.988-4.802,4.153c-2.65,1.76-6.242,0.817-8.078-1.827
				c-1.425-2.053-2.087-4.365-2.355-6.803c-0.465-4.213-0.205-8.4,0.628-12.55c0.158-0.787,0.463-1.55,0.744-2.307
				C183.925,196.894,184.328,196.877,184.728,197.688z"/>
			<path style="fill:#13120D;" d="M283.938,171.637c-0.087-2.724-0.221-5.368-0.228-8.012c-0.002-0.897,0.275-1.805,0.499-2.689
				c0.253-1,0.941-1.531,1.982-1.611c3.292-0.254,6.557-0.193,9.761,0.733c3.882,1.122,7.751,2.297,11.66,3.318
				c1.448,0.378,2.992,0.394,4.495,0.558c1.188,0.13,1.593,0.615,1.448,1.807c-0.058,0.475-0.229,0.955-0.19,1.42
				c0.077,0.916-0.375,1.222-1.187,1.374c-1.628,0.306-3.28,0.565-4.851,1.067c-2.2,0.703-4.38,1.508-6.488,2.45
				c-4.151,1.856-8.42,3.286-13.071,3.987c0.082,0.596,0.161,1.123,0.226,1.652c0.081,0.659-0.153,1.076-0.877,1.103
				c-0.147,0.005-0.293,0.037-0.439,0.058c-2.371,0.334-2.388,0.334-2.482-2.025c-0.022-0.558-0.136-0.926-0.754-0.986
				c-1.736-0.167-3.371-0.671-4.497-2.058c-1.457-1.795-2.162-3.964-2.239-6.239c-0.096-2.87,0.098-5.749,0.064-8.623
				c-0.042-3.577-0.1-7.158-0.314-10.728c-0.207-3.457-0.608-6.902-0.947-10.35c-0.116-1.18,0.949-1.574,1.47-2.326
				c0.222-0.32,0.59-0.538,1.042-0.934c0.279,0.462,0.635,0.906,0.84,1.411c1.15,2.835,1.193,5.836,1.144,8.82
				c-0.095,5.755-0.367,11.508-0.411,17.262c-0.017,2.235,0.279,4.49,0.627,6.705C280.53,170.747,282.034,171.754,283.938,171.637z
				 M304.015,166.495c-0.028-0.138-0.056-0.276-0.085-0.413c-0.453-0.118-0.902-0.25-1.359-0.351
				c-3.878-0.855-7.746-1.763-11.642-2.527c-1.755-0.344-2.871,0.442-3.217,2.228c-0.304,1.569-0.326,3.193-0.463,4.794
				c-0.084,0.984,0.421,1.25,1.295,1.014c1.846-0.498,3.707-0.949,5.531-1.518C297.401,168.683,300.703,167.574,304.015,166.495z"/>
			<path style="fill:#13120D;" d="M264.734,181.495c2.445,7.555,4.813,14.873,7.261,22.438c-1.433-0.431-1.879-1.705-3.133-2.521
				c0.911,18.047,1.126,35.863-0.149,53.968c-0.323-0.436-0.62-0.665-0.677-0.944c-0.392-1.901-0.915-3.798-1.061-5.722
				c-0.7-9.198-1.228-18.41-1.953-27.606c-0.321-4.075-0.964-8.124-1.46-12.185c-0.25-2.05-0.448-4.108-0.756-6.149
				c-0.755-4.993-1.564-9.977-2.336-14.967c-0.045-0.292-0.059-0.688,0.097-0.897C261.878,185.154,263.234,183.43,264.734,181.495z"
				/>
			<path style="fill:#13120D;" d="M222.409,262.484c1.874,2.122,3.618,4.097,5.473,6.198c-1.435,1.543-2.867,3.082-4.38,4.709
				c-1.934-1.797-3.8-3.531-5.716-5.311C219.316,266.227,220.801,264.429,222.409,262.484z"/>
		</g>
		<path style="fill:#13120D;" d="M312.614,238.369c0,0-0.835,1.67-1.13,1.866l0.786,0.737c0,0,0.368,0.663,0.565,1.842
			s0.295,1.768,1.572,1.498s2.087-1.94,2.824-2.014s1.326,0.663,1.989,0.688s1.67-0.909,1.228-1.94
			c-0.442-1.031-0.786-3.168-0.786-3.978c0,0-0.638-0.516-0.712,0.123s0.319,2.716,0.049,3.433c-0.27,0.717-0.689,0.889-1.327,0.422
			c-0.638-0.467-1.276-3.462-1.276-3.462s-0.702-0.221-0.375,1.277c0.326,1.498,0.621,3.045-0.582,3.487
			c-1.203,0.442-2.038-1.351-2.21-2.038C313.056,239.622,312.614,238.369,312.614,238.369z"/>
		<path style="fill:#13120D;" d="M218.169,185.442c0,0-1.134,2.267-1.534,2.534l1.067,1c0,0,0.5,0.9,0.767,2.501
			c0.267,1.601,0.4,2.401,2.134,2.034c1.734-0.367,2.834-2.634,3.835-2.734c1-0.1,1.801,0.9,2.701,0.934
			c0.9,0.033,2.267-1.234,1.667-2.634s-1.067-4.301-1.067-5.402c0,0-0.867-0.7-0.967,0.167c-0.1,0.867,0.433,3.689,0.067,4.662
			c-0.367,0.973-0.936,1.207-1.802,0.573s-1.733-4.702-1.733-4.702s-0.953-0.3-0.51,1.734c0.443,2.034,0.843,4.135-0.791,4.735
			s-2.768-1.834-3.001-2.768S218.169,185.442,218.169,185.442z"/>
		<path style="fill:#13120D;" d="M289.981,274.303l-1.037-2.016c-0.091-0.176-0.028-0.392,0.143-0.492l2.165-1.27
			c0.166-0.098,0.379-0.052,0.492,0.104l2.036,2.839c0.165,0.23,0.515,0.201,0.638-0.054c0.547-1.13,1.96-3.503,4.193-3.505
			c0.053,0,0.105,0.012,0.154,0.033c0.237,0.104,0.999,0.448,1.55,0.806c0.213,0.138,0.228,0.444,0.03,0.603l-0.635,0.512
			c-0.086,0.069-0.197,0.097-0.305,0.076l-0.905-0.176c-0.151-0.029-0.305,0.037-0.387,0.167l-3.443,5.462
			c-0.128,0.204-0.413,0.234-0.582,0.062l-2.882-2.945c-0.087-0.089-0.214-0.129-0.337-0.105l-0.487,0.094
			C290.22,274.53,290.057,274.45,289.981,274.303z"/>
		<path style="fill:#13120D;" d="M258.641,280.555h-2.284c0,0-1.694,0.025-1.375,1.793c0,0-2.529,0.098-2.333,2.038
			c0.196,1.94,2.505,3.094,3.757,3.266l-0.27-1.473c0,0-1.891-0.933-2.112-1.522s0.074-1.093,1.842-0.755h1.252l0.287-0.988
			c0,0,0.253-0.467-0.189-0.638c-0.442-0.172-0.958-0.147-0.958-0.147l0.196-0.319l1.989,0.221L258.641,280.555z"/>
		<polygon style="fill:#13120D;" points="190.034,241.329 184.939,237.129 190.328,232.289 194.564,235.509 199.389,230.684 
			204.288,234.869 200.089,240.173 194.614,237.019 		"/>
		<path style="fill:#13120D;" d="M182.962,228.326c0,0-2.893,2.801-3.868,6.967c-0.188,0.804-0.224,1.635-0.083,2.449
			c0.255,1.476,0.976,3.688,2.997,3.217c2.982-0.695,2.686-5.562,2.502-5.967c0,0-0.546,3.241-2.502,3.499
			c0,0-1.366-0.037-1.145-3.278S182.962,228.326,182.962,228.326z"/>
		<path style="fill:#13120D;" d="M184.728,197.688l2.118-1.554l2.672,3.573l1.179-1.786c0,0,1.289-2.523,3.61-2.155l1.768,1.068
			l-1.105,1.142l-1.252-0.258l-4.125,5.93l-2.983-3.315l-1.068-0.111l-0.845-1.005l-0.08-0.8L184.728,197.688z"/>
		<path style="fill:#13120D;" d="M186.719,189.394l5.341-5.904c0,0,5.635,3.326,5.746,3.252c0.11-0.074,4.751-5.083,4.751-5.083
			l7.035,4.715l-5.746,4.899l-5.451-2.136l-4.309,4.236L186.719,189.394z"/>
		<path style="fill:#13120D;" d="M245.872,203.022c0,0-2.505,1.584-2.836,4.125c-0.332,2.541,0.626,2.247,1.657,2.726
			c1.031,0.479,2.32,0.737,2.799-0.295S247.898,207.11,245.872,203.022z M246.167,208.878c-0.516,0.074-1.805-0.81-1.805-0.81
			c-0.147-1.031,0.991-2.505,0.991-2.505C245.829,205.932,246.683,208.805,246.167,208.878z"/>
		<path style="fill:#13120D;" d="M315.413,244.975l1.08,0.393l-0.54,3.29l1.228,0.393c0,0-0.442,2.063-2.112,3.045l-2.406-1.621
			L315.413,244.975z"/>
		<polygon style="fill:#13120D;" points="307.403,171.32 304.51,174.55 307.801,178.479 311.042,175.238 		"/>
		<path style="fill:#13120D;" d="M302.393,150.751l1.028-0.515l2.021,2.653l1.129-0.623c0,0,1.196,1.738,0.763,3.626l-2.831,0.636
			L302.393,150.751z"/>
		<path style="fill:#13120D;" d="M225.185,154.566l0.811-0.815l2.757,1.876l0.873-0.948c0,0,1.685,1.269,1.872,3.198l-2.483,1.5
			L225.185,154.566z"/>
		<polygon style="fill:#13120D;" points="302.393,144.298 302.742,147.245 284.375,155.888 284.13,152.598 		"/>
		<polygon style="fill:#13120D;" points="310.207,182.948 310.698,185.944 287.027,197.878 287.027,194.587 		"/>
		<path style="fill:#13120D;" d="M266.794,141.744c0,0-2.063,1.375-1.817,2.554s1.964,3.634,1.817,6.925
			c-0.147,3.29,0.009,3.978,0.009,3.978s0.973,0.098,1.17-2.554c0,0,3.578-2.063,4.024-5.599c0,0-1.372-0.393-1.863,0.246
			c0,0-0.662,2.554-1.657,3.389C268.476,150.682,269.544,145.82,266.794,141.744z"/>
		<polygon style="fill:#13120D;" points="223.232,145.329 219.991,148.473 215.719,146.028 212.674,149.356 217.094,152.401 
			220.531,149.897 223.873,151.714 227.652,148.865 		"/>
		<polygon style="fill:#13120D;" points="263.552,138.601 264.215,140.811 231.499,152.819 232.023,148.865 		"/>
		<polygon style="fill:#13120D;" points="234.307,177.865 234.307,179.338 213.238,187 213.238,184.642 		"/>
		<polygon style="fill:#13120D;" points="206.682,240.47 185.466,247.995 185.466,245.859 206.388,238.713 		"/>
		<polygon style="fill:#13120D;" points="297.217,291.826 297.512,293.152 276.223,300.961 276.517,298.603 		"/>
	</g>
</g>
</svg>
