<svg xmlns:dc="http://purl.org/dc/elements/1.1/" xmlns:cc="http://creativecommons.org/ns#" xmlns:rdf="http://www.w3.org/1999/02/22-rdf-syntax-ns#" xmlns:svg="http://www.w3.org/2000/svg" xmlns="http://www.w3.org/2000/svg" xmlns:sodipodi="http://sodipodi.sourceforge.net/DTD/sodipodi-0.dtd" xmlns:inkscape="http://www.inkscape.org/namespaces/inkscape" viewBox="0 0 8.4666667 10.583333625" version="1.1" x="0px" y="0px"><svg:g style="" display="inline"><svg:path style="color:#000000;font-style:normal;font-variant:normal;font-weight:normal;font-stretch:normal;font-size:medium;line-height:normal;font-family:sans-serif;font-variant-ligatures:normal;font-variant-position:normal;font-variant-caps:normal;font-variant-numeric:normal;font-variant-alternates:normal;font-feature-settings:normal;text-indent:0;text-align:start;text-decoration:none;text-decoration-line:none;text-decoration-style:solid;text-decoration-color:#000000;letter-spacing:normal;word-spacing:normal;text-transform:none;writing-mode:lr-tb;direction:ltr;text-orientation:mixed;dominant-baseline:auto;baseline-shift:baseline;text-anchor:start;white-space:normal;shape-padding:0;clip-rule:nonzero;display:inline;overflow:visible;visibility:visible;opacity:1;isolation:auto;mix-blend-mode:normal;color-interpolation:sRGB;color-interpolation-filters:linearRGB;solid-color:#000000;solid-opacity:1;vector-effect:none;fill:#000000;fill-opacity:1;fill-rule:nonzero;stroke:none;stroke-width:0.52916664;stroke-linecap:round;stroke-linejoin:round;stroke-miterlimit:4;stroke-dasharray:none;stroke-dashoffset:6.20000076;stroke-opacity:1;color-rendering:auto;image-rendering:auto;shape-rendering:auto;text-rendering:auto;enable-background:accumulate" d="m 2.2256791,0.43847362 c -0.868399,-4e-7 -1.57819826,0.70979938 -1.57819826,1.57819828 0,0.583479 0.32109806,1.0942761 0.79478346,1.3673582 C 0.76930823,3.6844956 0.29866449,4.3578364 0.29866502,5.1415457 V 5.8546803 H 4.1521765 V 5.1415457 C 4.1521765,4.3574258 3.6823937,3.683744 3.0096104,3.3835133 3.482751,3.1103286 3.8033612,2.5998577 3.8033604,2.0166719 3.8033615,1.1482735 3.0940771,0.43847382 2.2256791,0.43847362 Z M 6.3592769,1.8957489 A 0.26460979,0.26460979 0 0 0 6.1210485,2.1592987 V 3.3292531 A 0.26460979,0.26460979 0 0 0 6.3845983,3.592803 H 7.0295202 V 4.1162853 H 4.8885656 A 0.26460979,0.26460979 0 0 0 4.6250157,4.3819021 v 1.4727782 h 3.5780768 a 0.52921958,0.52921958 0 0 1 0.00212,0 c 0.091757,3.705e-4 0.1789853,0.019966 0.2614824,0.050126 V 4.3819021 A 0.26460979,0.26460979 0 0 0 8.2031428,4.1162853 H 7.5587371 V 3.592803 H 8.2031428 A 0.26460979,0.26460979 0 0 0 8.4666916,3.3292531 V 2.1592987 A 0.26460979,0.26460979 0 0 0 8.2031428,1.8957489 H 6.3846486 a 0.26460979,0.26460979 0 0 0 -0.025321,0 z M 0.26559211,6.383847 A 0.26460979,0.26460979 0 0 0 -2.4950163e-5,6.6494638 V 7.7646413 A 0.26460979,0.26460979 0 0 0 0.26559211,8.0281911 H 8.2030925 A 0.26460979,0.26460979 0 0 0 8.4666413,7.7646413 V 6.6494638 A 0.26460979,0.26460979 0 0 0 8.2030925,6.383847 Z"/></svg:g><text x="0" y="23.4666669" fill="#000000" font-size="5px" font-weight="bold" font-family="'Helvetica Neue', Helvetica, Arial-Unicode, Arial, Sans-serif">Created by Larea</text><text x="0" y="28.4666669" fill="#000000" font-size="5px" font-weight="bold" font-family="'Helvetica Neue', Helvetica, Arial-Unicode, Arial, Sans-serif">from the Noun Project</text></svg>