<svg id="Capa_1" enable-background="new 0 0 512 512" height="512" viewBox="0 0 512 512" width="512" xmlns="http://www.w3.org/2000/svg"><g><path d="m343.547 404.975h-27.104v-16.958c0-5.84-3.734-10.812-8.936-12.689 4.866-2.898 9.51-6.204 13.86-9.922 16.426-14.04 27.896-32.987 32.72-53.854 19.269-2.425 34.219-18.914 34.219-38.829 0-17.288-11.274-31.986-26.853-37.151 0-10.414 0-76.809 0-86.206 18.72-11.504 30.216-31.901 30.216-53.999 0-9.732-2.162-19.119-6.419-27.79-1.826-3.718-6.319-5.252-10.038-3.427-3.718 1.826-5.252 6.32-3.427 10.038 3.235 6.587 4.884 13.737 4.884 21.178 0 17.707-9.676 33.985-25.249 42.482-3.063 1.671-4.967 4.868-4.967 8.344v54.336h-180.906v-54.336c0-3.476-1.903-6.673-4.966-8.343-15.574-8.498-25.25-24.776-25.25-42.482 0-26.721 22.17-48.419 48.361-48.419 5.526 0 11.033.971 16.367 2.887 3.736 1.341 7.874-.461 9.433-4.114 7.968-18.662 26.223-30.721 46.508-30.721s38.54 12.059 46.508 30.722c1.559 3.652 5.696 5.456 9.433 4.114 5.339-1.918 10.848-2.89 16.374-2.89 7.847 0 15.702 1.997 22.717 5.775 3.65 1.966 8.195.6 10.16-3.046 1.964-3.647.6-8.196-3.047-10.16-9.193-4.952-19.509-7.569-29.83-7.569-5.036 0-10.05.611-14.976 1.821-11.469-20.714-33.305-33.767-57.339-33.767s-45.87 13.054-57.339 33.767c-4.923-1.208-9.934-1.818-14.969-1.818-16.192 0-31.678 6.225-43.603 17.527-12.689 12.027-19.759 28.406-19.759 45.892 0 22.097 11.496 42.493 30.216 53.999v86.168c-5.477 1.803-10.521 4.827-14.816 8.953-7.762 7.454-12.036 17.482-12.036 28.236 0 19.915 14.95 36.404 34.219 38.829 4.823 20.867 16.294 39.814 32.72 53.854 4.35 3.718 8.994 7.024 13.86 9.922-5.201 1.877-8.936 6.849-8.936 12.689v16.958h-27.104c-22.171 0-41.068 15.823-44.936 37.624-.724 4.079 1.996 7.971 6.075 8.695 4.075.724 7.972-1.996 8.694-6.075 2.595-14.627 15.281-25.244 30.166-25.244h53.555l-34.788 16.137c-8.936 4.146-14.71 13.189-14.71 23.041v37.846h-34.696v-18.129c0-4.142-3.357-7.5-7.5-7.5s-7.5 3.358-7.5 7.5v25.629c0 4.142 3.357 7.5 7.5 7.5h251.371c4.143 0 7.5-3.358 7.5-7.5v-53.886c.002-25.166-20.472-45.639-45.637-45.639zm-80.047-15.458h37.942v15.458h-37.942zm82.953-173.988v18.057h-180.906v-18.057zm-174.937 87.56c-.606-3.626-3.746-6.263-7.394-6.263-15.914 0-25.428-11.656-25.428-24.104 0-6.632 2.638-12.818 7.426-17.417 4.772-4.583 11.051-6.957 17.695-6.693 0 0 184.135-.026 185.358-.026 13.307.003 24.132 10.831 24.132 24.137 0 13.557-11.28 24.668-25.124 24.11-3.729-.139-7.074 2.53-7.697 6.257-6.922 41.388-42.453 71.427-84.484 71.427s-77.562-30.04-84.484-71.428zm39.042 86.428h37.942v15.458h-37.942zm163.628 107.483h-186.675v-37.848c0-4.033 2.364-7.736 6.022-9.433l64.122-29.745h85.892c16.895 0 30.639 13.745 30.639 30.639z"/><path d="m218.023 289.313v-19.653c0-4.142-3.357-7.5-7.5-7.5s-7.5 3.358-7.5 7.5v19.653c0 4.142 3.357 7.5 7.5 7.5s7.5-3.358 7.5-7.5z"/><path d="m301.477 296.813c4.143 0 7.5-3.358 7.5-7.5v-19.653c0-4.142-3.357-7.5-7.5-7.5s-7.5 3.358-7.5 7.5v19.653c0 4.142 3.357 7.5 7.5 7.5z"/><path d="m249.185 444.171c-11.855 0-21.5 9.645-21.5 21.5s9.645 21.5 21.5 21.5 21.5-9.645 21.5-21.5-9.645-21.5-21.5-21.5zm0 28c-3.584 0-6.5-2.916-6.5-6.5s2.916-6.5 6.5-6.5 6.5 2.916 6.5 6.5-2.916 6.5-6.5 6.5z"/><path d="m322.896 444.171c-11.855 0-21.5 9.645-21.5 21.5s9.645 21.5 21.5 21.5 21.5-9.645 21.5-21.5-9.644-21.5-21.5-21.5zm0 28c-3.584 0-6.5-2.916-6.5-6.5s2.916-6.5 6.5-6.5 6.5 2.916 6.5 6.5-2.916 6.5-6.5 6.5z"/><path d="m248.5 105v70.43c0 4.142 3.357 7.5 7.5 7.5s7.5-3.358 7.5-7.5v-70.43c0-4.142-3.357-7.5-7.5-7.5s-7.5 3.358-7.5 7.5z"/><path d="m197.477 105v70.43c0 4.142 3.357 7.5 7.5 7.5s7.5-3.358 7.5-7.5v-70.43c0-4.142-3.357-7.5-7.5-7.5s-7.5 3.358-7.5 7.5z"/><path d="m299.523 105v70.43c0 4.142 3.357 7.5 7.5 7.5s7.5-3.358 7.5-7.5v-70.43c0-4.142-3.357-7.5-7.5-7.5s-7.5 3.358-7.5 7.5z"/><path d="m280.483 351.566h12.488c5.128 0 9.3-4.172 9.3-9.3v-12.489c0-17.094-13.906-31.001-31-31.001h-28.578c-17.094 0-31.001 13.907-31.001 31.001v12.489c0 5.128 4.172 9.3 9.3 9.3h12.489c9.26 0 17.746-4.062 23.501-10.757 5.756 6.696 14.243 10.757 23.501 10.757zm-31.779-26.075c-2.141 6.625-8.259 11.075-15.223 11.075h-6.789v-6.789c0-8.823 7.178-16.001 16.001-16.001h28.578c8.822 0 16 7.178 16 16.001v6.789h-6.788c-6.964 0-13.082-4.451-15.225-11.08-1.169-3.611-4.495-6.037-8.276-6.037s-7.107 2.426-8.278 6.042z"/></g></svg>