<?xml version="1.0"?>
<svg
                  width="28px"
                  height="29.2px"
                  version="1.1"
                  id="Layer_1"
                  x="0px"
                  y="0px"
                  viewBox="0 0 512 512"
                  style="enable-background: new 0 0 512 512;"
                  xml:space="preserve"
                >
                  <g>
                    <g>
                      <path
                        d="M162.108,420.513c-0.941-2.896-3.414-5.028-6.417-5.533l-42.782-7.18l-20.05-38.471c-1.406-2.699-4.199-4.393-7.244-4.393
			c-3.045,0-5.838,1.694-7.245,4.394l-20.05,38.471l-42.782,7.18c-3.003,0.503-5.477,2.636-6.419,5.533s-0.193,6.075,1.94,8.249
			l30.392,30.956l-6.392,42.908c-0.449,3.012,0.815,6.023,3.279,7.813c2.462,1.79,5.718,2.06,8.444,0.704l38.832-19.338
			l38.833,19.337c1.153,0.574,2.4,0.857,3.641,0.857c1.696,0,3.381-0.527,4.803-1.561c2.464-1.79,3.728-4.802,3.279-7.813
			l-6.392-42.908l30.392-30.956C162.301,426.589,163.049,423.409,162.108,420.513z M115.267,451.174
			c-1.794,1.829-2.629,4.393-2.251,6.927l4.681,31.427l-28.441-14.164c-2.293-1.142-4.99-1.143-7.285,0l-28.442,14.164l4.681-31.427
			c0.378-2.534-0.455-5.099-2.251-6.927L33.7,428.502l31.336-5.258c2.527-0.424,4.709-2.009,5.893-4.281l14.685-28.176
			l14.685,28.176c1.184,2.272,3.366,3.857,5.893,4.281l31.334,5.258L115.267,451.174z"
                      />
                    </g>
                  </g>
                  <g>
                    <g>
                      <path
                        d="M332.496,420.513c-0.941-2.896-3.415-5.029-6.419-5.533l-42.783-7.18l-20.05-38.471c-1.407-2.699-4.201-4.393-7.245-4.393
			c-3.045,0-5.838,1.694-7.245,4.394l-20.05,38.471l-42.782,7.18c-3.003,0.503-5.477,2.636-6.419,5.533
			c-0.941,2.897-0.194,6.075,1.94,8.249l30.392,30.956l-6.392,42.908c-0.449,3.012,0.815,6.023,3.279,7.813
			c2.462,1.79,5.717,2.061,8.444,0.704L256,491.805l38.832,19.337c1.153,0.574,2.4,0.857,3.641,0.857
			c1.696,0,3.381-0.527,4.803-1.56c2.464-1.791,3.728-4.802,3.279-7.814l-6.391-42.908l30.392-30.956
			C332.689,426.589,333.437,423.409,332.496,420.513z M285.654,451.174c-1.794,1.829-2.629,4.393-2.251,6.927l4.681,31.427
			l-28.441-14.163c-1.147-0.571-2.394-0.857-3.642-0.857s-2.496,0.285-3.642,0.857l-28.441,14.163l4.681-31.427
			c0.378-2.535-0.455-5.099-2.251-6.927l-22.26-22.673l31.336-5.258c2.527-0.424,4.709-2.009,5.893-4.281L256,390.785l14.685,28.176
			c1.184,2.272,3.366,3.857,5.893,4.281l31.335,5.258L285.654,451.174z"
                      />
                    </g>
                  </g>
                  <g>
                    <g>
                      <path
                        d="M502.882,420.513c-0.941-2.897-3.415-5.029-6.419-5.533l-42.782-7.18l-20.05-38.471c-1.407-2.701-4.2-4.394-7.245-4.394
			s-5.838,1.694-7.245,4.394l-20.05,38.471l-42.783,7.18c-3.003,0.503-5.477,2.636-6.419,5.533s-0.194,6.075,1.94,8.249
			l30.392,30.956l-6.392,42.908c-0.449,3.012,0.815,6.023,3.279,7.813c2.462,1.79,5.717,2.06,8.444,0.704l38.833-19.338
			l38.832,19.337c1.153,0.574,2.4,0.857,3.641,0.857c1.696,0,3.381-0.527,4.803-1.561c2.464-1.79,3.728-4.802,3.279-7.813
			l-6.392-42.908l30.392-30.956C503.075,426.589,503.823,423.41,502.882,420.513z M456.04,451.174
			c-1.795,1.829-2.629,4.393-2.251,6.927l4.681,31.427l-28.441-14.163c-2.293-1.142-4.99-1.143-7.285,0l-28.442,14.164l4.681-31.427
			c0.378-2.534-0.455-5.099-2.251-6.927l-22.26-22.673l31.336-5.258c2.527-0.424,4.709-2.009,5.893-4.281l14.685-28.176
			l14.685,28.176c1.184,2.272,3.366,3.857,5.893,4.281l31.334,5.258L456.04,451.174z"
                      />
                    </g>
                  </g>
                  <g>
                    <g>
                      <path
                        d="M387.814,0.011c-4.512,0-8.17,3.658-8.17,8.17v51.745h-16.34V8.181c0-4.512-3.658-8.17-8.17-8.17
			c-4.512,0-8.17,3.658-8.17,8.17v51.745h-16.34V8.181c0-4.512-3.658-8.17-8.17-8.17s-8.17,3.658-8.17,8.17v81.702
			c0,12.889,6.157,25.01,16.34,32.67v201.543c0,13.516,10.995,24.511,24.511,24.511c13.516,0,24.511-10.995,24.511-24.511V122.553
			c10.183-7.66,16.34-19.781,16.34-32.67V8.181C395.984,3.669,392.326,0.011,387.814,0.011z M379.644,89.883
			c0,8.716-4.698,16.849-12.262,21.226c-2.524,1.46-4.079,4.155-4.079,7.071v205.916c0,4.506-3.665,8.17-8.17,8.17
			c-4.506,0-8.17-3.665-8.17-8.17V118.18c0-2.916-1.555-5.611-4.079-7.071c-7.563-4.377-12.262-12.51-12.262-21.226V76.266h49.021
			V89.883z"
                      />
                    </g>
                  </g>
                  <g>
                    <g>
                      <path
                        d="M445.006,0c-18.02,0-32.681,14.661-32.681,32.681v128c0,18.02,14.661,32.681,32.681,32.681h16.34v130.723
			c0,4.506-3.665,8.17-8.17,8.17c-4.506,0-8.17-3.665-8.17-8.17V217.872c0-4.512-3.658-8.17-8.17-8.17s-8.17,3.658-8.17,8.17
			v106.213c0,13.516,10.995,24.511,24.511,24.511c13.516,0,24.511-10.995,24.511-24.511V32.681C477.686,14.661,463.026,0,445.006,0z
			 M461.346,177.021h-16.34c-9.01,0-16.34-7.33-16.34-16.34v-128c0-9.01,7.33-16.34,16.34-16.34c9.01,0,16.34,7.33,16.34,16.34
			V177.021z"
                      />
                    </g>
                  </g>
                  <g>
                    <g>
                      <path
                        d="M174.299,0c-50.758,0-92.051,41.294-92.051,92.051c0,50.757,41.294,92.051,92.051,92.051
			c50.757,0,92.051-41.294,92.051-92.051C266.35,41.294,225.057,0,174.299,0z M174.299,167.762
			c-41.747,0-75.711-33.964-75.711-75.711s33.964-75.711,75.711-75.711s75.711,33.964,75.711,75.711
			S216.046,167.762,174.299,167.762z"
                      />
                    </g>
                  </g>
                  <g>
                    <g>
                      <path
                        d="M195.01,101.08c-4.25-1.509-8.924,0.709-10.435,4.962c-1.543,4.338-5.672,7.252-10.276,7.252s-8.734-2.914-10.276-7.252
			c-1.512-4.252-6.184-6.471-10.435-4.962c-4.252,1.512-6.473,6.183-4.962,10.435c3.854,10.838,14.17,18.119,25.673,18.119
			c11.503,0,21.82-7.281,25.673-18.119C201.483,107.263,199.262,102.592,195.01,101.08z"
                      />
                    </g>
                  </g>
                  <g>
                    <g>
                      <path
                        d="M174.299,200.453c-31.423,0-61.116,10.178-85.872,29.433c-3.561,2.77-4.203,7.903-1.432,11.464
			c2.769,3.562,7.902,4.203,11.466,1.432c21.86-17.003,48.084-25.991,75.839-25.991c65.43,0,119.153,51.091,123.376,115.472H50.919
			c1.594-24.783,10.445-48.082,25.84-67.814c2.776-3.558,2.142-8.692-1.416-11.467c-3.558-2.777-8.693-2.141-11.467,1.416
			c-19.337,24.785-29.559,54.537-29.559,86.036c-0.001,4.512,3.657,8.17,8.169,8.17h263.626c4.512,0,8.17-3.658,8.17-8.17
			C314.282,263.25,251.486,200.453,174.299,200.453z"
                      />
                    </g>
                  </g>
                  <g></g>
                  <g></g>
                  <g></g>
                  <g></g>
                  <g></g>
                  <g></g>
                  <g></g>
                  <g></g>
                  <g></g>
                  <g></g>
                  <g></g>
                  <g></g>
                  <g></g>
                  <g></g>
                  <g></g>
                </svg>