<?xml version="1.0" encoding="iso-8859-1"?>
<!-- Generator: Adobe Illustrator 19.0.0, SVG Export Plug-In . SVG Version: 6.00 Build 0)  -->
<svg xmlns="http://www.w3.org/2000/svg" xmlns:xlink="http://www.w3.org/1999/xlink" version="1.1" id="Capa_1" x="0px" y="0px" viewBox="0 0 470 470" style="enable-background:new 0 0 470 470;" xml:space="preserve" width="512" height="512">
<g>
	<polygon style="fill:#FDCE6E;" points="141.683,388.336 111.16,419.414 117.581,462.5 78.587,443.085 65.171,396.859 78.587,342.5    98.721,381.13  "/>
	<polygon style="fill:#FDFA7B;" points="78.587,342.5 78.587,443.085 39.603,462.5 46.014,419.414 15.501,388.336 58.463,381.13     "/>
	<polygon style="fill:#FDCE6E;" points="298.092,388.336 267.57,419.414 273.99,462.5 234.997,443.085 221.58,396.859    234.997,342.5 255.131,381.13  "/>
	<polygon style="fill:#FDFA7B;" points="234.997,342.5 234.997,443.085 196.012,462.5 202.424,419.414 171.911,388.336    214.872,381.13  "/>
	<polygon style="fill:#FDCE6E;" points="454.501,388.336 423.979,419.414 430.4,462.5 391.406,443.085 377.99,396.859    391.406,342.5 411.54,381.13  "/>
	<polygon style="fill:#FDFA7B;" points="391.406,342.5 391.406,443.085 352.422,462.5 358.833,419.414 328.32,388.336    371.282,381.13  "/>
	<path style="fill:#99D9FF;" d="M296.002,62.51v20c0,11.102,6.036,20.789,15,25.977V297.51c0,8.284,6.716,15,15,15s15-6.716,15-15   V108.487c8.964-5.188,15-14.874,15-25.977v-20H296.002z"/>
	<polygon style="fill:#66C6FE;" points="430.992,170 430.992,200 415.992,227.51 400.992,200 400.992,155.01  "/>
	<path style="fill:#99D9FF;" d="M430.992,200v97.51c0,8.28-6.72,15-15,15s-15-6.72-15-15V200H430.992z"/>
	<path style="fill:#99D9FF;" d="M408.502,7.5c-12.427,0-22.5,10.074-22.5,22.5v117.5c0,12.427,10.073,22.5,22.5,22.5h22.5   c0-64.949,0-140,0-140C431.002,17.574,420.928,7.5,408.502,7.5z"/>
	<path style="fill:#EF431D;" d="M160.001,191.51l91,121h30C281.001,245.68,226.832,191.51,160.001,191.51z"/>
	<path style="fill:#FE9F88;" d="M160.001,7.5v154c42.53,0,77-34.47,77-77S202.531,7.5,160.001,7.5z"/>
	<path style="fill:#FD7555;" d="M160.001,191.51c50.26,0,91,54.17,91,121h-212C39.001,245.68,93.171,191.51,160.001,191.51z"/>
	<path style="fill:#FEC8BB;" d="M160.001,7.5c25.96,0,47,34.47,47,77s-21.04,77-47,77c-42.53,0-77-34.47-77-77   S117.471,7.5,160.001,7.5z"/>
	<path d="M142.919,380.939l-39.273-6.591l-18.405-35.315C83.95,336.555,81.386,335,78.591,335s-5.359,1.555-6.651,4.034   l-18.405,35.315l-39.273,6.591c-2.757,0.462-5.028,2.42-5.892,5.079s-0.177,5.577,1.781,7.572l27.899,28.417l-5.868,39.388   c-0.412,2.765,0.748,5.529,3.01,7.172c2.26,1.643,5.249,1.891,7.751,0.646l35.647-17.752l35.647,17.751   c1.058,0.527,2.203,0.787,3.342,0.787c1.557,0,3.104-0.484,4.409-1.433c2.262-1.643,3.422-4.408,3.01-7.172l-5.868-39.388   l27.899-28.417c1.958-1.995,2.645-4.914,1.781-7.572S145.676,381.402,142.919,380.939z M105.811,414.164   c-1.647,1.679-2.413,4.033-2.066,6.359l4.297,28.849L81.934,436.37c-2.105-1.048-4.581-1.049-6.687,0l-26.109,13.002l4.297-28.849   c0.347-2.326-0.418-4.681-2.066-6.359l-20.434-20.813l28.765-4.827c2.32-0.389,4.323-1.844,5.41-3.93l13.48-25.865l13.48,25.865   c1.087,2.086,3.09,3.541,5.41,3.93l28.764,4.827L105.811,414.164z"/>
	<path d="M299.329,380.939l-39.273-6.591l-18.405-35.315C240.359,336.555,237.795,335,235,335s-5.359,1.555-6.651,4.034   l-18.405,35.315l-39.273,6.591c-2.757,0.462-5.028,2.42-5.892,5.079s-0.178,5.577,1.781,7.572l27.899,28.417l-5.868,39.388   c-0.412,2.765,0.748,5.529,3.01,7.172c2.26,1.643,5.248,1.892,7.751,0.646L235,451.462l35.647,17.751   c1.058,0.527,2.203,0.787,3.342,0.787c1.557,0,3.104-0.484,4.409-1.432c2.262-1.644,3.422-4.408,3.01-7.173l-5.867-39.388   l27.899-28.417c1.958-1.995,2.645-4.914,1.781-7.572S302.086,381.402,299.329,380.939z M262.221,414.164   c-1.647,1.679-2.413,4.033-2.066,6.359l4.297,28.849l-26.108-13.001c-1.053-0.524-2.198-0.787-3.343-0.787   s-2.291,0.262-3.343,0.787l-26.108,13.001l4.297-28.849c0.347-2.327-0.418-4.681-2.066-6.359l-20.434-20.813l28.765-4.827   c2.32-0.389,4.323-1.844,5.41-3.93L235,358.728l13.48,25.865c1.087,2.086,3.09,3.541,5.41,3.93l28.765,4.827L262.221,414.164z"/>
	<path d="M461.63,386.018c-0.864-2.659-3.135-4.616-5.892-5.079l-39.273-6.591l-18.405-35.315c-1.292-2.479-3.855-4.034-6.651-4.034   s-5.359,1.555-6.651,4.034l-18.405,35.315l-39.273,6.591c-2.757,0.462-5.028,2.42-5.892,5.079s-0.178,5.577,1.781,7.572   l27.899,28.417l-5.868,39.388c-0.412,2.765,0.748,5.529,3.01,7.172c2.26,1.643,5.248,1.891,7.751,0.646l35.647-17.752   l35.647,17.751c1.058,0.527,2.203,0.787,3.342,0.787c1.557,0,3.104-0.484,4.409-1.433c2.262-1.643,3.422-4.408,3.01-7.172   l-5.868-39.388l27.899-28.417C461.807,391.595,462.494,388.677,461.63,386.018z M418.63,414.164   c-1.648,1.679-2.413,4.033-2.066,6.359l4.297,28.849l-26.108-13.001c-2.105-1.048-4.581-1.049-6.687,0l-26.109,13.002l4.297-28.849   c0.347-2.326-0.418-4.681-2.066-6.359l-20.434-20.813l28.765-4.827c2.32-0.389,4.323-1.844,5.41-3.93l13.48-25.865l13.48,25.865   c1.087,2.086,3.09,3.541,5.41,3.93l28.764,4.827L418.63,414.164z"/>
	<path d="M348.501,297.51V112.5c9.348-7.032,15-18.158,15-29.99v-75c0-4.142-3.358-7.5-7.5-7.5s-7.5,3.358-7.5,7.5v47.5h-15V7.51   c0-4.142-3.358-7.5-7.5-7.5s-7.5,3.358-7.5,7.5v47.5h-15V7.51c0-4.142-3.358-7.5-7.5-7.5s-7.5,3.358-7.5,7.5v75   c0,11.832,5.652,22.958,15,29.99v185.01c0,12.407,10.093,22.5,22.5,22.5S348.501,309.917,348.501,297.51z M318.501,297.51V108.486   c0-2.677-1.427-5.151-3.744-6.491c-6.943-4.018-11.256-11.484-11.256-19.485v-12.5h45v12.5c0,8.001-4.313,15.467-11.256,19.485   c-2.317,1.34-3.744,3.814-3.744,6.491V297.51c0,4.136-3.364,7.5-7.5,7.5S318.501,301.646,318.501,297.51z"/>
	<path d="M408.501,177.5h15v120c0,4.136-3.364,7.5-7.5,7.5s-7.5-3.364-7.5-7.5V200c0-4.142-3.358-7.5-7.5-7.5s-7.5,3.358-7.5,7.5   v97.5c0,12.407,10.093,22.5,22.5,22.5s22.5-10.093,22.5-22.5V30c0-16.542-13.458-30-30-30s-30,13.458-30,30v117.5   C378.501,164.042,391.959,177.5,408.501,177.5z M393.501,30c0-8.271,6.729-15,15-15s15,6.729,15,15v132.5h-15   c-8.271,0-15-6.729-15-15V30z"/>
	<path d="M160.001,169c46.593,0,84.5-37.907,84.5-84.5S206.595,0,160.001,0s-84.5,37.907-84.5,84.5S113.408,169,160.001,169z    M160.001,15c38.322,0,69.5,31.178,69.5,69.5s-31.178,69.5-69.5,69.5s-69.5-31.178-69.5-69.5S121.679,15,160.001,15z"/>
	<path d="M160.001,119c10.559,0,20.03-6.684,23.567-16.633c1.387-3.903-0.652-8.191-4.555-9.579   c-3.901-1.385-8.192,0.651-9.579,4.555c-1.416,3.982-5.207,6.657-9.433,6.657s-8.018-2.675-9.433-6.657   c-1.388-3.903-5.677-5.94-9.579-4.555c-3.903,1.388-5.942,5.676-4.555,9.579C139.972,112.316,149.442,119,160.001,119z"/>
	<path d="M39.001,320.01h242c4.142,0,7.5-3.358,7.5-7.5c0-70.855-57.645-128.5-128.5-128.5c-28.845,0-56.103,9.343-78.828,27.019   c-3.269,2.543-3.858,7.255-1.315,10.524c2.542,3.27,7.254,3.858,10.525,1.315c20.067-15.608,44.14-23.859,69.618-23.859   c60.063,0,109.379,46.9,113.255,106H46.742c1.463-22.75,9.588-44.138,23.72-62.251c2.548-3.266,1.966-7.979-1.3-10.526   c-3.266-2.549-7.98-1.965-10.526,1.3c-17.751,22.752-27.134,50.063-27.134,78.978C31.501,316.652,34.859,320.01,39.001,320.01z"/>
</g>
</svg>
