<svg id="Flat" height="27" viewBox="0 0 512 512" width="27" xmlns="http://www.w3.org/2000/svg"><path d="m240 24h32v48h-32z" fill="#c2c5c6"/><path d="m288 32h-64a8 8 0 0 1 0-16h64a8 8 0 0 1 0 16z" fill="#d9dbdd"/><path d="m232 56h48a160 160 0 0 1 160 160v24a0 0 0 0 1 0 0h-368a0 0 0 0 1 0 0v-24a160 160 0 0 1 160-160z" fill="#d9dbdd"/><path d="m264 456h96v32h-96z" fill="#e74444"/><path d="m32 232h448a0 0 0 0 1 0 0v16a16 16 0 0 1 -16 16h-416a16 16 0 0 1 -16-16v-16a0 0 0 0 1 0 0z" fill="#c2c5c6"/><path d="m138.909 288-6.646-14.621a16 16 0 0 0 -14.563-9.379h-4.564c-14.592 0-21.568 17.934-10.812 27.794l65.676 60.206v-64z" fill="#deb89a"/><path d="m352 456v-24l6.627-6.627a32 32 0 0 0 9.373-22.628v-50.745l29.718-65.379a16 16 0 0 0 -14.566-22.621h-13.652a16 16 0 0 0 -14.046 8.338l-43.454 79.662-32 8-80-32-27.578-55.155a16 16 0 0 0 -14.311-8.845h-5.263a16 16 0 0 0 -14.566 22.621l29.718 65.379 120 104z" fill="#f5cbaa"/></svg>
