<svg id="Capa_1" enable-background="new 0 0 512 512" height="22" viewBox="0 0 512 512" width="22" xmlns="http://www.w3.org/2000/svg"><g><g><path d="m421.458 314.202c-15.295-6.81-39.862-12.957-73.005-18.277-1.937-.784-3.948-1.428-6.037-1.879l-23.356-5.037c-.89-1.31-1.372-2.85-1.372-4.476v-40.583c17.274-15.903 28.475-36.888 30.993-57.801h3.611c13.131 0 23.815-10.683 23.815-23.814v-18.08c0-7.281-3.281-14.014-8.793-18.483-.001-4.436-.003-12.749-.005-25.824-.001-4.142-3.359-7.499-7.501-7.498s-7.499 3.359-7.498 7.5c.002 10.195.003 17.5.004 22.328-4.414-.096-5.903.267-8.306-.469-.018-.006-.035-.011-.053-.016-4.475-1.4-7.481-5.492-7.481-10.19v-34.678c0-13.78-11.211-24.991-24.991-24.991h-2.04c-19.381 0-24.892 9.058-52.579 9.058-27.421 0-33.354-9.058-52.579-9.058h-3.767c-13.78 0-24.991 11.211-24.991 24.991v34.678c0 4.684-2.994 8.772-7.448 10.18-.018.006-.036.012-.055.017-2.423.75-3.938.381-8.339.478v-48.063c0-32.652 26.564-59.216 59.216-59.216h74.179c29.372 0 54.586 21.9 58.649 50.941.574 4.101 4.361 6.956 8.466 6.388 4.102-.574 6.962-4.365 6.388-8.466-5.093-36.407-36.693-63.862-73.502-63.862h-74.179c-40.923 0-74.215 33.292-74.215 74.215v51.559c-5.511 4.468-8.792 11.201-8.792 18.482v18.08c0 13.132 10.683 23.814 23.814 23.814h3.536c2.361 23.077 13.441 44.566 31.067 59.874v38.511c0 1.627-.482 3.166-1.372 4.476l-23.357 5.037c-2.089.451-4.1 1.095-6.037 1.879-33.142 5.32-57.71 11.467-73.005 18.277-29.895 13.31-49.212 43.056-49.212 75.781v22.171c0 4.142 3.358 7.499 7.499 7.499s7.499-3.357 7.499-7.499v-22.171c0-26.807 15.824-51.175 40.314-62.079 10.458-4.656 26.588-9.165 47.301-13.26-1.174 2.56-2.077 5.273-2.645 8.114l-5.388 26.928c-2.432 12.16 6.005 23.85 18.314 25.368 4.366.538 6.164 5.914 2.942 8.96l-4.568 4.319c-9.178 8.679-8.546 23.154-.283 30.732l84.494 77.936h-105.866v-32.048c0-4.142-3.358-7.499-7.499-7.499-4.142 0-7.499 3.357-7.499 7.499v32.048h-45.303c-7.892 0-14.313-6.42-14.313-14.312v-35.371c0-4.142-3.358-7.499-7.499-7.499s-7.499 3.357-7.499 7.499v35.371c0 16.16 13.149 29.309 29.311 29.309h370.717c16.162 0 29.312-13.149 29.312-29.311v-92.705c0-32.726-19.317-62.471-49.212-75.782zm-82.204-5.494c8.47 1.827 15.042 8.497 16.742 16.994l5.387 26.928c.723 3.61-1.764 7.085-5.442 7.539-16.979 2.093-23.826 23.006-11.411 34.743l4.567 4.319c2.557 2.419 2.648 6.423.263 8.954l-75.442 69.587 41.58-112.058c.017-.047.034-.094.051-.142 6.713-19.265 9.45-39.892 8.051-60.24zm-83.337-36.975h.083s.056 0 .083 0c21.53-.24 35.246-6.963 46.606-15.329v28.13c0 3.382.764 6.701 2.174 9.723l-48.863 37.989-48.863-37.989c1.41-3.022 2.174-6.341 2.174-9.723v-26.837c11.785 7.841 26.157 13.807 46.606 14.036zm-9.344 107.773-9.329-19.895 18.756-9.466 18.756 9.466-9.329 19.895zm35.937 31.992-4.494-23.512 10.136-21.615 9.352 4.72zm20.12-54.62-32.669-16.487 38.87-30.22c.642 15.772-1.449 31.652-6.201 46.707zm-60.591-16.487-32.669 16.487c-4.753-15.055-6.843-30.935-6.201-46.708zm-18.191 25.98 10.136 21.615-4.494 23.512-14.994-40.407zm24.161 28.134h15.983l8.44 44.156-16.432 44.282-16.431-44.282zm109.656-257.228c2.149 1.654 3.442 4.205 3.442 6.978v18.08c0 4.861-3.955 8.816-8.816 8.816h-3.074l.026-33.873h8.422zm-206.772 25.058v-18.08c0-2.773 1.294-5.326 3.444-6.979l8.449.001.002 33.873h-3.079c-4.861 0-8.816-3.954-8.816-8.815zm26.895 16.231-.003-44.782c7.792-4.518 12.74-12.852 12.74-22.18v-34.679c0-5.51 4.483-9.992 9.992-9.992h3.767c14.597 0 23.782 9.058 52.579 9.058 28.896 0 37.647-9.058 52.579-9.058h2.04c5.51 0 9.992 4.482 9.992 9.992v34.678c0 9.348 4.961 17.687 12.773 22.199l-.035 44.762c-.457 20.088-11.264 41.148-28.917 56.349-13.967 12.025-25.002 21.528-49.295 21.82-22.434-.27-36.553-8.854-51.611-21.82-16.422-14.139-26.115-34.672-26.601-56.347zm-14.885 220.665 4.568-4.319c12.427-11.749 5.547-32.653-11.411-34.743-3.644-.45-6.172-3.897-5.443-7.539l5.388-26.928c1.7-8.496 8.272-15.167 16.741-16.994l15.656-3.376c-1.399 20.348 1.338 40.975 8.051 60.24.017.048.034.095.051.142l41.58 112.058-75.442-69.587c-2.381-2.526-2.299-6.531.261-8.954zm292.769 83.458c0 7.892-6.421 14.312-14.313 14.312h-45.302v-32.048c0-4.142-3.358-7.499-7.499-7.499s-7.499 3.357-7.499 7.499v32.048h-105.868l84.494-77.936c8.222-7.541 8.942-22.009-.284-30.732l-4.568-4.32c-3.196-3.021-1.458-8.417 2.943-8.959 12.308-1.518 20.747-13.207 18.313-25.368l-5.388-26.928c-.568-2.841-1.471-5.554-2.645-8.114 20.712 4.095 36.843 8.604 47.3 13.26 24.49 10.904 40.314 35.272 40.314 62.079v92.706z"/></g></g></svg>