<svg id="Layer_1" enable-background="new 0 0 256 256" height="28px" viewBox="0 0 256 256" width="26px" xmlns="http://www.w3.org/2000/svg"><g><path d="m198.885 98.9h-28.79c-1.381 0-2.5-1.119-2.5-2.5v-40.568c0-1.381 1.119-2.5 2.5-2.5h28.79c1.381 0 2.5 1.119 2.5 2.5v40.568c0 1.381-1.119 2.5-2.5 2.5zm-26.29-5h23.79v-35.568h-23.79z" /><g ><path d="m207.45 39.804h-24.16v-11.481c0-1.381-1.119-2.5-2.5-2.5h-105.58c-1.381 0-2.5 1.119-2.5 2.5v11.481h-24.16c-5.014 0-9.094 4.08-9.094 9.094v96.75c0 5.015 4.08 9.094 9.094 9.094h14.907c1.381 0 2.5-1.119 2.5-2.5s-1.119-2.5-2.5-2.5h-14.907c-2.257 0-4.094-1.836-4.094-4.094v-29.131c0-2.257 1.836-4.094 4.094-4.094h158.9c2.257 0 4.094 1.837 4.094 4.094v29.131c0 2.258-1.836 4.094-4.094 4.094h-14.907c-1.381 0-2.5 1.119-2.5 2.5s1.119 2.5 2.5 2.5h14.907c5.014 0 9.094-4.08 9.094-9.094v-96.75c0-5.014-4.08-9.094-9.094-9.094zm-129.74-8.981h100.58v8.981h-100.58zm129.74 76.6h-158.9c-1.473 0-2.862.36-4.094.985v-59.51c0-2.257 1.836-4.094 4.094-4.094h158.9c2.257 0 4.094 1.836 4.094 4.094v59.51c-1.232-.625-2.62-.985-4.094-.985z"/><path d="m197.476 124.855v13.648h-4.933c-1.381 0-2.5 1.119-2.5 2.5s1.119 2.5 2.5 2.5h7.433c1.381 0 2.5-1.119 2.5-2.5v-18.648c0-1.381-1.119-2.5-2.5-2.5h-143.298c-1.381 0-2.5 1.119-2.5 2.5v18.648c0 1.381 1.119 2.5 2.5 2.5h6.779c1.381 0 2.5-1.119 2.5-2.5s-1.119-2.5-2.5-2.5h-4.279v-13.648h13.532v102.822c0 1.381 1.119 2.5 2.5 2.5h105.58c1.381 0 2.5-1.119 2.5-2.5v-102.822zm-19.186 100.322h-100.58v-100.322h100.58z"/></g><path d="m145.375 150.006c-1.995 0-3.922.427-5.691 1.25-2.403-4.067-6.791-6.643-11.684-6.643s-9.28 2.575-11.684 6.643c-1.77-.824-3.696-1.25-5.691-1.25-7.49 0-13.584 6.094-13.584 13.584 0 4.797 2.54 9.204 6.59 11.639v24.938c0 1.381 1.119 2.5 2.5 2.5h43.138c1.381 0 2.5-1.119 2.5-2.5v-24.605c4.362-2.338 7.189-6.95 7.189-11.972.001-7.49-6.093-13.584-13.583-13.584zm-36.744 47.662v-7.697h38.138v7.697zm39.759-26.051c-.975.367-1.621 1.299-1.621 2.34v11.014h-38.138v-11.253c0-.988-.582-1.883-1.484-2.285-3.102-1.379-5.106-4.457-5.106-7.842 0-4.733 3.851-8.584 8.584-8.584 1.921 0 3.743.629 5.269 1.82.646.504 1.498.658 2.279.417.782-.243 1.396-.854 1.643-1.634 1.133-3.585 4.422-5.994 8.185-5.994s7.052 2.409 8.185 5.994c.247.781.86 1.391 1.643 1.634.78.241 1.633.087 2.279-.417 1.525-1.19 3.347-1.82 5.269-1.82 4.733 0 8.584 3.851 8.584 8.584-.002 3.548-2.24 6.774-5.571 8.026z" /></g></svg>
