<?xml version="1.0"?>
<svg xmlns="http://www.w3.org/2000/svg" xmlns:xlink="http://www.w3.org/1999/xlink" xmlns:svgjs="http://svgjs.com/svgjs" version="1.1" width="512" height="512" x="0" y="0" viewBox="0 0 420 420" style="enable-background:new 0 0 512 512" xml:space="preserve" class=""><g>
<g xmlns="http://www.w3.org/2000/svg">
	<g>
		<path d="M410.4,171.8c-6-6-14.4-9.6-23.2-9.6H218.4c2-16.8,20.4-22,38.4-27.2c24-6.8,47.6-13.6,49.2-40.8c0-0.4,0-0.8,0-1.2    c0-4.8-4-8.4-8.4-8.4c-4.8,0-8.4,4-8.4,8.4c-0.8,15.2-18.8,20.4-36.8,25.6c-24.8,7.2-50,14.4-50.8,43.2H32.8    c-8.8,0-17.2,3.6-23.2,9.6S0,185.8,0,194.6v108c0,8.8,3.6,17.2,9.6,23.2s14.4,9.6,23.2,9.6h354.4c8.8,0,17.2-3.6,23.2-9.6    s9.6-14.4,9.6-23.2v-108C420,186.2,416.8,177.8,410.4,171.8z M330,202.6c0-3.2,2.8-5.6,6-5.6h36.4c3.2,0,6,2.8,6,6v13.6    c0,3.2-2.8,6-6,6H336c-3.2,0-6-2.8-6-6V202.6z M196,202.6h0.4c0-3.2,2.8-5.6,6-5.6H216c3.2,0,6,2.8,6,6v13.6c0,3.2-2.8,6-6,6h-14    c-3.2,0-6-2.8-6-6V202.6z M196,241.8h0.4c0-3.2,2.8-6,6-6H216c3.2,0,6,2.4,6,5.6c0,0,0,0,0,0.4v13.6c0,3.2-2.8,6-6,6h-14    c-3.2,0-6-2.8-6-6V241.8z M155.2,202.6h0.4c0-3.2,2.8-5.6,6-5.6h13.6c3.2,0,5.6,2.8,5.6,6v13.6c0,3.2-2.8,6-6,6h-13.6    c-3.2,0-6-2.8-6-6V202.6z M181.2,241.8v13.6c0,3.2-2.8,6-6,6h-13.6c-3.2,0-6-2.8-6-6v-13.6c0-3.2,2.8-6,6-6h13.6    C178.4,235.8,181.2,238.6,181.2,241.8z M58.4,295.4c0,3.2-2.8,6-6,6H38.8c-3.2,0-6-2.8-6-6v-13.6c0-3.2,2.8-6,6-6h13.6    c3.2,0,6,2.8,6,6V295.4z M58.4,255.8c0,3.2-2.8,6-6,6H38.8c-3.2,0-6-2.8-6-6v-13.6c0-3.2,2.8-6,6-6h13.6c3.2,0,6,2.8,6,6V255.8z     M58.4,216.2c0,3.2-2.8,6-6,6H38.8c-3.2,0-6-2.8-6-6v-13.6c0-3.2,2.8-5.6,6-5.6h13.6c3.2,0,6,2.4,6,5.6V216.2z M99.2,295.4    c0,3.2-2.8,6-6,6H79.6c-3.2,0-5.6-2.8-5.6-6v-13.6c0-3.2,2.4-5.6,5.6-6h13.6c3.2,0,6,2.8,6,6V295.4z M99.2,255.8c0,3.2-2.8,6-6,6    H79.6c-3.2,0-5.6-2.8-5.6-6v-13.6c0-3.2,2.4-5.6,5.6-6h13.6c3.2,0,6,2.8,6,6V255.8z M99.6,216.2h-0.4c0,3.2-2.8,6-6,6H79.6    c-3.2,0-5.6-2.8-5.6-5.6v-14c0-3.2,2.8-6,6-6h13.6c3.2,0,5.6,2.4,6,5.6V216.2z M140,295.4c0,3.2-2.8,6-6,6h-13.6c-3.2,0-6-2.8-6-6    v-13.6c0-3.2,2.8-6,6-6H134c3.2,0,6,2.8,6,6V295.4z M140,255.8c0,3.2-2.8,6-6,6h-13.6c-3.2,0-6-2.8-6-6v-13.6c0-3.2,2.8-6,6-6H134    c3.2,0,6,2.8,6,6V255.8z M134,222.2h-13.6c-3.2,0-6-2.8-6-6v-13.6c0-3.2,2.8-5.6,6-5.6H134c3.2,0,5.6,2.8,5.6,6v13.2h0.4    C140,219.4,137.2,222.2,134,222.2z M256,295.4c0,3.2-2.8,6-6,6h-88.8c-3.2,0-6-2.8-6-6v-13.6c0-3.2,2.8-6,6-6H250c3.2,0,6,2.8,6,6    V295.4z M262.8,255.8c0,3.2-2.8,6-6,6h-13.6c-3.2,0-6-2.8-6-6v-13.6c0-3.2,2.8-6,6-6h13.6c3.2,0,6,2.8,6,6V255.8z M262.8,216.2    c0,3.2-2.8,6-6,6h-13.6c-3.2,0-6-2.8-6-6v-13.6c0-3.2,2.8-5.6,6-5.6h13.6c3.2,0,6,2.8,6,6V216.2z M303.6,295.4c0,3.2-2.8,6-6,6    H284c-3.2,0-6-2.4-6-6v-13.6c0-3.2,2.8-6,6-6h13.6c3.2,0,6,2.8,6,6V295.4z M303.6,255.8c0,3.2-2.8,6-6,6H284c-3.2,0-6-2.4-6-6    v-13.6c0-3.2,2.8-6,6-6h13.6c3.2,0,6,2.8,6,6V255.8z M303.6,216.2c0,3.2-2.8,6-6,6H284c-3.2,0-6-2.4-6-5.6v-14    c0-3.2,2.8-5.6,6-5.6h14c3.2,0,5.6,2.8,5.6,6V216.2z M346.8,295.4c0,3.2-2.8,6-6,6h-13.6c-3.2,0-6-2.8-6-6v-13.6c0-3.2,2.8-6,6-6    h13.6c3.2,0,6,2.8,6,6V295.4z M346.8,255.8c0,3.2-2.8,6-6,6h-13.6c-3.2,0-6-2.8-6-6v-13.6c0-3.2,2.8-6,6-6h13.6c3.2,0,6,2.8,6,6    V255.8z M386.8,295.4c0,3.2-2.8,6-6,6h-13.6c-3.2,0-6-2.8-6-6v-13.6c0-3.2,2.8-6,6-6h13.6c3.2,0,6,2.8,6,6V295.4z M386.8,255.8    c0,3.2-2.8,6-6,6h-13.6c-3.2,0-6-2.8-6-6v-13.6c0-3.2,2.8-6,6-6h13.6c3.2,0,6,2.8,6,6V255.8z" fill="#ff0018" data-original="#000000" style="" class=""/>
	</g>
</g>
<g xmlns="http://www.w3.org/2000/svg">
</g>
<g xmlns="http://www.w3.org/2000/svg">
</g>
<g xmlns="http://www.w3.org/2000/svg">
</g>
<g xmlns="http://www.w3.org/2000/svg">
</g>
<g xmlns="http://www.w3.org/2000/svg">
</g>
<g xmlns="http://www.w3.org/2000/svg">
</g>
<g xmlns="http://www.w3.org/2000/svg">
</g>
<g xmlns="http://www.w3.org/2000/svg">
</g>
<g xmlns="http://www.w3.org/2000/svg">
</g>
<g xmlns="http://www.w3.org/2000/svg">
</g>
<g xmlns="http://www.w3.org/2000/svg">
</g>
<g xmlns="http://www.w3.org/2000/svg">
</g>
<g xmlns="http://www.w3.org/2000/svg">
</g>
<g xmlns="http://www.w3.org/2000/svg">
</g>
<g xmlns="http://www.w3.org/2000/svg">
</g>
</g></svg>
