<?xml version="1.0"?>
<svg xmlns="http://www.w3.org/2000/svg" xmlns:xlink="http://www.w3.org/1999/xlink" version="1.1" id="Capa_1" x="0px" y="0px" viewBox="0 0 512 512" style="enable-background:new 0 0 512 512;" xml:space="preserve" width="35px" height="35px" class=""><g><g>
	<g>
		<rect x="181" y="36.75" width="30" height="85" data-original="#000000" class="active-path" data-old_color="#000000" fill="#448087"/>
	</g>
</g><g>
	<g>
		<rect x="301" y="36.75" width="30" height="85" data-original="#000000" class="active-path" data-old_color="#000000" fill="#448087"/>
	</g>
</g><g>
	<g>
		<rect x="241" y="0.099" width="30" height="90" data-original="#000000" class="active-path" data-old_color="#000000" fill="#448087"/>
	</g>
</g><g>
	<g>
		<path d="M472.039,428.035c-3.548-52.197-25.563-100.783-62.91-138.13c-37.347-37.346-85.933-59.361-138.129-62.909v-35.519h-30    v35.519c-52.196,3.548-100.783,25.563-138.13,62.91c-37.346,37.347-59.361,85.933-62.909,138.129H0v83.866h512v-83.866H472.039z     M124.083,311.118c35.237-35.236,82.086-54.642,131.917-54.642s96.68,19.406,131.917,54.642    c31.677,31.677,50.549,72.74,54.041,116.917H70.042C73.534,383.858,92.407,342.795,124.083,311.118z M482,481.901H30v-23.866h452    V481.901z" data-original="#000000" class="active-path" data-old_color="#000000" fill="#448087"/>
	</g>
</g></g> </svg>
