<?xml version="1.0"?>
<svg xmlns="http://www.w3.org/2000/svg" height="35px" viewBox="0 0 64 64" width="35px" class=""><g><path d="m54 57h2v2h-2z" data-original="#000000" class="active-path" data-old_color="#000000" fill="#448087"/><path d="m60 41.528v-4.528a3 3 0 0 0 -3-3 2.967 2.967 0 0 0 -1.471.4 2.972 2.972 0 0 0 -3.645-1.181 2.95 2.95 0 0 0 -3.884-2.035v-2.184a3 3 0 0 0 -6 0v9.382l-1.051.525a5.336 5.336 0 0 0 -.573 9.212l2.733 1.822a2 2 0 0 1 .891 1.664v1.395h-1a1 1 0 0 0 -1 1v8h2v-7h14v7h2v-8a1 1 0 0 0 -1-1h-1v-2.768a20.046 20.046 0 0 0 2-8.704zm-14 11.472v-1.4a4 4 0 0 0 -1.781-3.328l-2.734-1.822a3.336 3.336 0 0 1 .359-5.759l.156-.073v2.382h2v-14a1 1 0 0 1 2 0v9h2v-4a1 1 0 0 1 2 0v5h2v-3a1 1 0 0 1 2 0v4h2v-3a1 1 0 0 1 2 0v4.528a18.03 18.03 0 0 1 -1.9 8.025 1 1 0 0 0 -.1.447v3z" data-original="#000000" class="active-path" data-old_color="#000000" fill="#448087"/><path d="m58 2h-22a1 1 0 0 0 -.707.293l-3.293 3.293-3.293-3.293a1 1 0 0 0 -.707-.293h-22a1 1 0 0 0 -1 1v58a1 1 0 0 0 1 1h34v-2h-5.586l2-2h3.586v-2h-4a1 1 0 0 0 -.707.293l-2.293 2.293v-51.172l3.414-3.414h20.586v28h2v-29a1 1 0 0 0 -1-1zm-51 2h20.586l3.414 3.414v51.172l-2.293-2.293a1 1 0 0 0 -.707-.293h-21zm0 54h20.586l2 2h-22.586z" data-original="#000000" class="active-path" data-old_color="#000000" fill="#448087"/><path d="m53 22v-14a1 1 0 0 0 -1-1h-14a1 1 0 0 0 -1 1v14a1 1 0 0 0 1 1h14a1 1 0 0 0 1-1zm-2-1h-12v-12h12z" data-original="#000000" class="active-path" data-old_color="#000000" fill="#448087"/><path d="m28 16h-2.08a7 7 0 0 0 -5.92-5.92v-2.08h-2v2.08a7 7 0 0 0 -5.92 5.92h-2.08v2h18zm-9-4a5.009 5.009 0 0 1 4.9 4h-9.8a5.009 5.009 0 0 1 4.9-4z" data-original="#000000" class="active-path" data-old_color="#000000" fill="#448087"/><path d="m10 22h2v2h-2z" data-original="#000000" class="active-path" data-old_color="#000000" fill="#448087"/><path d="m14 22h14v2h-14z" data-original="#000000" class="active-path" data-old_color="#000000" fill="#448087"/><path d="m10 26h13v2h-13z" data-original="#000000" class="active-path" data-old_color="#000000" fill="#448087"/><path d="m10 30h2v2h-2z" data-original="#000000" class="active-path" data-old_color="#000000" fill="#448087"/><path d="m14 30h14v2h-14z" data-original="#000000" class="active-path" data-old_color="#000000" fill="#448087"/><path d="m10 34h13v2h-13z" data-original="#000000" class="active-path" data-old_color="#000000" fill="#448087"/><path d="m10 38h2v2h-2z" data-original="#000000" class="active-path" data-old_color="#000000" fill="#448087"/><path d="m14 38h14v2h-14z" data-original="#000000" class="active-path" data-old_color="#000000" fill="#448087"/><path d="m10 42h13v2h-13z" data-original="#000000" class="active-path" data-old_color="#000000" fill="#448087"/><path d="m10 46h2v2h-2z" data-original="#000000" class="active-path" data-old_color="#000000" fill="#448087"/><path d="m14 46h14v2h-14z" data-original="#000000" class="active-path" data-old_color="#000000" fill="#448087"/><path d="m10 50h13v2h-13z" data-original="#000000" class="active-path" data-old_color="#000000" fill="#448087"/></g> </svg>
