<?xml version="1.0" encoding="iso-8859-1"?>
<!-- Generator: Adobe Illustrator 16.0.0, SVG Export Plug-In . SVG Version: 6.00 Build 0)  -->
<!DOCTYPE svg PUBLIC "-//W3C//DTD SVG 1.1//EN" "http://www.w3.org/Graphics/SVG/1.1/DTD/svg11.dtd">
<svg version="1.1" id="Capa_1" xmlns="http://www.w3.org/2000/svg" xmlns:xlink="http://www.w3.org/1999/xlink" x="0px" y="0px"
	 width="71.379px" height="71.379px" viewBox="0 0 71.379 71.379" style="enable-background:new 0 0 71.379 71.379;"
	 xml:space="preserve">
<g>
	<path d="M42.214,21.818c-0.242-0.435-0.391-1.119-0.443-2.058h-1.82c0,1.182,0.194,2.111,0.584,2.805
		c0.717,1.283,2.069,1.99,4.062,2.119v1.995h0.977v-1.995c1.241-0.14,2.19-0.421,2.847-0.842c1.187-0.765,1.779-2.062,1.779-3.886
		c0-1.259-0.458-2.212-1.387-2.859c-0.57-0.392-1.649-0.811-3.239-1.257v-5.006c0.947,0.036,1.636,0.397,2.066,1.092
		c0.233,0.375,0.375,0.827,0.423,1.345h1.802c-0.034-1.161-0.415-2.093-1.147-2.802C47.99,9.76,46.94,9.356,45.577,9.261V7.915H44.6
		v1.366c-1.376,0.015-2.45,0.439-3.212,1.276c-0.765,0.833-1.147,1.774-1.147,2.816c0,1.166,0.355,2.079,1.063,2.734
		c0.709,0.658,1.809,1.128,3.296,1.41v5.602C43.434,23.028,42.643,22.594,42.214,21.818z M45.57,17.768
		c0.857,0.235,1.466,0.479,1.829,0.735c0.63,0.446,0.946,1.1,0.946,1.958c0,0.537-0.121,1.018-0.349,1.427
		c-0.447,0.799-1.255,1.227-2.427,1.283V17.768z M42.763,14.848c-0.449-0.385-0.68-0.92-0.68-1.596c0-0.561,0.194-1.101,0.575-1.611
		c0.386-0.517,1.028-0.79,1.935-0.825v4.828C43.827,15.497,43.22,15.229,42.763,14.848z M18.761,1.314h52.618v31.972H34.452V22.402
		c1.906,3.959,5.926,6.72,10.618,6.72c6.526,0,11.816-5.293,11.816-11.822c0-6.526-5.29-11.822-11.816-11.822
		c-4.694,0-8.71,2.759-10.618,6.723V4.346l-1.638,0.495l-0.642,0.243c-4.087,1.518-6.414,5.802-6.381,11.742
		c0.021,4.462,0.014,11.804,0.007,16.46h-7.038L18.761,1.314L18.761,1.314z M33.139,35.111V6.198c0,0-0.292,0.058-0.507,0.116
		c-4.492,1.671-5.548,6.677-5.526,10.502c0.032,6.93,0,20.796,0,20.796s-5.803,2.386-8.888,3.962
		c-0.816,0.422-2.086,1.118-2.793,1.072c-0.117-2.297-1.257-4.523-3.289-5.936c-3.497-2.441-8.307-1.585-10.748,1.914
		c-2.128,3.055-1.743,7.112,0.713,9.711c0.161,0.202,0.326,0.408,0.511,0.604c0.539,0.374,1.079,0.748,1.614,1.119
		c1.738,0.785,4.29,1.12,6.22,0.302c1.42-0.607,2.855-1.743,4.279-2.698c4.121-2.781,8.545-4.501,13.21-4.098
		c1.987,4.231,1.91,8.979,0.723,13.808c-0.409,1.665-0.977,3.405-1.051,4.95c-0.103,2.094,1.093,4.37,2.434,5.729
		c0.535,0.374,1.07,0.744,1.611,1.123c0.243,0.104,0.493,0.191,0.74,0.273c3.29,1.405,7.23,0.355,9.358-2.691
		c2.438-3.499,1.581-8.306-1.918-10.749c-2.037-1.419-4.511-1.715-6.708-1.031c-0.292-0.643-0.07-2.08,0.04-2.992
		c0.412-3.439,0.753-6.538,0.645-9.718c5.938-2.253,12.995-4.819,19.513-7.183c0.244-0.089,0.495-0.187,0.743-0.29H34.08
		C33.479,34.999,33.139,35.111,33.139,35.111z M11.179,45.453c-1.331,1.914-3.958,2.386-5.871,1.05
		c-1.912-1.333-2.385-3.96-1.052-5.876c1.331-1.907,3.961-2.38,5.875-1.045C12.043,40.914,12.511,43.542,11.179,45.453z
		 M37.831,58.894c1.911,1.332,2.384,3.96,1.051,5.873c-1.33,1.909-3.962,2.382-5.875,1.043c-1.91-1.327-2.38-3.953-1.049-5.867
		C33.291,58.026,35.92,57.557,37.831,58.894z"/>
</g>
<g>
</g>
<g>
</g>
<g>
</g>
<g>
</g>
<g>
</g>
<g>
</g>
<g>
</g>
<g>
</g>
<g>
</g>
<g>
</g>
<g>
</g>
<g>
</g>
<g>
</g>
<g>
</g>
<g>
</g>
</svg>
