<?xml version="1.0"?>
<svg xmlns="http://www.w3.org/2000/svg" height="35px" viewBox="0 0 64 64" width="35px" class=""><g><path d="m57 35h-50a2.006 2.006 0 0 1 -2-2v4a2.006 2.006 0 0 0 2 2h50a2.006 2.006 0 0 0 2-2v-4a2.006 2.006 0 0 1 -2 2z" fill="#009986" data-original="#009986" class="active-path" style="fill:#448087" data-old_color="#009986"/><path d="m57 31h-50a2.006 2.006 0 0 1 -2-2v4a2.006 2.006 0 0 0 2 2h50a2.006 2.006 0 0 0 2-2v-4a2.006 2.006 0 0 1 -2 2z" fill="#00b39d" data-original="#00B39D" class="" style="fill:#448087" data-old_color="#00b39d"/><path d="m57 5h-50a2.006 2.006 0 0 0 -2 2v22a2.006 2.006 0 0 0 2 2h50a2.006 2.006 0 0 0 2-2v-22a2.006 2.006 0 0 0 -2-2z" fill="#00ccb3" data-original="#00CCB3" class="" style="fill:#448087" data-old_color="#00ccb3"/><path d="m44 29v16.65a10.013 10.013 0 0 1 -4.45 8.32l-7.55 5.03-7.55-5.03a10.013 10.013 0 0 1 -4.45-8.32v-16.65z" fill="#ff5023" data-original="#FF5023" class=""/><path d="m36 12.26a7 7 0 1 0 -8 11.48 7 7 0 1 0 8-11.48z" fill="#ffd422" data-original="#FFD422" class=""/><path d="m36 33h-12v12.65a6 6 0 0 0 2.67 4.99l5.33 3.55 5.33-3.55a6 6 0 0 0 2.67-4.99v-12.65z" fill="#ffd422" data-original="#FFD422" class=""/><path d="m28 5v7.26 11.48 5.26h8v-5.26-11.48-7.26z" fill="#e6e7e8" data-original="#E6E7E8" class=""/><path d="m57 4h-50a3 3 0 0 0 -3 3v30a3 3 0 0 0 3 3h12v5.648a10.979 10.979 0 0 0 4.9 9.152l7.547 5.031a1 1 0 0 0 1.11 0l7.543-5.031a10.979 10.979 0 0 0 4.9-9.152v-5.648h12a3 3 0 0 0 3-3v-30a3 3 0 0 0 -3-3zm-20 10.692a5.971 5.971 0 0 1 0 6.616zm-2 13.308h-6v-22h6zm-8-6.692a5.971 5.971 0 0 1 0-6.616zm-21 10.508a2.966 2.966 0 0 0 1 .184h12v2h-12a1 1 0 0 1 -1-1zm1 6.184a1 1 0 0 1 -1-1v-1.184a2.966 2.966 0 0 0 1 .184h12v2zm12-9v1h-12a1 1 0 0 1 -1-1v-22a1 1 0 0 1 1-1h20v5.776a7.956 7.956 0 0 0 0 12.448v3.776h-7a1 1 0 0 0 -1 1zm24 16.648a8.983 8.983 0 0 1 -4.008 7.489l-6.992 4.663-6.992-4.661a8.983 8.983 0 0 1 -4.008-7.491v-15.648h22zm14-7.648h-12v-2h12a2.966 2.966 0 0 0 1-.184v1.184a1 1 0 0 1 -1 1zm0-4h-12v-2h12a2.966 2.966 0 0 0 1-.184v1.184a1 1 0 0 1 -1 1zm0-4h-12v-1a1 1 0 0 0 -1-1h-7v-3.776a7.956 7.956 0 0 0 0-12.448v-5.776h20a1 1 0 0 1 1 1v22a1 1 0 0 1 -1 1z" data-original="#000000" class="" style="fill:#000000"/><path d="m53 25h-3v2h4a1 1 0 0 0 1-1v-4h-2z" data-original="#000000" class="" style="fill:#000000"/><path d="m11 22h-2v4a1 1 0 0 0 1 1h4v-2h-3z" data-original="#000000" class="" style="fill:#000000"/><path d="m54 9h-4v2h3v3h2v-4a1 1 0 0 0 -1-1z" data-original="#000000" class="" style="fill:#000000"/><path d="m9 10v4h2v-3h3v-2h-4a1 1 0 0 0 -1 1z" data-original="#000000" class="" style="fill:#000000"/><path d="m20 17h2v2h-2z" data-original="#000000" class="" style="fill:#000000"/><path d="m42 17h2v2h-2z" data-original="#000000" class="" style="fill:#000000"/><path d="m26.117 51.473 5.328 3.551a1 1 0 0 0 1.11 0l5.328-3.551a6.989 6.989 0 0 0 3.117-5.825v-12.648a1 1 0 0 0 -1-1h-16a1 1 0 0 0 -1 1v12.648a6.989 6.989 0 0 0 3.117 5.825zm-1.117-17.473h14v11.648a4.991 4.991 0 0 1 -2.227 4.161l-4.773 3.182-4.773-3.182a4.993 4.993 0 0 1 -2.227-4.161z" data-original="#000000" class="" style="fill:#000000"/><path d="m31 45a1 1 0 0 0 .707-.293l5-5-1.414-1.414-4.293 4.293-2.293-2.293-1.414 1.414 3 3a1 1 0 0 0 .707.293z" data-original="#000000" class="" style="fill:#000000"/></g> </svg>
