<?xml version="1.0"?>
<svg xmlns="http://www.w3.org/2000/svg" xmlns:xlink="http://www.w3.org/1999/xlink" xmlns:svgjs="http://svgjs.com/svgjs" version="1.1" width="512" height="512" x="0" y="0" viewBox="0 0 511.999 511.999" style="enable-background:new 0 0 512 512" xml:space="preserve" class=""><g>
<g xmlns="http://www.w3.org/2000/svg">
	<path style="" d="M402.709,72.936c11.697-7.813,27.465-0.034,28.383,14.002l3.674,56.19l3.674,56.19   c0.917,14.037-13.703,23.802-26.318,17.579l-50.499-24.913l-50.499-24.913c-12.614-6.223-13.762-23.768-2.065-31.581l46.825-31.277   L402.709,72.936z" fill="#fdbf00" data-original="#9e7325" class=""/>
	<path style="" d="M156.218,96.478c-3.641-13.587,8.793-26.02,22.379-22.379l54.391,14.574l54.391,14.574   c13.587,3.641,18.138,20.624,8.192,30.571l-39.818,39.818l-39.818,39.818c-9.947,9.947-26.93,5.396-30.571-8.192l-14.574-54.391   L156.218,96.478z" fill="#fdbf00" data-original="#9e7325" class=""/>
</g>
<g xmlns="http://www.w3.org/2000/svg">
	<path style="" d="M335.62,125.333c-0.935-14.035-16.712-21.796-28.4-13.968l-46.788,31.333l-46.788,31.333   c-11.688,7.827-10.52,25.371,2.103,31.579l50.529,24.853l50.529,24.853c12.623,6.208,27.231-3.576,26.297-17.611l-3.741-56.185   L335.62,125.333z" fill="#ff9100" data-original="#bb9430" class=""/>
	<path style="" d="M69.459,96.368c0.887-14.039,16.639-21.852,28.353-14.063l46.892,31.176l46.892,31.176   c11.713,7.788,10.605,25.335-1.997,31.587l-50.445,25.022l-50.445,25.022c-12.601,6.25-27.244-3.485-26.356-17.522l3.553-56.198   L69.459,96.368z" fill="#ff9100" data-original="#bb9430" class=""/>
</g>
<path xmlns="http://www.w3.org/2000/svg" style="" d="M33.136,182.325c-3.641-13.587,8.793-26.02,22.379-22.379l54.391,14.574l54.391,14.574  c13.587,3.641,18.138,20.624,8.192,30.571l-39.818,39.818L92.854,299.3c-9.947,9.947-26.93,5.396-30.571-8.192l-14.574-54.391  L33.136,182.325z" fill="#ffda2d" data-original="#e2c35a" class=""/>
<path xmlns="http://www.w3.org/2000/svg" style="" d="M389.099,143.808c7.033-12.182,24.616-12.182,31.65,0l28.155,48.766l28.155,48.766  c7.033,12.182-1.758,27.409-15.825,27.409h-56.31h-56.31c-14.067,0-22.858-15.227-15.825-27.409l28.155-48.766L389.099,143.808z" fill="#ff641a" data-original="#d9b43a" class=""/>
<path xmlns="http://www.w3.org/2000/svg" style="" d="M251.252,231.665c-9.869-10.023-5.187-26.972,8.427-30.507l54.503-14.153l54.503-14.153  c13.615-3.535,25.952,8.993,22.205,22.552l-14.994,54.277l-14.994,54.277c-3.745,13.559-20.764,17.978-30.633,7.955l-39.508-40.124  L251.252,231.665z" fill="#ffda2d" data-original="#e2c35a" class=""/>
<path xmlns="http://www.w3.org/2000/svg" style="" d="M183.907,121.522c7.033-12.182,24.616-12.182,31.65,0l28.155,48.766l28.155,48.766  c7.033,12.182-1.758,27.409-15.825,27.409h-56.31h-56.31c-14.067,0-22.858-15.227-15.825-27.409l28.155-48.766L183.907,121.522z" fill="#ff641a" data-original="#d9b43a" class=""/>
<path xmlns="http://www.w3.org/2000/svg" style="" d="M473.729,235.321H256.014L113.266,391.308h0.022c0,0.649,0.011,1.295,0.034,1.939  c0.978,27.466,23.86,48.935,50.99,48.935h91.702h91.702c27.13,0,50.012-21.469,50.99-48.935c0.023-0.644,0.034-1.291,0.034-1.939  h0.022c52.441-26.958,90.607-68.356,104.265-116.537C508.626,255.016,494.017,235.321,473.729,235.321z" fill="#f03800" data-original="#5b5751" class=""/>
<path xmlns="http://www.w3.org/2000/svg" style="" d="M316.357,344.459L316.357,344.459c33.723-44.676,2.279-109.138-53.238-109.138H38.298  c-20.212,0-34.902,19.585-29.347,39.273c13.616,48.262,51.826,89.724,104.34,116.714h109.109c36.536,0,71.177-16.948,93.502-46.246  C316.053,344.861,316.205,344.661,316.357,344.459z" fill="#ff641a" data-original="#706b63" class=""/>
<path xmlns="http://www.w3.org/2000/svg" d="M504.111,242.743c-6.374-8.433-15.64-13.721-25.898-14.918l-33.983-58.861l-5.397-82.532  c-0.614-9.389-6.019-17.482-14.459-21.645c-8.439-4.163-18.149-3.529-25.974,1.699l-62.505,41.75  c-3.143-3.166-7.093-5.52-11.525-6.767c-7.213-2.027-14.943-0.818-21.246,3.312c-3.402-4.344-8.154-7.53-13.736-9.025  L180.606,66.607c-9.088-2.438-18.489,0.082-25.143,6.736c-6.655,6.655-9.173,16.053-6.737,25.144l2.723,10.164l-49.341-32.806  c-7.838-5.211-17.549-5.827-25.979-1.644c-8.43,4.181-13.817,12.284-14.411,21.676l-3.587,56.738l-0.607-0.162  c-9.089-2.436-18.488,0.083-25.143,6.736c-6.655,6.655-9.173,16.053-6.737,25.144l11.591,43.261  c-11.611,0.318-22.263,5.792-29.354,15.16c-7.395,9.769-9.727,22.142-6.397,33.945c13.675,48.471,50.616,90.733,104.232,119.397  c1.136,14.287,7.447,27.532,17.941,37.533c11.035,10.518,25.473,16.311,40.653,16.311h183.405c15.18,0,29.618-5.793,40.654-16.311  c10.491-9.999,16.801-23.24,17.94-37.519c53.542-28.62,90.46-70.82,104.18-119.224C513.857,265.005,511.532,252.56,504.111,242.743z   M403.152,213.762c-4.284,0-7.757,3.473-7.757,7.757c0,2.445,1.134,4.622,2.901,6.044h-8.24l8.314-30.095  c2.235-8.092,0.539-16.496-4.656-23.057c-2.48-3.131-5.613-5.605-9.108-7.303l11.214-19.423c1.901-3.292,5.305-5.257,9.107-5.257  s7.206,1.965,9.107,5.257l15.917,27.568c0.007,0.012,0.013,0.024,0.022,0.036l30.18,52.273h-52.14c1.768-1.422,2.9-3.599,2.9-6.044  C410.909,217.236,407.436,213.762,403.152,213.762z M359.396,227.564c1.768-1.422,2.9-3.599,2.9-6.044  c0-4.284-3.473-7.757-7.757-7.757s-7.757,3.473-7.757,7.757c0,2.445,1.134,4.622,2.901,6.044h-67.597  c-0.101-4.279-1.269-8.522-3.501-12.389l-5.479-9.49l68.221-17.716c0.016-0.004,0.032-0.008,0.048-0.012l29.263-7.599  c0.759-0.197,1.545-0.313,2.331-0.343c3.273-0.108,6.485,1.38,8.582,4.029c1.228,1.549,3.102,4.818,1.865,9.293l-9.455,34.226  h-14.564V227.564z M132.898,227.564c0.082-1.413,0.47-2.989,1.417-4.632l56.31-97.532c1.901-3.293,5.305-5.258,9.107-5.258  s7.206,1.965,9.107,5.258l56.31,97.532c0.948,1.641,1.336,3.218,1.418,4.632H132.898z M407.018,79.386  c3.161-2.112,7.084-2.37,10.493-0.686c3.409,1.682,5.592,4.95,5.84,8.743l3.351,51.256c-4.82-7.403-12.853-11.785-21.778-11.785  c-9.411,0-17.838,4.865-22.543,13.015l-14.524,25.155c-0.375,0.081-0.751,0.163-1.122,0.26l-20.326,5.278l-3.05-45.805  c-0.06-0.908-0.178-1.804-0.329-2.692L407.018,79.386z M320.169,116.401c3.021,0.85,5.487,2.925,6.764,5.695  c0.54,1.171,0.858,2.433,0.946,3.75l3.246,48.745l-66.067,17.156l-17.826-30.876l57.209-38.312c0.014-0.009,0.029-0.02,0.043-0.029  l7.051-4.722C314.138,116.066,317.202,115.567,320.169,116.401z M163.712,94.47c-0.985-3.672,0.033-7.47,2.721-10.157  c2.688-2.689,6.484-3.704,10.157-2.721l108.782,29.148c1.875,0.502,3.49,1.445,4.763,2.73l-50.677,33.938l-17.184-29.763  c-4.705-8.15-13.133-13.016-22.543-13.016c-9.41,0-17.838,4.865-22.543,13.016l-3.387,5.867l-2.809-1.868L163.712,94.47z   M77.2,96.857c0.24-3.794,2.416-7.067,5.822-8.756c3.405-1.69,7.328-1.443,10.494,0.665l72.512,48.208l-22.278,38.586  l-70.336-18.846L77.2,96.857z M43.351,170.16c2.688-2.689,6.485-3.704,10.158-2.721l9.703,2.6c0.017,0.004,0.034,0.009,0.051,0.013  l72.459,19.415l-14.842,25.708c-2.232,3.866-3.4,8.11-3.501,12.389H53.289l-12.66-47.247  C39.645,176.645,40.663,172.847,43.351,170.16z M495.563,272.656c-12.604,44.469-47.039,83.433-97.126,110.054H183.598  c-4.284,0-7.757,3.472-7.757,7.757s3.473,7.757,7.757,7.757H390.42c-3.338,20.385-21.471,36.201-42.703,36.201H164.311  c-21.234,0-39.368-15.817-42.703-36.201h30.962c4.284,0,7.757-3.472,7.757-7.757s-3.473-7.757-7.757-7.757h-38.957  c-50.17-26.661-84.632-65.688-97.196-110.223c-1.998-7.085-0.601-14.509,3.835-20.37c4.348-5.745,10.925-9.039,18.047-9.039h9.009  c0.008,0,0.017,0.002,0.025,0.002c0.01,0,0.021-0.002,0.031-0.002h79.214c0.03,0,0.06,0,0.09,0h146.154  c0.013,0,0.027,0.002,0.04,0.002c0.009,0,0.019-0.002,0.028-0.002h106.947c0.01,0,0.02,0.002,0.03,0.002  c0.008,0,0.017-0.002,0.025-0.002h93.683c0.005,0,0.01,0.001,0.016,0.001c0.005,0,0.01-0.001,0.016-0.001h0.123  c7.11,0,13.672,3.288,18.005,9.02C496.197,258.002,497.593,265.494,495.563,272.656z" fill="#000000" data-original="#000000" style="" class=""/>
<circle xmlns="http://www.w3.org/2000/svg" cx="359.71" cy="147.564" r="7.757" fill="#000000" data-original="#000000" style="" class=""/>
<circle xmlns="http://www.w3.org/2000/svg" cx="378.328" cy="118.086" r="7.757" fill="#000000" data-original="#000000" style="" class=""/>
<circle xmlns="http://www.w3.org/2000/svg" cx="407.288" cy="103.606" r="7.757" fill="#000000" data-original="#000000" style="" class=""/>
<circle xmlns="http://www.w3.org/2000/svg" cx="176.638" cy="96.366" r="7.757" fill="#000000" data-original="#000000" style="" class=""/>
<circle xmlns="http://www.w3.org/2000/svg" cx="242.834" cy="121.189" r="7.757" fill="#000000" data-original="#000000" style="" class=""/>
<circle xmlns="http://www.w3.org/2000/svg" cx="279.034" cy="176.007" r="7.757" fill="#000000" data-original="#000000" style="" class=""/>
<circle xmlns="http://www.w3.org/2000/svg" cx="310.064" cy="165.664" r="7.757" fill="#000000" data-original="#000000" style="" class=""/>
<circle xmlns="http://www.w3.org/2000/svg" cx="287.309" cy="152.218" r="7.757" fill="#000000" data-original="#000000" style="" class=""/>
<circle xmlns="http://www.w3.org/2000/svg" cx="124.975" cy="157.41" r="7.757" fill="#000000" data-original="#000000" style="" class=""/>
<circle xmlns="http://www.w3.org/2000/svg" cx="93.904" cy="146.136" r="7.757" fill="#000000" data-original="#000000" style="" class=""/>
<circle xmlns="http://www.w3.org/2000/svg" cx="93.78" cy="118.21" r="7.757" fill="#000000" data-original="#000000" style="" class=""/>
<circle xmlns="http://www.w3.org/2000/svg" cx="124.861" cy="133.621" r="7.757" fill="#000000" data-original="#000000" style="" class=""/>
<circle xmlns="http://www.w3.org/2000/svg" cx="111.477" cy="211.174" r="7.757" fill="#000000" data-original="#000000" style="" class=""/>
<circle xmlns="http://www.w3.org/2000/svg" cx="90.791" cy="190.487" r="7.757" fill="#000000" data-original="#000000" style="" class=""/>
<circle xmlns="http://www.w3.org/2000/svg" cx="426.94" cy="204.968" r="7.757" fill="#000000" data-original="#000000" style="" class=""/>
<circle xmlns="http://www.w3.org/2000/svg" cx="407.288" cy="180.144" r="7.757" fill="#000000" data-original="#000000" style="" class=""/>
<circle xmlns="http://www.w3.org/2000/svg" cx="302.823" cy="215.311" r="7.757" fill="#000000" data-original="#000000" style="" class=""/>
<circle xmlns="http://www.w3.org/2000/svg" cx="333.853" cy="203.933" r="7.757" fill="#000000" data-original="#000000" style="" class=""/>
<circle xmlns="http://www.w3.org/2000/svg" cx="173.535" cy="194.625" r="7.757" fill="#000000" data-original="#000000" style="" class=""/>
<circle xmlns="http://www.w3.org/2000/svg" cx="198.359" cy="155.321" r="7.757" fill="#000000" data-original="#000000" style="" class=""/>
<circle xmlns="http://www.w3.org/2000/svg" cx="204.565" cy="215.311" r="7.757" fill="#000000" data-original="#000000" style="" class=""/>
<circle xmlns="http://www.w3.org/2000/svg" cx="214.908" cy="184.282" r="7.757" fill="#000000" data-original="#000000" style="" class=""/>
<circle xmlns="http://www.w3.org/2000/svg" cx="235.594" cy="215.311" r="7.757" fill="#000000" data-original="#000000" style="" class=""/>
<g xmlns="http://www.w3.org/2000/svg">
</g>
<g xmlns="http://www.w3.org/2000/svg">
</g>
<g xmlns="http://www.w3.org/2000/svg">
</g>
<g xmlns="http://www.w3.org/2000/svg">
</g>
<g xmlns="http://www.w3.org/2000/svg">
</g>
<g xmlns="http://www.w3.org/2000/svg">
</g>
<g xmlns="http://www.w3.org/2000/svg">
</g>
<g xmlns="http://www.w3.org/2000/svg">
</g>
<g xmlns="http://www.w3.org/2000/svg">
</g>
<g xmlns="http://www.w3.org/2000/svg">
</g>
<g xmlns="http://www.w3.org/2000/svg">
</g>
<g xmlns="http://www.w3.org/2000/svg">
</g>
<g xmlns="http://www.w3.org/2000/svg">
</g>
<g xmlns="http://www.w3.org/2000/svg">
</g>
<g xmlns="http://www.w3.org/2000/svg">
</g>
</g></svg>
