<?xml version="1.0" encoding="iso-8859-1"?>
<!-- Generator: Adobe Illustrator 19.0.0, SVG Export Plug-In . SVG Version: 6.00 Build 0)  -->
<svg version="1.1" id="Capa_1" xmlns="http://www.w3.org/2000/svg" xmlns:xlink="http://www.w3.org/1999/xlink" x="0px" y="0px"
	 viewBox="0 0 512 512" style="enable-background:new 0 0 512 512;" xml:space="preserve">
<path style="fill:#ED5565;" d="M504.499,211.001v220c0,11-9,20-20,20H27.5c-11,0-20-9-20-20v-220c0-11,9-20,20-20h30h396.999h30
	C495.499,191.001,504.499,200.001,504.499,211.001z"/>
<path style="fill:#DA4453;" d="M484.499,191.001h-30h-0.003c11,0,20,9,20,20v220c0,11-9,20-20,20h30.003c11,0,20-9,20-20v-220
	C504.499,200.001,495.499,191.001,484.499,191.001z"/>
<path style="fill:#656D78;" d="M238.699,91.021c-1.72-2.95-2.7-6.37-2.7-10.02c0-11.05,8.96-20,20-20c11.05,0,20,8.95,20,20
	c0,3.65-0.98,7.07-2.7,10.01c-3.44,5.97-9.9,9.99-17.3,9.99C248.609,101.001,242.149,96.991,238.699,91.021z"/>
<path style="fill:#FFCE54;" d="M464.499,221.001H47.5c0,5.52-4.48,10-10,10v180c5.52,0,10,4.48,10,10h416.999c0-5.52,4.481-10,10-10
	v-180C468.98,231.001,464.499,226.521,464.499,221.001z"/>
<path d="M503.93,191.572c-5.19-5.19-12.09-8.06-19.43-8.07h-36.481L282.654,87.763c0.55-2.165,0.844-4.431,0.844-6.765
	c0-15.163-12.336-27.5-27.5-27.5c-15.163,0-27.499,12.336-27.499,27.5c0,2.334,0.294,4.601,0.844,6.766L63.98,183.501H27.5
	c-7.34,0.01-14.24,2.88-19.43,8.07s-8.05,12.09-8.07,19.43v220c0.02,7.34,2.88,14.24,8.07,19.43s12.09,8.06,19.43,8.07h98.41
	c4.13,0,7.5-3.36,7.5-7.5c0-4.13-3.37-7.5-7.5-7.5H27.5c-3.31,0-6.44-1.31-8.82-3.68c-2.37-2.38-3.68-5.51-3.68-8.82v-220
	c0-3.31,1.31-6.44,3.68-8.82c2.38-2.37,5.51-3.68,8.82-3.68h457c3.31,0,6.44,1.31,8.82,3.68c2.37,2.38,3.68,5.51,3.68,8.82v220
	c0,3.31-1.31,6.44-3.68,8.82c-2.38,2.37-5.51,3.68-8.82,3.68H155.91c-4.14,0-7.5,3.37-7.5,7.5c0,4.14,3.36,7.5,7.5,7.5H484.5
	c7.34-0.01,14.24-2.88,19.43-8.07s8.06-12.09,8.07-19.43v-220C511.99,203.661,509.12,196.762,503.93,191.572z M255.998,68.499
	c6.893,0,12.5,5.607,12.5,12.5c0,6.892-5.607,12.499-12.5,12.499c-4.472,0-8.392-2.369-10.601-5.91
	c-0.06-0.116-0.113-0.234-0.179-0.348c-0.084-0.145-0.179-0.28-0.271-0.418c-0.921-1.741-1.449-3.721-1.449-5.824
	C243.499,74.106,249.106,68.499,255.998,68.499z M236.878,100.735c4.953,4.799,11.695,7.763,19.12,7.763
	c7.426,0,14.169-2.963,19.122-7.764l142.961,82.767H93.918L236.878,100.735z"/>
<path d="M400.22,213.501H47.5c-1.97,0-3.91,0.8-5.3,2.19c-1.4,1.4-2.2,3.33-2.2,5.31c0,1.37-1.12,2.49-2.5,2.5
	c-1.97,0-3.91,0.8-5.3,2.19c-1.4,1.4-2.2,3.33-2.2,5.31v180c0,1.98,0.8,3.91,2.2,5.31c1.39,1.39,3.32,2.19,5.3,2.19
	c1.38,0,2.5,1.13,2.5,2.5c0,1.98,0.8,3.91,2.2,5.31c1.39,1.39,3.33,2.19,5.3,2.19h417c1.98,0,3.91-0.8,5.31-2.19
	c1.39-1.4,2.19-3.33,2.19-5.31c0-1.37,1.13-2.5,2.5-2.5c1.98,0,3.91-0.8,5.31-2.2c1.39-1.39,2.19-3.32,2.19-5.3v-180
	c0-1.98-0.8-3.91-2.19-5.31c-1.4-1.39-3.33-2.19-5.31-2.19c-1.37-0.01-2.5-1.13-2.5-2.5c0-1.98-0.8-3.91-2.19-5.31
	c-1.4-1.39-3.33-2.19-5.31-2.19h-34.28c-4.13,0-7.5,3.36-7.5,7.5c0,4.13,3.37,7.5,7.5,7.5h28.47c1.72,3.63,4.68,6.58,8.31,8.31
	v168.38c-3.63,1.73-6.58,4.68-8.31,8.31H53.31c-1.72-3.63-4.67-6.58-8.31-8.31v-168.38c3.64-1.73,6.59-4.68,8.31-8.31h346.91
	c4.14,0,7.5-3.37,7.5-7.5C407.72,216.861,404.36,213.501,400.22,213.501z"/>
<path d="M88.497,301v40c0,20.678,16.822,37.5,37.5,37.5s37.5-16.822,37.5-37.5v-40c0-20.678-16.822-37.5-37.5-37.5
	S88.497,280.322,88.497,301z M148.497,301v40c0,12.407-10.093,22.5-22.5,22.5s-22.5-10.093-22.5-22.5v-40
	c0-12.407,10.093-22.5,22.5-22.5C138.403,278.5,148.497,288.593,148.497,301z"/>
<path d="M185.997,263.5c-4.142,0-7.5,3.358-7.5,7.5v100c0,4.142,3.358,7.5,7.5,7.5s7.5-3.358,7.5-7.5v-32.5h22.5
	c20.678,0,37.5-16.822,37.5-37.5s-16.822-37.5-37.5-37.5H185.997z M238.497,301c0,12.407-10.093,22.5-22.5,22.5h-22.5v-45h22.5
	C228.403,278.5,238.497,288.593,238.497,301z"/>
<path d="M326,278.5c4.142,0,7.5-3.358,7.5-7.5s-3.358-7.5-7.5-7.5h-50.002c-4.142,0-7.5,3.358-7.5,7.5v100
	c0,4.142,3.358,7.5,7.5,7.5H326c4.142,0,7.5-3.358,7.5-7.5s-3.358-7.5-7.5-7.5h-42.502v-35H316c4.142,0,7.5-3.358,7.5-7.5
	s-3.358-7.5-7.5-7.5h-32.502v-35H326z"/>
<path d="M362.337,267c-0.076-0.12-0.154-0.237-0.236-0.352c-0.069-0.097-0.139-0.19-0.211-0.283
	c-0.073-0.093-0.148-0.183-0.225-0.272c-0.089-0.103-0.18-0.204-0.273-0.301c-0.069-0.072-0.141-0.142-0.213-0.21
	c-0.105-0.101-0.212-0.2-0.323-0.293c-0.073-0.063-0.148-0.122-0.224-0.181c-0.113-0.089-0.227-0.176-0.344-0.257
	c-0.086-0.06-0.175-0.117-0.264-0.173c-0.11-0.07-0.221-0.139-0.334-0.203c-0.105-0.06-0.213-0.115-0.322-0.169
	c-0.103-0.051-0.205-0.103-0.31-0.149c-0.122-0.055-0.247-0.104-0.372-0.152c-0.099-0.038-0.196-0.075-0.296-0.108
	c-0.129-0.043-0.261-0.082-0.393-0.119c-0.105-0.028-0.209-0.056-0.315-0.081c-0.125-0.029-0.251-0.053-0.378-0.076
	c-0.123-0.021-0.245-0.04-0.368-0.056c-0.111-0.014-0.223-0.025-0.336-0.034c-0.146-0.012-0.291-0.018-0.438-0.022
	c-0.055-0.001-0.108-0.008-0.163-0.008c-0.044,0-0.087,0.006-0.131,0.006c-0.154,0.003-0.308,0.011-0.462,0.023
	c-0.098,0.008-0.195,0.016-0.292,0.027c-0.143,0.017-0.285,0.04-0.428,0.065c-0.107,0.019-0.213,0.038-0.319,0.061
	c-0.125,0.028-0.249,0.062-0.373,0.096c-0.12,0.033-0.239,0.067-0.357,0.106c-0.106,0.035-0.211,0.075-0.316,0.116
	c-0.131,0.05-0.262,0.102-0.39,0.16c-0.091,0.041-0.182,0.086-0.272,0.131c-0.135,0.067-0.269,0.138-0.399,0.213
	c-0.04,0.023-0.081,0.04-0.12,0.064c-0.049,0.029-0.092,0.064-0.141,0.094c-0.12,0.076-0.238,0.154-0.353,0.237
	c-0.096,0.068-0.19,0.139-0.282,0.211c-0.093,0.074-0.184,0.149-0.273,0.227c-0.103,0.088-0.202,0.178-0.299,0.272
	c-0.073,0.07-0.143,0.143-0.213,0.216c-0.1,0.104-0.198,0.211-0.291,0.32c-0.063,0.074-0.124,0.151-0.184,0.228
	c-0.087,0.111-0.172,0.223-0.253,0.338c-0.062,0.088-0.119,0.179-0.177,0.27c-0.069,0.108-0.137,0.217-0.2,0.329
	c-0.061,0.107-0.117,0.217-0.172,0.327c-0.051,0.101-0.101,0.202-0.147,0.305c-0.055,0.124-0.105,0.25-0.154,0.377
	c-0.037,0.096-0.074,0.193-0.106,0.29c-0.045,0.131-0.083,0.264-0.12,0.398c-0.028,0.103-0.056,0.205-0.08,0.309
	c-0.029,0.126-0.054,0.254-0.077,0.383c-0.021,0.121-0.039,0.241-0.055,0.362c-0.014,0.113-0.026,0.227-0.035,0.341
	c-0.012,0.145-0.019,0.289-0.022,0.434c-0.001,0.055-0.008,0.109-0.008,0.164v100c0,4.142,3.358,7.5,7.5,7.5s7.5-3.358,7.5-7.5
	V298.08l46.069,76.781c0.022,0.036,0.049,0.066,0.071,0.102c0.131,0.21,0.272,0.414,0.423,0.609
	c0.039,0.051,0.076,0.106,0.117,0.156c0.179,0.22,0.37,0.429,0.573,0.627c0.07,0.068,0.144,0.131,0.216,0.196
	c0.146,0.132,0.294,0.258,0.45,0.378c0.083,0.064,0.166,0.128,0.251,0.188c0.187,0.132,0.38,0.256,0.579,0.371
	c0.047,0.027,0.091,0.058,0.139,0.084c0.255,0.141,0.52,0.264,0.791,0.374c0.053,0.022,0.107,0.039,0.16,0.059
	c0.221,0.084,0.446,0.158,0.676,0.221c0.076,0.021,0.151,0.04,0.227,0.058c0.215,0.052,0.434,0.094,0.657,0.127
	c0.076,0.011,0.152,0.026,0.229,0.035c0.274,0.032,0.552,0.052,0.834,0.053c0.016,0,0.031,0.003,0.046,0.003
	c0.028,0,0.057-0.005,0.086-0.006c0.27-0.003,0.535-0.022,0.796-0.052c0.096-0.012,0.19-0.029,0.286-0.044
	c0.216-0.034,0.429-0.077,0.638-0.129c0.085-0.022,0.17-0.042,0.255-0.066c0.601-0.172,1.17-0.418,1.699-0.727
	c0.03-0.017,0.061-0.029,0.091-0.046c0.049-0.029,0.092-0.064,0.141-0.094c0.12-0.076,0.238-0.154,0.353-0.237
	c0.096-0.068,0.19-0.139,0.282-0.21c0.093-0.074,0.184-0.149,0.273-0.227c0.103-0.088,0.202-0.178,0.299-0.271
	c0.073-0.07,0.143-0.143,0.213-0.216c0.1-0.104,0.198-0.21,0.291-0.32c0.063-0.074,0.124-0.151,0.184-0.228
	c0.087-0.111,0.172-0.223,0.253-0.338c0.062-0.088,0.119-0.179,0.177-0.27c0.069-0.108,0.137-0.217,0.2-0.329
	c0.061-0.107,0.117-0.217,0.172-0.327c0.051-0.101,0.101-0.202,0.147-0.305c0.055-0.124,0.105-0.25,0.154-0.377
	c0.037-0.096,0.074-0.193,0.106-0.291c0.044-0.131,0.083-0.264,0.12-0.398c0.028-0.103,0.056-0.205,0.08-0.309
	c0.029-0.126,0.054-0.254,0.077-0.383c0.021-0.121,0.04-0.241,0.055-0.362c0.014-0.113,0.026-0.227,0.035-0.341
	c0.012-0.145,0.019-0.289,0.022-0.434c0.001-0.055,0.008-0.109,0.008-0.165V271c0-4.142-3.358-7.5-7.5-7.5s-7.5,3.358-7.5,7.5
	v72.922l-46.069-76.781C362.402,267.092,362.368,267.048,362.337,267z"/>
<g>
</g>
<g>
</g>
<g>
</g>
<g>
</g>
<g>
</g>
<g>
</g>
<g>
</g>
<g>
</g>
<g>
</g>
<g>
</g>
<g>
</g>
<g>
</g>
<g>
</g>
<g>
</g>
<g>
</g>
</svg>
