<?xml version="1.0" encoding="iso-8859-1"?>
<!-- Generator: Adobe Illustrator 19.0.0, SVG Export Plug-In . SVG Version: 6.00 Build 0)  -->
<svg version="1.1" id="Layer_1" xmlns="http://www.w3.org/2000/svg" xmlns:xlink="http://www.w3.org/1999/xlink" x="0px" y="0px"
	 viewBox="0 0 512 512" style="enable-background:new 0 0 512 512;" xml:space="preserve">
<g>
	<g>
		<path d="M324.267,366.933H187.733c-5.12,0-8.533,3.413-8.533,8.533s3.413,8.533,8.533,8.533h136.533
			c5.12,0,8.533-3.413,8.533-8.533S329.387,366.933,324.267,366.933z"/>
	</g>
</g>
<g>
	<g>
		<path d="M349.867,409.6H162.133c-5.12,0-8.533,3.413-8.533,8.533s3.413,8.533,8.533,8.533h187.733c5.12,0,8.533-3.413,8.533-8.533
			S354.987,409.6,349.867,409.6z"/>
	</g>
</g>
<g>
	<g>
		<path d="M375.467,452.267H136.533c-5.12,0-8.533,3.413-8.533,8.533c0,5.12,3.413,8.533,8.533,8.533h238.933
			c5.12,0,8.533-3.413,8.533-8.533C384,455.68,380.587,452.267,375.467,452.267z"/>
	</g>
</g>
<g>
	<g>
		<path d="M0,307.2v93.867c0,14.507,11.093,25.6,25.6,25.6h58.027l-12.8,64.853c-0.853,5.12,0,10.24,3.413,14.507
			S81.92,512,87.04,512h337.92c5.12,0,10.24-2.56,12.8-5.973c3.413-4.267,4.267-9.387,3.413-14.507l-12.8-64.853H486.4
			c14.507,0,25.6-11.093,25.6-25.6V307.2H0z M87.04,494.933l15.36-75.093l15.36-78.507h276.48l15.36,78.507l15.36,75.093H87.04z"/>
	</g>
</g>
<g>
	<g>
		<path d="M486.4,85.333h-59.733v102.4c0,23.893-18.773,42.667-42.667,42.667H128c-23.893,0-42.667-18.773-42.667-42.667v-102.4
			H25.6c-14.507,0-25.6,11.093-25.6,25.6v179.2h512v-179.2C512,96.427,500.907,85.333,486.4,85.333z"/>
	</g>
</g>
<g>
	<g>
		<rect x="290.133" y="145.067" width="85.333" height="34.133"/>
	</g>
</g>
<g>
	<g>
		<path d="M401.067,85.333V17.067C401.067,7.68,393.387,0,384,0H128c-9.387,0-17.067,7.68-17.067,17.067v68.267H102.4v102.4
			c0,14.507,11.093,25.6,25.6,25.6h256c14.507,0,25.6-11.093,25.6-25.6v-102.4H401.067z M128,17.067h256v68.267H128V17.067z
			 M392.533,187.733c0,5.12-3.413,8.533-8.533,8.533H281.6c-5.12,0-8.533-3.413-8.533-8.533v-51.2c0-5.12,3.413-8.533,8.533-8.533
			H384c5.12,0,8.533,3.413,8.533,8.533V187.733z"/>
	</g>
</g>
<g>
</g>
<g>
</g>
<g>
</g>
<g>
</g>
<g>
</g>
<g>
</g>
<g>
</g>
<g>
</g>
<g>
</g>
<g>
</g>
<g>
</g>
<g>
</g>
<g>
</g>
<g>
</g>
<g>
</g>
</svg>
