<svg height="512" viewBox="0 0 64 64" width="512" xmlns="http://www.w3.org/2000/svg"><g id="flat"><circle cx="12" cy="42" fill="#143441" r="9"/><circle cx="12" cy="42" fill="#f4f4e6" r="5"/><circle cx="52" cy="42" fill="#143441" r="9"/><circle cx="52" cy="42" fill="#f4f4e6" r="5"/><path d="m8 31v-6l12-12v6z" fill="#f9bb4b"/><path d="m28 33h-4l-4-4 5-5-5-5-12 12 3 3 10 11 23-6 6-6 4-5h4l3-4h-11z" fill="#b11e48"/><path d="m20.879 16.879h4.243v4.243h-4.243z" fill="#5a6470" transform="matrix(.707 -.707 .707 .707 -6.698 21.828)"/><path d="m25.879 13.05h4.243v9.899h-4.243z" fill="#143441" transform="matrix(.707 -.707 .707 .707 -4.527 25.071)"/><path d="m13 26 3 3h4l5-5-5-5z" fill="#143441"/><path d="m51 41h2v2h-2z" fill="#50b3c9"/><path d="m11 41h2v2h-2z" fill="#50b3c9"/><path d="m28 33a7.638 7.638 0 0 1 2-5 4.38 4.38 0 0 1 3-1h7a2.54 2.54 0 0 0 2-1 6.826 6.826 0 0 1 4.828-2h3.172l-5 6z" fill="#d3843d"/><path d="m24 37-9.417.942 6.417 7.058h6l4-6z" fill="#da1c4b"/><path d="m31 39 9-4h8l-4 4h-4v6h-13z" fill="#f4f4e6"/><path d="m40 39-6 6h6z" fill="#aabece"/><path d="m40 39h7a3 3 0 0 1 3 3 3 3 0 0 1 -3 3h-7a0 0 0 0 1 0 0v-6a0 0 0 0 1 0 0z" fill="#394d5c"/></g></svg>