<svg id="Filled_stroke_cutting_Ex" height="40px" viewBox="0 0 512 512" width="40px" xmlns="http://www.w3.org/2000/svg" data-name="Filled stroke cutting Ex"><g><path d="m160 24h192v232h-192z" fill="#dcf9fe"/><g><path d="m240 296h32v160h-32z" fill="#fa5d3f"/><path d="m396.1216 300.0521-28.1216-12.0521-26.2317 14.99a60 60 0 0 1 -59.5366 0l-26.2317-14.99-26.2317 14.99a60 60 0 0 1 -59.5366 0l-26.2317-14.99-28.1216 12.0521a20 20 0 0 1 -27.8784-18.3829v-15.6692a10 10 0 0 1 10-10h316a10 10 0 0 1 10 10v15.6692a20 20 0 0 1 -27.8784 18.3829z" fill="#fac850"/><path d="m226 224h60a10 10 0 0 1 10 10v22a0 0 0 0 1 0 0h-80a0 0 0 0 1 0 0v-22a10 10 0 0 1 10-10z" fill="#79d8eb"/><path d="m210 456h92a10 10 0 0 1 10 10v22a0 0 0 0 1 0 0h-112a0 0 0 0 1 0 0v-22a10 10 0 0 1 10-10z" fill="#fac850"/><path d="m414 248h-54v-224a8 8 0 0 0 -8-8h-192a8 8 0 0 0 -8 8v40h16v-32h80v184h-22a18.02 18.02 0 0 0 -18 18v14h-40v-168h-16v168h-54a18.02 18.02 0 0 0 -18 18v15.6694a28 28 0 0 0 39.03 25.7359l24.46-10.4829 22.7725 13.0131a68.2865 68.2865 0 0 0 65.7375.9585v137.106h-22a18.02 18.02 0 0 0 -18 18v22a8 8 0 0 0 8 8h112a8 8 0 0 0 8-8v-22a18.02 18.02 0 0 0 -18-18h-22v-88h-16v88h-16v-146.2146l8-4.5715 22.2622 12.7216a68.2726 68.2726 0 0 0 67.4756 0l22.7722-13.0131 24.46 10.4829a28 28 0 0 0 39.03-25.7359v-15.6694a18.02 18.02 0 0 0 -18-18zm-112 216a2.002 2.002 0 0 1 2 2v14h-96v-14a2.002 2.002 0 0 1 2-2zm-38-432h80v216h-40v-14a18.02 18.02 0 0 0 -18-18h-22zm0 200h22a2.002 2.002 0 0 1 2 2v14h-24zm-40 2a2.002 2.002 0 0 1 2-2h22v16h-24zm192 47.6694a12.0005 12.0005 0 0 1 -16.7271 11.03l-28.1215-12.0524a8.0007 8.0007 0 0 0 -7.1206.4072l-26.2315 14.99a52.2081 52.2081 0 0 1 -51.5986 0l-26.2315-14.99a7.9994 7.9994 0 0 0 -7.9384 0l-26.2315 14.99a52.2081 52.2081 0 0 1 -51.5986 0l-26.2315-14.99a7.9974 7.9974 0 0 0 -7.1206-.4072l-28.1215 12.0522a12.0005 12.0005 0 0 1 -16.7271-11.0298v-15.6694a2.002 2.002 0 0 1 2-2h316a2.002 2.002 0 0 1 2 2z"/><path d="m264 296h16v48h-16z"/><g><g fill="#fa5d3f"><path d="m336 352h112a0 0 0 0 1 0 0v22a10 10 0 0 1 -10 10h-92a10 10 0 0 1 -10-10v-22a0 0 0 0 1 0 0z" transform="matrix(-1 0 0 -1 784 736)"/><path d="m456 208h12a20 20 0 0 1 20 20v40a20 20 0 0 1 -20 20h-12a0 0 0 0 1 0 0v-80a0 0 0 0 1 0 0z" transform="matrix(-1 0 0 -1 944 496)"/></g><path d="m488 200h-12a28.0314 28.0314 0 0 0 -28 28v40a28.0314 28.0314 0 0 0 28 28h4v13.7842l-20.5293 34.2158h-113.4707a18.02 18.02 0 0 0 -18 18v22a8 8 0 0 0 8 8h59.4967l-40.6154 88h-18.8813v16h24a8 8 0 0 0 7.2637-4.6475l45.855-99.3525h28.517l22.5694 97.7988a8 8 0 0 0 7.7949 6.2012h24v-16h-17.6357l-22.3643-96.91v-21.09a18.0988 18.0988 0 0 0 -.1107-2h8.1107a8 8 0 0 0 6.86-3.8843l24-40a7.9982 7.9982 0 0 0 1.14-4.1157v-104a8 8 0 0 0 -8-8zm-48 162v14h-96v-14a2.002 2.002 0 0 1 2-2h92a2.002 2.002 0 0 1 2 2zm24-94v-40a12.0137 12.0137 0 0 1 12-12h4v64h-4a12.0137 12.0137 0 0 1 -12-12z"/></g><g><g fill="#fa5d3f"><path d="m74 352h92a10 10 0 0 1 10 10v22a0 0 0 0 1 0 0h-112a0 0 0 0 1 0 0v-22a10 10 0 0 1 10-10z"/><path d="m24 208h12a20 20 0 0 1 20 20v40a20 20 0 0 1 -20 20h-12a0 0 0 0 1 0 0v-80a0 0 0 0 1 0 0z"/></g><path d="m166 344h-113.4707l-20.5293-34.2158v-13.7842h4a28.0314 28.0314 0 0 0 28-28v-40a28.0314 28.0314 0 0 0 -28-28h-12a8 8 0 0 0 -8 8v104a7.9982 7.9982 0 0 0 1.14 4.1157l24 40a8 8 0 0 0 6.86 3.8843h8.1107a18.0988 18.0988 0 0 0 -.1107 2v21.09l-22.3643 96.91h-17.6357v16h24a8 8 0 0 0 7.7949-6.2012l22.5694-97.7988h28.517l45.855 99.3525a8 8 0 0 0 7.2637 4.6475h24v-16h-18.8813l-40.6154-88h59.4967a8 8 0 0 0 8-8v-22a18.02 18.02 0 0 0 -18-18zm-134-128h4a12.0137 12.0137 0 0 1 12 12v40a12.0137 12.0137 0 0 1 -12 12h-4zm136 160h-96v-14a2.002 2.002 0 0 1 2-2h92a2.002 2.002 0 0 1 2 2z"/></g></g></g></svg>