<?xml version="1.0"?>
<svg  id="Solid" width="70px" height="70px" viewBox="0 0 512 512"><g><path d="M304,234v14h40V32H264V216h22A18.02,18.02,0,0,1,304,234Z"/><path d="M208,234a18.02,18.02,0,0,1,18-18h22V32H168V248h40Z"/><path d="M302,464H210a2.002,2.002,0,0,0-2,2v14h96V466A2.002,2.002,0,0,0,302,464Z"/><path d="M364.0308,281.0542a8.0007,8.0007,0,0,1,7.1206-.4072l28.1215,12.0522A12.0005,12.0005,0,0,0,416,281.6694V266a2.002,2.002,0,0,0-2-2H98a2.002,2.002,0,0,0-2,2v15.6694a12.0005,12.0005,0,0,0,16.7271,11.03l28.1215-12.0522a7.9974,7.9974,0,0,1,7.1206.4072l26.2315,14.99a52.2081,52.2081,0,0,0,51.5986,0l26.2315-14.99a7.9994,7.9994,0,0,1,7.9384,0l26.2315,14.99a52.2081,52.2081,0,0,0,51.5986,0Z"/><polygon points="256 297.214 248 301.785 248 448 264 448 264 301.785 256 297.214"/><path d="M226,232a2.002,2.002,0,0,0-2,2v14h64V234a2.002,2.002,0,0,0-2-2Z"/><path d="M488,200H476a28.0314,28.0314,0,0,0-28,28v40a28.0314,28.0314,0,0,0,28,28h4v13.7842L459.4707,344H346a18.02,18.02,0,0,0-18,18v22a8,8,0,0,0,8,8h59.4967l-40.6154,88H336v16h24a8,8,0,0,0,7.2637-4.6475L413.1187,392h28.517l22.5694,97.7988A8,8,0,0,0,472,496h24V480H478.3643L456,383.09V362a18.0988,18.0988,0,0,0-.1107-2H464a8,8,0,0,0,6.86-3.8843l24-40A7.9982,7.9982,0,0,0,496,312V208A8,8,0,0,0,488,200Z"/><path d="M166,344H52.5293L32,309.7842V296h4a28.0314,28.0314,0,0,0,28-28V228a28.0314,28.0314,0,0,0-28-28H24a8,8,0,0,0-8,8V312a7.9982,7.9982,0,0,0,1.14,4.1157l24,40A8,8,0,0,0,48,360h8.1107A18.0988,18.0988,0,0,0,56,362v21.09L33.6357,480H16v16H40a8,8,0,0,0,7.7949-6.2012L70.3643,392h28.517l45.855,99.3525A8,8,0,0,0,152,496h24V480H157.1187l-40.6154-88H176a8,8,0,0,0,8-8V362A18.02,18.02,0,0,0,166,344Z"/></g></svg>
