<svg height="30" viewBox="0 0 128 128" width="30" xmlns="http://www.w3.org/2000/svg"><g><path d="m6.306 111.542 9.438-56.848a12.806 12.806 0 0 1 12.632-10.708h71.248a12.806 12.806 0 0 1 12.632 10.708l9.438 56.848z" fill="#f45858"/><path d="m14.002 111.542h99.996v10.151h-99.996z" fill="#6d7a84"/><path d="m6.306 6.306v4.725a18.135 18.135 0 0 0 18.135 18.135h79.118a18.135 18.135 0 0 0 18.135-18.135v-4.725z" fill="#f45858"/><path d="m55.745 29.166h16.509v14.82h-16.509z" fill="#f2da30"/><circle cx="64" cy="77.764" fill="#dfeef4" r="23.935"/><g><path d="m39.83 119.943h-4.5a1.75 1.75 0 0 0 0 3.5h4.5a1.75 1.75 0 0 0 0-3.5z"/><path d="m103.559 30.916a19.907 19.907 0 0 0 19.884-19.885v-4.724a1.749 1.749 0 0 0 -1.75-1.75h-16.558a1.75 1.75 0 0 0 0 3.5h14.808v2.974a16.4 16.4 0 0 1 -16.384 16.385h-79.118a16.4 16.4 0 0 1 -16.384-16.385v-2.974h89.4a1.75 1.75 0 0 0 0-3.5h-91.15a1.749 1.749 0 0 0 -1.75 1.75v4.724a19.907 19.907 0 0 0 19.884 19.885h29.559v11.32h-25.624a14.506 14.506 0 0 0 -14.358 12.171l-9.438 56.849a1.75 1.75 0 0 0 1.727 2.036h5.945v8.4a1.749 1.749 0 0 0 1.75 1.75h12.674a1.75 1.75 0 1 0 0-3.5h-10.924v-6.651h96.5v6.651h-64.184a1.75 1.75 0 0 0 0 3.5h65.932a1.749 1.749 0 0 0 1.75-1.75v-8.4h5.945a1.75 1.75 0 0 0 1.727-2.036l-9.438-56.849a14.506 14.506 0 0 0 -14.36-12.171h-25.619v-11.32zm6.97 24.064 9.1 54.812h-111.258l9.1-54.812a11.017 11.017 0 0 1 10.905-9.244h71.248a11.017 11.017 0 0 1 10.905 9.244zm-40.024-12.744h-13.005v-11.32h13.01z"/><path d="m38.314 77.764a25.686 25.686 0 1 0 25.686-25.685 25.715 25.715 0 0 0 -25.686 25.685zm47.8-1.75h-2.932a1.75 1.75 0 0 0 0 3.5h2.928a22.211 22.211 0 0 1 -20.36 20.36v-2.928a1.75 1.75 0 0 0 -3.5 0v2.928a22.211 22.211 0 0 1 -20.36-20.36h2.928a1.75 1.75 0 0 0 0-3.5h-2.928a22.213 22.213 0 0 1 20.36-20.36v2.928a1.75 1.75 0 0 0 3.5 0v-2.928a22.213 22.213 0 0 1 20.36 20.36z"/><path d="m66.288 73a5.252 5.252 0 0 0 -2.288-.538 5.3 5.3 0 1 0 5.3 5.3 5.233 5.233 0 0 0 -.54-2.287l6.893-6.894a1.749 1.749 0 0 0 -2.474-2.474zm-2.288 6.566a1.8 1.8 0 1 1 1.8-1.8 1.8 1.8 0 0 1 -1.8 1.8z"/><path d="m21.868 12.012a1.75 1.75 0 1 0 0 3.5h18.2a1.75 1.75 0 0 0 0-3.5z"/><path d="m47.54 12.012a1.75 1.75 0 0 0 0 3.5h5.354a1.75 1.75 0 1 0 0-3.5z"/></g></g></svg>